<?xml version="1.0" standalone="no"?>
<!DOCTYPE svg PUBLIC "-//W3C//DTD SVG 20010904//EN"
 "http://www.w3.org/TR/2001/REC-SVG-20010904/DTD/svg10.dtd">
<svg version="1.0" xmlns="http://www.w3.org/2000/svg"
 width="920.000000pt" height="857.000000pt" viewBox="0 0 920.000000 857.000000"
 preserveAspectRatio="xMidYMid meet">

<g transform="translate(0.000000,857.000000) scale(0.100000,-0.100000)"
fill="#000000" stroke="none">
<path d="M4255 8363 c-41 -10 -394 -136 -517 -184 -112 -44 -133 -56 -168 -96
l-40 -46 -186 23 c-206 25 -281 23 -322 -7 -41 -30 -137 -148 -203 -248 -100
-153 -62 -136 -304 -138 -202 -2 -212 -3 -259 -27 -27 -14 -63 -43 -80 -65
-47 -58 -122 -222 -193 -420 -14 -38 -30 -75 -35 -82 -5 -6 -31 -14 -58 -18
-163 -22 -361 -214 -485 -469 -61 -124 -116 -305 -135 -441 l-13 -90 -145
-140 c-268 -259 -281 -289 -264 -620 12 -225 19 -195 -79 -355 -78 -128 -121
-223 -127 -280 -4 -49 39 -221 109 -430 27 -81 33 -116 39 -240 5 -80 15 -215
24 -300 9 -85 21 -217 26 -292 6 -75 17 -159 24 -187 20 -76 73 -158 159 -242
l78 -77 24 -114 c13 -62 37 -168 54 -235 17 -66 31 -132 31 -146 0 -30 -12
-40 -125 -107 -245 -144 -438 -296 -659 -518 l-138 -140 -2 -48 c0 -27 -5 -52
-10 -56 -25 -18 55 -18 152 -2 155 27 337 25 472 -5 58 -12 117 -29 132 -37
35 -18 36 -47 8 -147 -11 -40 -38 -137 -61 -217 -37 -133 -44 -164 -48 -211 0
-9 -10 -26 -21 -39 -24 -28 -25 -34 -5 -26 14 5 14 3 2 -15 -8 -11 -13 -29
-10 -39 3 -10 0 -28 -7 -39 -20 -39 0 -40 71 -6 57 27 76 32 96 24 15 -6 22
-5 18 1 -11 18 66 40 139 40 88 0 79 -8 -68 -55 -61 -20 -133 -48 -160 -62
-28 -14 -64 -32 -79 -41 -16 -8 -31 -20 -34 -28 -3 -8 -13 -14 -22 -14 -14 0
-14 -2 -1 -11 13 -9 13 -10 0 -6 -8 2 -20 13 -26 26 -10 20 -12 17 -28 -33
-22 -69 -18 -94 17 -120 l28 -21 77 29 c439 163 675 214 946 203 101 -4 151
-11 219 -31 48 -14 98 -26 111 -26 42 0 89 42 124 109 18 36 34 67 37 69 2 3
78 -25 167 -61 538 -218 758 -294 1048 -366 767 -188 1560 -166 2330 66 176
52 820 296 919 347 l28 15 29 -61 c34 -72 83 -118 124 -118 16 0 69 12 117 27
82 25 101 26 283 26 156 1 218 -4 310 -21 149 -27 325 -79 480 -141 166 -65
160 -64 198 -41 28 17 32 25 31 62 0 24 -4 52 -9 63 l-9 20 -1 -20 -1 -20 -9
20 -9 20 -1 -20 c-1 -18 -3 -17 -12 5 -6 14 -10 28 -10 32 1 4 -5 5 -13 2 -8
-3 -19 3 -27 15 -7 12 -21 21 -31 21 -10 0 -48 14 -85 31 -37 17 -76 35 -87
40 -39 16 -140 51 -153 52 -8 0 -9 4 -3 10 27 27 139 8 247 -44 22 -10 45 -19
51 -19 7 0 19 -7 28 -16 40 -40 37 -24 -76 428 -38 152 -69 286 -69 297 0 28
42 48 148 72 170 37 276 36 581 -8 l44 -6 -5 33 c-4 30 -4 31 9 15 12 -18 13
-18 13 3 0 12 -5 22 -10 22 -6 0 -8 11 -4 26 6 23 -10 43 -162 193 -93 91
-205 196 -249 231 -96 78 -293 210 -395 267 -41 23 -86 51 -99 64 -27 26 -29
9 33 284 25 110 46 209 46 220 0 12 34 54 83 102 90 89 144 169 163 242 6 26
19 153 29 282 9 129 22 286 30 349 7 63 14 151 14 196 0 67 7 102 41 205 79
242 113 378 107 431 -7 53 -47 134 -148 297 l-64 104 0 256 0 256 -34 70 c-29
60 -59 95 -202 236 -146 145 -168 171 -174 205 -45 273 -123 487 -237 657 -23
34 -80 100 -127 147 -93 93 -177 144 -252 156 -65 10 -76 18 -95 76 -67 207
-167 409 -229 467 -69 64 -120 74 -333 66 -97 -3 -182 -3 -188 2 -6 4 -37 49
-68 100 -31 50 -88 132 -127 183 -108 139 -146 150 -411 110 -185 -28 -187
-27 -232 20 -21 23 -52 48 -68 56 -38 20 -454 172 -568 209 -114 36 -145 31
-280 -45 -59 -33 -113 -60 -121 -60 -8 0 -46 19 -84 41 -136 80 -193 98 -260
82z m97 -146 c20 -12 85 -50 143 -84 l106 -63 52 33 c29 18 60 36 70 40 9 4
43 24 75 45 93 63 59 68 427 -64 285 -103 275 -98 319 -159 64 -89 49 -87 304
-44 122 20 231 35 242 32 34 -9 179 -217 250 -360 40 -79 49 -90 61 -78 11 10
65 14 241 17 l227 3 30 -30 c34 -35 116 -225 187 -433 l48 -140 100 -7 c124
-8 156 -24 252 -128 99 -106 198 -293 240 -452 14 -53 12 -64 -9 -47 -10 9
-21 3 -49 -23 -34 -34 -35 -36 -42 -137 -4 -57 -10 -128 -13 -158 -7 -54 -7
-54 -14 -20 -4 19 -11 83 -15 142 l-7 108 -51 33 c-116 77 -224 142 -273 164
-55 26 -59 32 -78 133 -4 19 -22 102 -42 184 -19 82 -32 158 -29 168 3 14 0
18 -9 14 -15 -5 -91 28 -343 150 -84 41 -171 80 -193 87 -38 11 -44 18 -86
102 -25 50 -66 118 -91 152 -58 79 -37 73 -394 108 -87 9 -173 13 -192 10 -41
-8 -46 -2 -145 186 -66 126 -75 139 -124 169 -28 18 -61 32 -72 32 -11 0 -67
-11 -125 -25 -58 -14 -133 -31 -167 -38 -35 -7 -63 -17 -63 -23 0 -13 74 -82
118 -110 42 -26 80 -66 65 -66 -20 0 -99 39 -142 70 -26 19 -50 48 -62 75 -17
38 -27 46 -72 63 -28 11 -95 37 -147 57 -147 58 -231 85 -263 85 -16 0 -86
-21 -156 -46 -69 -26 -166 -61 -216 -79 -86 -31 -90 -34 -102 -72 -15 -45 -64
-89 -143 -130 -51 -26 -69 -26 -53 0 7 13 72 66 148 120 30 21 33 47 6 47 -18
0 -160 31 -294 65 l-58 15 -59 -40 c-56 -38 -62 -47 -140 -195 -44 -85 -85
-157 -89 -159 -4 -3 -79 -7 -167 -10 -162 -5 -281 -17 -366 -37 -42 -10 -53
-18 -97 -78 -28 -37 -66 -101 -85 -143 -40 -85 -47 -92 -102 -112 -21 -7 -140
-62 -263 -120 -123 -58 -233 -109 -245 -112 -12 -3 -22 -13 -22 -22 0 -9 -12
-69 -27 -132 -15 -63 -37 -159 -49 -214 l-23 -99 -80 -41 c-44 -23 -128 -74
-187 -114 l-106 -71 -6 -73 c-3 -40 -8 -112 -12 -160 -3 -49 -9 -88 -14 -88
-4 0 -10 51 -14 113 -13 218 -16 236 -49 273 -21 25 -35 33 -48 29 -29 -9 -24
24 17 129 80 200 178 351 284 435 55 44 67 47 195 56 l91 7 28 91 c44 148 164
440 193 475 l28 32 228 1 c196 1 230 -1 245 -15 17 -15 21 -11 61 67 44 83
180 289 224 340 32 35 46 35 291 -5 229 -37 223 -38 291 49 32 41 53 56 105
77 133 53 526 195 540 195 8 0 32 -9 52 -22z m693 -586 c184 -32 286 -58 460
-115 500 -166 891 -398 1244 -741 370 -359 642 -781 808 -1255 206 -588 235
-1179 87 -1790 -77 -319 -210 -608 -422 -920 -104 -154 -156 -216 -194 -236
-54 -28 -47 -1 26 96 323 428 504 844 585 1340 40 246 50 472 31 716 -39 499
-227 1039 -509 1459 -253 379 -531 658 -896 901 -352 235 -825 418 -1255 486
-126 20 -181 23 -415 23 -205 -1 -298 -5 -385 -19 -645 -98 -1264 -401 -1720
-843 -293 -282 -562 -662 -707 -997 -51 -118 -128 -351 -168 -506 -141 -552
-124 -1128 50 -1662 95 -294 216 -528 425 -818 92 -128 125 -180 117 -180 -2
0 -18 5 -36 11 -61 22 -284 340 -405 579 -146 287 -225 545 -283 920 -28 180
-25 634 5 830 53 336 173 722 308 993 256 510 706 1002 1177 1287 416 251 876
411 1337 464 19 2 166 3 325 1 242 -2 310 -6 410 -24z m-386 -334 c53 -87 140
-178 228 -237 29 -19 53 -40 53 -46 0 -14 -26 -36 -74 -59 -64 -33 -152 -121
-208 -211 -29 -46 -56 -84 -60 -84 -4 0 -10 9 -13 20 -10 31 -117 171 -161
210 -21 19 -69 53 -106 75 -38 21 -68 42 -68 46 0 9 38 40 120 99 69 49 129
117 185 210 20 33 40 60 45 60 5 0 31 -37 59 -83z m-890 -465 c34 -73 61 -136
61 -140 0 -28 -64 100 -121 243 -38 95 0 30 60 -103z m1686 7 c-47 -107 -73
-154 -81 -146 -3 2 22 62 56 132 33 71 62 126 65 123 3 -3 -15 -52 -40 -109z
m-2057 -84 c23 -36 36 -65 29 -65 -7 0 -19 12 -28 28 -9 15 -26 44 -38 65 -39
64 -7 40 37 -28z m2426 8 c-34 -60 -46 -75 -52 -69 -5 5 66 116 74 116 3 0 -7
-21 -22 -47z m-1597 -35 c-3 -8 -6 -5 -6 6 -1 11 2 17 5 13 3 -3 4 -12 1 -19z
m1890 -177 c6 -1 80 -82 163 -182 83 -99 197 -234 253 -301 193 -227 339 -401
537 -638 92 -109 226 -279 280 -353 26 -37 32 -61 15 -63 -5 -1 -19 -5 -30 -8
-11 -4 -423 -8 -915 -9 l-894 -2 -10 -35 c-5 -19 -27 -93 -48 -165 -22 -71
-57 -188 -78 -260 -21 -71 -58 -197 -83 -280 -47 -157 -140 -471 -209 -710
-57 -198 -93 -321 -138 -465 -22 -69 -42 -142 -46 -162 -4 -23 -10 -35 -17
-31 -6 3 -7 1 -3 -6 4 -6 -2 -31 -13 -54 -11 -23 -23 -55 -27 -72 -15 -64 -67
-220 -76 -226 -5 -3 -10 -15 -11 -27 0 -11 -4 -19 -7 -17 -9 6 -44 -64 -37
-72 4 -3 2 -11 -3 -18 -5 -6 -10 -25 -12 -42 -1 -18 -6 -29 -11 -26 -4 3 -11
-4 -14 -16 -3 -12 -9 -21 -13 -21 -4 0 12 57 37 128 24 70 48 143 53 163 5 20
18 56 28 80 10 24 29 82 41 129 12 47 27 96 32 110 22 50 106 325 194 630 43
147 106 363 125 425 10 33 46 157 80 275 34 118 79 271 100 340 38 124 120
408 120 416 0 2 -396 4 -880 4 -791 0 -880 -2 -880 -16 0 -15 27 -109 115
-404 101 -336 234 -785 245 -825 4 -16 21 -75 38 -130 16 -55 49 -163 72 -240
48 -162 69 -230 220 -692 117 -359 134 -434 105 -468 -9 -11 -13 -14 -10 -7 8
16 13 74 6 67 -6 -6 -31 64 -31 87 0 9 -6 23 -13 30 -7 7 -21 38 -31 68 -9 30
-43 136 -76 235 -32 99 -74 234 -94 300 -187 640 -579 1945 -596 1983 l-10 22
-896 0 c-840 0 -899 1 -917 18 -11 9 -17 11 -13 5 5 -9 0 -13 -15 -13 -21 0
-21 0 -3 28 26 40 314 400 429 536 55 65 127 151 160 191 33 40 139 166 235
281 96 114 201 239 233 278 32 39 91 107 131 151 l73 80 1514 -2 c833 -1 1519
-2 1526 -2z m-4662 -595 c16 -24 22 -54 60 -283 l25 -153 -138 -180 -137 -181
-5 -132 c-3 -73 -8 -125 -12 -117 -4 8 -17 52 -29 98 -12 45 -31 95 -43 111
-11 16 -37 50 -56 76 -19 25 -55 90 -79 143 -54 117 -65 195 -35 258 22 45
134 166 287 306 93 86 110 97 127 88 11 -6 27 -21 35 -34z m6487 -90 c132
-123 205 -202 242 -258 14 -22 19 -47 18 -96 0 -57 -7 -82 -46 -170 -26 -59
-70 -136 -105 -182 -32 -43 -62 -94 -66 -112 -8 -41 -46 -168 -50 -168 -1 0
-1 60 2 133 3 133 3 134 -24 170 -16 20 -64 85 -107 144 -44 59 -95 125 -113
146 -18 20 -33 41 -33 45 0 5 11 73 24 153 13 79 27 170 31 202 7 62 42 117
75 117 10 0 79 -56 152 -124z m-6879 -863 c62 -94 247 -406 256 -436 17 -53
24 -134 13 -141 -6 -4 -23 14 -38 39 -14 25 -29 44 -31 41 -3 -2 5 -51 17
-108 31 -149 48 -385 31 -426 -8 -18 -19 -32 -25 -32 -7 0 -88 57 -181 128
l-170 127 -68 205 c-38 113 -71 228 -74 255 -5 54 2 68 150 298 65 99 81 106
120 50z m7180 -38 c27 -39 76 -115 108 -170 56 -93 60 -103 54 -144 -9 -57
-130 -431 -147 -452 -17 -22 -175 -145 -268 -208 -69 -48 -75 -50 -92 -34 -14
12 -18 31 -18 83 0 96 18 257 41 368 10 52 17 97 15 99 -2 2 -18 -20 -36 -48
-26 -42 -34 -50 -41 -37 -10 17 5 112 24 156 15 33 209 361 249 420 19 27 36
42 46 40 9 -2 39 -35 65 -73z m-6313 -896 c-82 -20 -96 -22 -87 -13 8 8 115
32 142 32 11 0 -14 -8 -55 -19z m5277 15 c-3 -3 -12 -4 -19 -1 -8 3 -5 6 6 6
11 1 17 -2 13 -5z m108 -14 l30 -8 -35 0 c-19 0 -44 3 -55 8 -18 8 -18 9 5 8
14 0 39 -4 55 -8z m202 -42 c-3 -8 -6 -5 -6 6 -1 11 2 17 5 13 3 -3 4 -12 1
-19z m-6163 -160 c-4 -90 -8 -180 -8 -201 0 -32 -2 -35 -14 -23 -11 11 -12 26
-3 83 6 39 14 123 17 187 4 64 9 116 12 116 3 0 1 -73 -4 -162z m6483 105 c-3
-10 -5 -4 -5 12 0 17 2 24 5 18 2 -7 2 -21 0 -30z m24 -287 c1 -34 -4 -53 -16
-65 -16 -15 -16 -15 -5 5 11 17 11 42 2 123 -7 56 -12 125 -11 154 1 39 5 25
15 -58 8 -60 14 -132 15 -159z m-6667 10 c255 -197 322 -254 340 -290 34 -67
146 -367 146 -391 0 -46 -35 -44 -180 12 -163 63 -408 194 -471 251 l-29 27
-22 263 c-18 220 -20 265 -8 272 7 4 19 6 27 3 8 -3 96 -69 197 -147z m7040
94 c-1 -25 -9 -144 -18 -265 -20 -254 -8 -229 -151 -320 -162 -102 -456 -230
-514 -223 -45 5 -37 36 105 413 17 46 97 115 367 319 191 144 213 152 211 76z
m-767 -32 c-3 -8 -6 -5 -6 6 -1 11 2 17 5 13 3 -3 4 -12 1 -19z m-447 -66
c142 -59 247 -110 228 -111 -14 -1 -128 47 -345 144 -29 13 -53 26 -53 29 0 6
48 -11 170 -62z m-4710 53 c0 -5 -184 -95 -265 -130 -22 -9 -55 -23 -72 -31
-27 -12 -33 -12 -33 -1 0 8 15 18 33 24 17 6 100 41 182 77 163 71 155 68 155
61z m5100 -172 c-11 -17 -11 -17 -6 0 3 10 6 24 7 30 0 9 2 9 5 0 3 -7 0 -20
-6 -30z m-915 -163 c15 -25 344 -268 445 -329 67 -41 63 -37 55 -51 -5 -8 -14
-6 -29 8 -11 10 -66 49 -121 85 -55 36 -109 74 -120 84 -11 10 -54 44 -95 75
-102 79 -167 137 -153 138 6 0 15 -4 18 -10z m-3865 -71 c-52 -47 -136 -115
-184 -149 -11 -8 -69 -49 -128 -92 -61 -44 -110 -73 -114 -67 -3 6 -4 12 -3
13 2 2 54 37 115 79 61 42 166 119 235 171 68 53 126 95 129 95 3 0 -20 -22
-50 -50z m4651 -96 c-12 -20 -14 -14 -5 12 4 9 9 14 11 11 3 -2 0 -13 -6 -23z
m-4826 -163 c-3 -5 -12 -10 -18 -10 -7 0 -6 4 3 10 19 12 23 12 15 0z m3999
-120 c23 -108 68 -197 145 -284 34 -38 61 -72 61 -75 0 -3 -27 -20 -59 -38
-32 -18 -87 -62 -122 -98 -35 -36 -67 -65 -70 -65 -4 0 -10 12 -14 28 -12 48
-94 169 -171 251 -41 44 -70 82 -64 84 6 3 5 4 -2 3 -21 -5 -48 13 -48 33 0
20 18 31 105 62 68 25 136 88 175 162 31 59 41 50 64 -63z m-4035 87 c-2 -1
-14 -10 -25 -20 -19 -15 -22 -16 -27 -3 -4 10 -1 13 7 10 8 -3 17 -1 21 5 3 6
11 11 17 11 6 0 9 -1 7 -3z m421 -97 c51 -102 96 -151 168 -185 31 -15 60 -32
64 -39 5 -6 -24 -43 -71 -91 -84 -85 -131 -149 -171 -232 -14 -29 -28 -52 -31
-53 -4 0 -9 10 -13 23 -9 39 -119 150 -184 187 -34 19 -61 40 -62 45 0 6 31
38 69 72 80 73 117 138 151 267 13 47 27 86 31 86 5 0 27 -36 49 -80z m-490
45 c-7 -9 -15 -13 -19 -10 -3 3 1 10 9 15 21 14 24 12 10 -5z m-56 -17 c-5 -8
-1 -9 12 -4 17 6 17 5 -2 -15 -12 -12 -27 -18 -33 -15 -17 11 -13 26 4 19 9
-3 15 -2 14 3 -2 14 0 24 7 24 3 0 2 -5 -2 -12z m-837 -89 c218 -71 254 -94
307 -197 37 -73 26 -73 -52 -2 -65 59 -90 75 -161 100 -109 40 -200 65 -207
58 -3 -4 -1 -23 5 -45 13 -51 27 -112 47 -209 l16 -81 80 -54 c44 -30 112 -76
151 -102 40 -27 79 -55 88 -63 9 -8 18 -11 22 -8 3 3 3 -3 0 -15 -3 -12 -8
-21 -11 -21 -8 0 -128 71 -264 157 -117 74 -118 75 -132 126 -39 141 -88 367
-83 381 10 25 55 19 194 -25z m6473 26 c13 -15 11 -26 -51 -285 -17 -69 -36
-132 -42 -141 -18 -24 -368 -240 -378 -233 -5 3 -9 10 -9 15 0 13 25 39 37 39
5 0 18 8 29 18 10 10 44 35 74 55 210 139 199 126 224 254 9 43 22 107 30 143
8 36 13 66 11 68 -5 5 -235 -68 -270 -85 -16 -9 -65 -47 -107 -85 -43 -38 -78
-63 -78 -56 0 23 68 131 104 164 26 25 72 45 202 88 181 60 205 64 224 41z
m-1992 -192 c47 -62 58 -83 46 -87 -8 -3 -12 -1 -9 4 3 5 -19 43 -50 84 -30
41 -55 78 -55 82 0 4 1 5 3 3 2 -2 31 -41 65 -86z m-2743 -102 c-38 -51 -44
-64 -40 -97 2 -22 1 -33 -2 -26 -4 10 -9 9 -19 -5 -11 -13 -14 -14 -12 -3 2 8
-2 15 -7 15 -6 0 -9 -4 -7 -8 1 -5 -2 -6 -8 -2 -5 3 -10 -1 -10 -10 0 -8 -7
-18 -15 -21 -8 -4 -13 -9 -10 -13 2 -4 -9 -23 -25 -42 -35 -40 -38 -54 -9 -38
17 9 20 8 17 -3 -3 -7 -14 -14 -26 -16 -12 -2 -22 -7 -22 -12 0 -5 -3 -15 -6
-23 -3 -10 3 -20 18 -27 22 -11 23 -11 3 5 -19 16 -19 17 15 11 19 -3 28 -3
20 1 -8 3 -21 12 -28 20 -11 11 -10 13 9 13 41 0 76 48 48 66 -8 4 -9 -1 -4
-17 6 -19 5 -22 -6 -12 -10 10 -10 18 1 40 l13 28 7 -25 6 -25 15 23 c7 12 17
22 21 22 11 0 4 -51 -10 -77 -23 -41 -12 -37 17 7 20 32 26 50 20 62 -15 28
-11 40 11 33 21 -7 28 10 8 18 -10 4 -10 6 -1 6 6 1 15 -4 18 -9 5 -8 12 -7
23 2 14 12 14 10 3 -10 -7 -12 -17 -20 -23 -16 -6 4 -9 1 -6 -7 3 -8 -7 -32
-22 -54 -37 -54 -70 -121 -70 -140 0 -20 -17 -15 -101 26 -68 34 -68 37 -1
104 22 22 38 43 36 46 -2 4 8 17 22 28 15 12 24 21 20 21 -4 0 17 29 46 64 29
34 66 79 81 100 15 20 30 36 32 36 3 0 -15 -26 -40 -59z m2931 -140 c55 -68
109 -137 122 -152 l23 -29 -23 -9 c-13 -5 -47 -18 -76 -30 -29 -12 -56 -21
-61 -21 -4 0 -14 18 -21 40 -7 21 -30 65 -51 96 -21 32 -35 63 -31 72 3 9 1
13 -4 9 -6 -3 -15 3 -21 13 -9 14 -9 18 1 16 21 -3 46 -33 41 -49 -3 -7 1 -20
10 -27 10 -8 15 -9 15 -1 0 6 -5 11 -11 11 -7 0 -8 7 -4 18 4 9 8 31 9 47 0
18 6 29 14 28 6 -2 12 4 12 13 0 10 -5 14 -16 10 -8 -3 -12 -2 -9 4 3 5 1 19
-5 30 -10 18 -14 19 -28 9 -14 -11 -15 -11 -4 1 14 16 16 34 4 26 -5 -3 -9 2
-9 10 0 19 0 20 123 -135z m-2855 73 c-17 -27 -31 -44 -31 -37 0 6 5 15 11 18
6 4 8 14 5 22 -3 8 -1 11 4 8 6 -3 10 -1 10 5 0 6 6 17 13 24 23 26 18 8 -12
-40z m2647 31 c-3 -3 -9 2 -12 12 -6 14 -5 15 5 6 7 -7 10 -15 7 -18z m28 -37
c0 -10 -1 -18 -3 -18 -1 0 -7 8 -12 18 -7 13 -6 19 2 19 7 0 13 -9 13 -19z
m-3844 -77 c65 -17 428 -158 1008 -391 617 -248 1030 -343 1495 -343 448 0
820 79 1407 302 248 94 653 253 876 344 101 41 213 83 249 93 64 17 66 17 79
-1 24 -33 17 -52 -23 -63 -66 -18 -250 -99 -506 -223 -320 -155 -371 -178
-557 -254 -408 -166 -808 -264 -1214 -296 -184 -14 -552 -7 -731 16 -293 36
-648 122 -913 221 -144 54 -324 136 -632 287 -367 180 -577 267 -647 267 -25
0 -29 11 -13 41 13 24 28 24 122 0z m388 -11 c8 -5 11 -10 5 -10 -5 0 -17 5
-25 10 -8 5 -10 10 -5 10 6 0 17 -5 25 -10z m3205 -167 c47 -97 85 -177 85
-179 0 -7 -140 -47 -145 -42 -4 3 -1 14 5 25 9 15 3 38 -34 127 -25 59 -43
112 -40 117 7 12 44 -13 44 -30 0 -11 4 -10 16 5 16 20 16 19 -2 -33 -4 -11 1
-8 11 6 17 23 17 26 0 77 -10 29 -21 52 -24 50 -3 -2 -6 9 -7 25 -1 16 0 29 2
29 2 0 42 -79 89 -177z m-2134 81 c-6 -20 -7 -42 -4 -48 3 -6 2 -8 -2 -3 -10
9 -44 -59 -44 -88 -1 -18 1 -18 19 5 11 14 17 33 14 43 -3 9 -1 17 5 17 5 0
15 -8 21 -17 8 -15 9 -12 5 12 l-6 30 16 -28 c9 -15 13 -33 9 -39 -4 -6 -3 -8
3 -5 6 4 -2 -26 -17 -65 -21 -54 -26 -77 -18 -91 5 -10 7 -21 5 -24 -8 -7
-148 40 -145 48 10 27 144 295 146 293 2 -1 -1 -19 -7 -40z m66 -74 c-7 -20
-14 -25 -19 -17 -10 16 -10 29 1 23 5 -3 11 1 15 9 3 8 7 15 10 15 2 0 -1 -13
-7 -30z m-96 -43 c-10 -9 -11 -8 -5 6 3 10 9 15 12 12 3 -3 0 -11 -7 -18z
m-2215 -11 c19 -15 19 -15 -1 -31 -11 -8 -33 -23 -50 -32 -45 -24 -291 -190
-360 -241 -58 -44 -235 -197 -323 -279 -40 -37 -148 -90 -160 -79 -9 10 42 68
150 168 173 160 261 231 398 323 107 71 303 184 321 185 3 0 14 -6 25 -14z
m6724 -52 c126 -65 299 -185 449 -312 115 -99 317 -300 308 -308 -13 -13 -157
74 -217 130 -87 81 -225 197 -330 276 -78 59 -347 234 -373 243 -9 3 -8 8 2
21 18 21 29 17 161 -50z m-3428 -108 c11 6 11 5 0 -9 -16 -19 -14 -20 -77 53
l-39 45 51 -49 c35 -33 55 -46 65 -40z m-701 -38 c-6 -17 -11 -35 -11 -39 0
-17 17 -9 28 14 10 21 11 21 13 2 1 -11 1 -23 0 -27 0 -4 22 -15 49 -25 48
-17 73 -42 28 -27 -13 4 -50 12 -83 19 -33 6 -59 15 -58 21 8 34 39 111 41
103 2 -5 -1 -24 -7 -41z m1408 -59 c1 -17 -39 -32 -116 -44 -50 -8 -53 -4 -17
20 15 9 24 13 20 7 -3 -6 4 -9 18 -8 13 0 22 4 19 9 -2 4 10 7 26 7 29 0 41
13 23 24 -5 3 -6 20 -4 38 l5 33 13 -35 c7 -19 13 -42 13 -51z m-1279 -10 c0
-5 -4 -9 -10 -9 -5 0 -10 7 -10 16 0 8 5 12 10 9 6 -3 10 -10 10 -16z m1237
15 c-3 -3 -12 -4 -19 -1 -8 3 -5 6 6 6 11 1 17 -2 13 -5z m941 -183 c21 -13
11 -55 -14 -59 -25 -3 -37 25 -22 52 10 18 17 19 36 7z m-108 -88 c40 -23 55
-57 54 -122 0 -54 -29 -161 -42 -161 -17 0 -101 83 -95 93 3 7 3 9 -2 5 -4 -4
-21 6 -37 22 -22 23 -28 39 -28 73 0 87 77 134 150 90z m-743 -134 c22 -19 16
-85 -9 -103 -32 -22 -55 -20 -83 9 -31 30 -31 54 -4 90 18 22 27 26 52 21 17
-3 36 -11 44 -17z m1641 -62 c2 -9 -6 -25 -18 -37 -19 -19 -24 -20 -43 -7 -31
20 -33 52 -6 71 20 13 26 14 44 2 11 -7 21 -20 23 -29z m-200 -49 c17 -17 15
-55 -4 -62 -20 -8 -44 10 -44 33 0 17 18 41 30 41 3 0 11 -5 18 -12z m-4760
-297 c9 -5 25 -12 35 -15 9 -3 17 -10 17 -16 0 -6 -6 -7 -17 -1 -10 5 -34 16
-53 24 -20 9 -28 16 -17 16 9 1 25 -3 35 -8z m210 -83 c24 -11 42 -22 39 -25
-6 -5 -147 47 -147 54 0 8 65 -9 108 -29z m1522 -23 c7 -8 10 -25 6 -39 -12
-48 -76 -41 -76 8 0 42 45 62 70 31z m2232 -2 c34 -31 13 -93 -33 -93 -21 0
-59 33 -59 53 0 23 31 57 52 57 12 0 30 -7 40 -17z m-3647 -24 c11 -17 -1 -21
-15 -4 -8 9 -8 15 -2 15 6 0 14 -5 17 -11z m101 -35 c22 -8 59 -24 82 -35 24
-11 67 -29 95 -40 50 -18 89 -39 76 -39 -24 0 -189 68 -200 83 -3 5 -8 8 -10
6 -5 -3 -119 33 -119 37 0 9 41 3 76 -12z m1210 -49 c12 -49 -36 -73 -70 -36
-25 27 -6 61 34 61 23 0 31 -5 36 -25z m-621 -186 c132 -49 452 -144 575 -172
108 -24 166 -35 365 -72 l80 -14 -70 5 c-230 19 -710 144 -1045 274 -30 12
-80 30 -110 41 -30 11 -59 24 -65 30 -9 9 36 -6 270 -92z m3180 12 c-6 -5 -21
-11 -35 -15 -21 -5 -20 -3 5 9 35 17 42 18 30 6z m-250 -90 c-11 -4 -33 -11
-50 -14 l-30 -6 30 14 c17 8 39 14 50 14 l20 0 -20 -8z m-268 -77 c-3 -3 -12
-4 -19 -1 -8 3 -5 6 6 6 11 1 17 -2 13 -5z m-1610 -110 c-3 -3 -12 -4 -19 -1
-8 3 -5 6 6 6 11 1 17 -2 13 -5z m571 -31 c-49 -2 -127 -2 -175 0 -49 1 -9 3
87 3 96 0 136 -2 88 -3z"/>
<path d="M2948 6207 c-76 -95 -158 -194 -184 -222 -25 -27 -58 -66 -73 -85
-14 -19 -39 -51 -56 -69 -29 -34 -40 -45 -100 -112 -38 -42 -137 -159 -190
-223 -110 -134 -164 -197 -225 -266 -120 -135 -160 -188 -147 -197 7 -4 390
-6 852 -3 l840 5 48 165 c26 91 63 219 82 285 19 66 54 189 78 272 31 108 41
155 33 162 -6 4 -63 37 -126 71 -63 35 -242 136 -397 226 -155 90 -285 164
-290 163 -4 0 -70 -77 -145 -172z"/>
<path d="M6025 6341 c-141 -80 -204 -116 -357 -207 -92 -54 -217 -126 -278
-159 -73 -39 -110 -65 -110 -76 0 -15 32 -127 130 -459 10 -36 40 -137 66
-225 25 -88 53 -165 61 -172 11 -8 237 -12 861 -15 466 -2 848 -3 850 -2 2 1
-18 26 -45 56 -26 29 -58 66 -70 81 -12 16 -27 26 -32 22 -7 -4 -8 0 -5 10 5
12 2 16 -12 13 -13 -2 -18 2 -16 13 1 9 -8 24 -20 35 l-23 19 19 -22 c11 -13
15 -23 10 -22 -5 0 -22 17 -39 37 -16 20 -24 32 -16 28 9 -6 12 -5 9 5 -3 8
-10 13 -15 12 -5 -1 -10 4 -10 11 0 19 -255 316 -265 310 -5 -3 -7 0 -6 7 2 7
-4 13 -12 14 -8 0 -14 8 -12 16 1 9 -6 23 -15 30 -17 13 -17 13 -3 -6 14 -20
14 -20 -7 -1 -13 10 -20 23 -16 29 3 5 1 7 -4 4 -13 -8 -37 18 -29 31 7 12
-28 44 -38 35 -4 -4 -4 -1 -1 8 3 9 -5 25 -22 39 -20 18 -23 19 -10 4 9 -11
17 -25 17 -30 0 -12 -35 39 -35 51 0 16 -76 105 -85 100 -4 -2 -67 70 -141
162 -170 211 -199 243 -213 243 -6 0 -33 -13 -61 -29z m-214 -353 c151 -78
150 -77 224 -124 28 -17 112 -66 188 -109 129 -72 162 -95 138 -95 -19 0 -486
241 -511 264 -14 12 -62 46 -107 75 -77 49 -91 61 -78 61 3 0 69 -33 146 -72z
m679 -91 c0 -5 -11 5 -25 21 -14 17 -25 33 -25 37 0 5 11 -5 25 -21 14 -16 25
-33 25 -37z"/>
<path d="M6300 2746 c0 -2 7 -9 15 -16 9 -7 15 -8 15 -2 0 5 -7 12 -15 16 -8
3 -15 4 -15 2z"/>
<path d="M6240 2716 c7 -7 13 -7 20 0 6 6 3 10 -10 10 -13 0 -16 -4 -10 -10z"/>
<path d="M3125 2531 c-6 -11 9 -23 19 -14 9 9 7 23 -3 23 -6 0 -12 -4 -16 -9z"/>
<path d="M3101 2380 c-5 -16 -8 -30 -6 -30 2 0 10 14 19 30 8 17 11 30 6 30
-4 0 -13 -13 -19 -30z"/>
<path d="M3075 2290 c-3 -5 -1 -10 4 -10 6 0 11 5 11 10 0 6 -2 10 -4 10 -3 0
-8 -4 -11 -10z"/>
<path d="M3050 2270 c0 -5 5 -10 11 -10 5 0 7 5 4 10 -3 6 -8 10 -11 10 -2 0
-4 -4 -4 -10z"/>
<path d="M6050 2498 c0 -6 7 -8 14 -5 10 4 13 1 10 -8 -4 -8 6 -20 25 -30 18
-9 31 -11 31 -5 0 5 -6 10 -13 10 -7 0 -17 10 -22 22 -10 22 -45 35 -45 16z"/>
<path d="M6052 2449 c2 -7 10 -15 17 -17 8 -3 12 1 9 9 -2 7 -10 15 -17 17 -8
3 -12 -1 -9 -9z"/>
<path d="M6134 2426 c-3 -8 -4 -23 -1 -33 3 -12 5 -8 6 10 1 19 5 26 13 21 7
-4 8 -3 4 4 -10 16 -15 15 -22 -2z"/>
<path d="M6096 2405 c4 -8 7 -15 9 -15 2 0 5 7 9 15 3 9 0 15 -9 15 -9 0 -12
-6 -9 -15z"/>
<path d="M6075 2394 c9 -10 14 -26 11 -37 -4 -15 -2 -17 6 -9 13 13 -4 62 -22
62 -7 0 -4 -7 5 -16z"/>
<path d="M6050 2381 c0 -5 5 -13 10 -16 6 -3 10 -2 10 4 0 5 -4 13 -10 16 -5
3 -10 2 -10 -4z"/>
<path d="M6110 2363 c0 -12 38 -48 44 -42 3 2 -6 15 -20 28 -13 13 -24 19 -24
14z"/>
<path d="M6145 2360 c3 -5 8 -10 11 -10 2 0 4 5 4 10 0 6 -5 10 -11 10 -5 0
-7 -4 -4 -10z"/>
<path d="M6103 2319 c-2 -23 3 -25 10 -4 4 8 3 16 -1 19 -4 3 -9 -4 -9 -15z"/>
<path d="M5655 2289 c-9 -14 -2 -20 14 -10 8 6 9 11 3 15 -6 3 -14 1 -17 -5z"/>
<path d="M3567 2239 c4 -13 8 -18 11 -10 2 7 -1 18 -6 23 -8 8 -9 4 -5 -13z"/>
<path d="M8383 2861 c-76 -86 -100 -124 -107 -180 -4 -28 -9 -59 -12 -69 -13
-37 33 46 55 103 14 33 27 62 31 65 10 8 91 133 88 136 -2 1 -26 -23 -55 -55z"/>
<path d="M8946 1555 c-9 -26 -7 -32 5 -12 6 10 9 21 6 23 -2 3 -7 -2 -11 -11z"/>
<path d="M8443 1353 c-24 -5 -30 -27 -14 -52 6 -9 18 -11 35 -7 28 7 172 -5
373 -30 117 -15 123 -15 165 4 24 11 56 33 72 51 33 35 29 38 -15 16 -74 -39
-159 -39 -380 0 -143 25 -185 28 -236 18z"/>
<path d="M460 1325 c-160 -28 -202 -30 -263 -11 -65 19 -53 -5 20 -40 55 -27
56 -27 147 -15 178 25 232 31 320 35 68 3 91 8 98 20 5 9 6 21 3 26 -11 17
-184 9 -325 -15z"/>
<path d="M866 864 c-4 -9 -4 -19 -1 -22 2 -3 7 3 11 12 4 9 4 19 1 22 -2 3 -7
-3 -11 -12z"/>
<path d="M852 805 c0 -16 2 -22 5 -12 2 9 2 23 0 30 -3 6 -5 -1 -5 -18z"/>
<path d="M831 734 c0 -11 3 -14 6 -6 3 7 2 16 -1 19 -3 4 -6 -2 -5 -13z"/>
<path d="M818 685 c-6 -30 -3 -43 8 -33 3 4 4 19 2 35 l-3 28 -7 -30z"/>
<path d="M1165 345 c-39 -17 -21 -18 25 0 19 7 28 14 20 14 -8 0 -28 -6 -45
-14z"/>
<path d="M1000 284 c-108 -42 -120 -44 -197 -41 -85 4 -93 -2 -40 -30 56 -28
81 -23 244 54 51 23 97 43 102 43 6 0 13 5 16 10 9 15 0 12 -125 -36z"/>
<path d="M8120 310 c8 -5 20 -10 25 -10 6 0 3 5 -5 10 -8 5 -19 10 -25 10 -5
0 -3 -5 5 -10z"/>
<path d="M8205 274 c78 -41 166 -74 198 -74 32 0 60 13 100 46 33 28 28 29
-28 9 -59 -21 -132 -18 -211 9 -110 38 -112 38 -59 10z"/>
</g>
</svg>
