<?xml version="1.0" standalone="no"?>
<!DOCTYPE svg PUBLIC "-//W3C//DTD SVG 20010904//EN"
 "http://www.w3.org/TR/2001/REC-SVG-20010904/DTD/svg10.dtd">
<svg version="1.0" xmlns="http://www.w3.org/2000/svg"
 width="792.000000pt" height="759.000000pt" viewBox="0 0 792.000000 759.000000"
 preserveAspectRatio="xMidYMid meet">

<g transform="translate(0.000000,759.000000) scale(0.100000,-0.100000)"
fill="#000000" stroke="none">
<path d="M3665 7443 c-699 -60 -1350 -295 -1920 -691 -174 -121 -329 -253
-515 -441 -406 -408 -673 -821 -830 -1285 -87 -254 -122 -416 -156 -711 -21
-185 -15 -589 11 -755 99 -643 335 -1177 745 -1691 353 -442 901 -837 1505
-1087 299 -123 652 -212 1025 -259 170 -21 660 -24 830 -5 500 56 917 180
1372 408 358 180 648 392 948 693 340 341 576 687 748 1097 174 412 261 846
262 1295 0 408 -72 779 -231 1184 -228 580 -732 1186 -1339 1607 -194 135
-461 272 -755 389 -314 124 -728 220 -1068 248 -117 10 -535 13 -632 4z m349
-182 c40 -76 48 -81 137 -81 31 0 59 -3 62 -6 4 -4 -20 -23 -53 -42 -32 -19
-61 -40 -64 -47 -2 -6 5 -40 16 -74 11 -34 18 -65 15 -68 -4 -3 -27 7 -52 22
-26 15 -49 24 -52 22 -2 -3 -18 -1 -34 5 -25 9 -38 5 -94 -26 -36 -20 -65 -31
-65 -25 0 5 9 37 21 71 26 78 17 98 -57 129 -30 12 -54 25 -54 30 0 5 27 9 59
9 89 0 103 8 135 84 16 36 32 66 36 66 4 0 24 -31 44 -69z m625 -123 c-4 -35
1 -41 19 -25 26 23 30 22 46 -18 9 -20 23 -36 33 -37 10 -1 25 -2 33 -4 8 -1
21 -2 28 -3 23 -2 12 -19 -25 -41 -34 -20 -36 -23 -20 -35 13 -10 15 -14 5
-17 -9 -3 -5 -16 14 -45 l27 -41 -51 34 c-27 19 -56 34 -64 34 -8 0 -14 5 -14
11 0 6 -9 8 -21 4 -12 -4 -28 -8 -35 -9 -8 -1 -20 -8 -26 -14 -15 -15 -48 -16
-48 -2 0 6 4 10 8 10 4 0 16 13 25 30 18 29 18 30 -5 53 -13 13 -31 28 -40 33
-11 6 -15 17 -11 36 3 15 9 26 13 23 5 -3 6 -14 3 -25 -4 -15 0 -20 13 -20 11
0 28 -3 39 -6 17 -4 22 2 33 40 11 42 25 64 21 34z m-1292 -28 c20 -34 26 -36
47 -14 9 8 16 11 16 5 0 -5 10 -11 22 -13 33 -4 34 -32 1 -47 -21 -10 -24 -14
-12 -22 10 -6 10 -9 1 -9 -8 0 -4 -13 13 -37 14 -21 25 -41 25 -44 0 -4 -29 3
-63 15 -69 24 -66 25 -139 -26 -32 -21 -35 -11 -12 35 l17 31 -44 39 -44 39
38 -5 c30 -5 39 -2 44 11 4 9 15 23 25 30 10 7 18 20 18 28 0 25 28 15 47 -16z
m1120 -42 c-3 -8 -6 -5 -6 6 -1 11 2 17 5 13 3 -3 4 -12 1 -19z m-1578 -78
c30 -48 33 -50 76 -50 25 0 45 -5 45 -10 0 -14 -46 -60 -60 -60 -6 0 1 -17 15
-37 14 -21 21 -39 16 -41 -5 -2 -33 9 -61 23 -29 15 -49 21 -44 14 5 -9 1 -11
-14 -7 -13 4 -33 -3 -53 -18 -18 -13 -35 -22 -37 -19 -3 3 1 23 8 44 15 46 8
71 -19 71 -11 0 -23 5 -26 10 -5 8 19 15 28 8 5 -5 35 27 31 33 -2 4 10 9 26
13 24 4 30 11 31 33 1 16 1 31 0 36 -3 17 9 4 38 -43z m2068 28 c-3 -8 -6 -5
-6 6 -1 11 2 17 5 13 3 -3 4 -12 1 -19z m154 -32 c5 3 9 -2 9 -12 0 -15 2 -15
23 -1 23 15 24 15 19 -9 -6 -33 14 -31 32 4 18 31 20 21 6 -27 l-9 -33 34 4
c30 3 32 2 24 -14 -5 -10 -16 -18 -24 -18 -8 0 -26 -11 -41 -24 -28 -23 -28
-24 -12 -64 l16 -41 -40 32 c-32 26 -49 32 -84 31 -25 0 -56 -7 -69 -14 -31
-16 -44 -6 -23 17 30 35 31 60 3 79 l-26 17 33 15 c18 8 36 15 40 14 8 -2 41
44 53 73 7 18 8 18 17 -8 5 -15 14 -25 19 -21z m-251 -23 c-11 -17 -11 -17 -6
0 3 10 7 26 7 35 1 15 2 15 6 0 2 -10 -1 -25 -7 -35z m-1313 -40 c-3 -10 -5
-2 -5 17 0 19 2 27 5 18 2 -10 2 -26 0 -35z m-828 -48 c0 -5 -6 -1 -14 9 -8
11 -15 24 -15 30 0 5 7 1 15 -10 8 -10 14 -23 14 -29z m2727 -37 c-9 -12 -16
-19 -16 -15 0 11 24 47 28 42 2 -2 -3 -14 -12 -27z m-553 7 c-3 -9 -8 -14 -10
-11 -3 3 -2 9 2 15 9 16 15 13 8 -4z m623 -63 c11 -22 14 -23 14 -8 0 20 0 20
15 0 8 -10 15 -14 15 -9 0 6 9 21 20 35 l19 25 -8 -37 c-5 -20 -6 -39 -3 -42
3 -4 -2 -6 -11 -6 -9 0 -17 -4 -17 -10 0 -5 20 -10 45 -10 54 0 58 -15 11 -35
-45 -19 -52 -44 -26 -94 29 -58 25 -69 -12 -35 -62 58 -82 65 -135 54 -27 -6
-58 -18 -70 -26 -30 -19 -29 -7 3 40 21 31 24 40 13 47 -8 5 -9 9 -4 9 6 0 2
5 -8 11 -9 6 -15 15 -11 20 3 5 -5 19 -18 30 l-23 20 30 -6 c17 -3 38 -8 48
-11 9 -3 17 -1 17 5 0 6 6 11 13 11 6 0 23 19 37 41 17 28 26 36 28 24 2 -9
10 -28 18 -43z m-3030 -1 l29 -40 60 6 60 5 -37 -36 c-44 -41 -46 -56 -17
-103 12 -19 20 -36 18 -38 -2 -2 -20 4 -39 14 -19 9 -43 15 -52 13 -9 -2 -27
2 -38 8 -17 9 -25 8 -39 -4 -10 -9 -21 -16 -26 -16 -5 0 -20 -10 -33 -22 l-25
-23 7 30 c21 88 21 86 -20 120 l-38 32 42 -1 c23 -1 41 3 41 8 -1 15 25 26 33
13 5 -8 8 -4 8 11 0 22 20 62 30 62 4 0 19 -18 36 -39z m1907 -21 c-3 -12 -8
-19 -11 -16 -5 6 5 36 12 36 2 0 2 -9 -1 -20z m-1800 3 c-7 -2 -19 -2 -25 0
-7 3 -2 5 12 5 14 0 19 -2 13 -5z m1492 -27 c139 -10 426 -49 470 -63 11 -4
26 -6 33 -5 6 2 12 -1 12 -6 0 -5 19 -12 43 -16 66 -10 208 -56 202 -66 -3 -5
0 -12 6 -16 8 -4 9 -3 5 4 -11 18 5 15 101 -22 125 -48 264 -118 449 -227 51
-30 146 -112 119 -103 -13 5 -8 -4 15 -25 19 -18 43 -40 53 -49 10 -9 26 -17
36 -17 23 0 53 -24 45 -36 -3 -5 0 -8 7 -7 7 2 13 -2 14 -7 0 -6 40 -49 88
-95 237 -227 419 -493 543 -790 99 -239 149 -461 164 -731 29 -483 -87 -957
-334 -1368 -216 -360 -512 -638 -926 -868 -281 -157 -482 -226 -849 -290 -145
-26 -175 -27 -436 -27 -241 0 -299 3 -412 22 -526 87 -867 242 -1288 588 -457
374 -756 935 -816 1527 -14 148 -7 468 15 600 53 329 177 649 354 918 341 517
917 923 1512 1064 132 31 187 48 128 39 -24 -4 -38 -2 -38 4 0 12 74 28 160
36 l55 5 -50 -14 c-63 -17 -21 -20 56 -4 30 6 142 15 249 18 l195 8 -159 1
c-88 1 -157 4 -155 7 3 2 54 7 115 11 60 4 111 8 112 10 2 1 9 1 15 -1 7 -2
48 -6 92 -9z m-428 -22 c-3 -3 -12 -4 -19 -1 -8 3 -5 6 6 6 11 1 17 -2 13 -5z
m1220 -51 c-3 -10 -5 -4 -5 12 0 17 2 24 5 18 2 -7 2 -21 0 -30z m-1541 -20
c-10 -10 -19 5 -10 18 6 11 8 11 12 0 2 -7 1 -15 -2 -18z m54 23 c0 -2 -7 -6
-15 -10 -8 -3 -15 -1 -15 4 0 6 7 10 15 10 8 0 15 -2 15 -4z m-1274 -49 c1
-105 5 -128 23 -146 11 -11 17 -21 15 -24 -3 -2 35 -19 83 -36 89 -32 121 -47
113 -53 -11 -8 -207 -68 -222 -68 -10 0 -22 -16 -31 -42 -9 -24 -25 -72 -38
-108 -12 -36 -25 -69 -30 -73 -4 -5 -31 40 -61 100 -62 122 -45 113 -193 100
l-80 -7 69 69 69 69 -48 72 c-26 39 -45 74 -42 77 5 5 143 -22 175 -34 7 -3
12 0 10 8 -2 9 7 14 25 14 21 1 42 15 78 53 35 36 54 50 66 45 13 -5 15 -3 9
12 -4 11 -3 16 1 11 4 -4 8 -22 9 -39z m3639 23 c3 -6 -1 -7 -9 -4 -18 7 -21
14 -7 14 6 0 13 -4 16 -10z m119 -16 c3 -8 15 -14 27 -14 12 0 20 -3 16 -6
-10 -10 17 -32 32 -26 10 4 13 1 9 -10 -5 -11 0 -15 15 -14 12 1 28 -2 35 -7
8 -6 12 -5 12 2 0 6 5 11 10 11 7 0 7 -7 -1 -21 -10 -20 -9 -21 12 -15 47 12
161 28 166 22 4 -3 -16 -38 -43 -77 l-49 -71 78 -72 c42 -39 77 -75 77 -79 0
-5 -5 -5 -10 -2 -6 4 -45 11 -88 16 -42 5 -91 12 -108 15 -29 5 -33 3 -39 -24
-6 -28 -104 -197 -110 -190 -1 2 -13 39 -25 83 -27 96 -48 135 -73 135 -16 0
-215 75 -225 85 -3 2 18 10 153 59 65 23 69 27 72 58 10 101 25 167 38 162 7
-3 16 -12 19 -20z m-2818 -4 c0 -11 -3 -20 -7 -20 -10 0 -19 27 -12 34 12 11
19 6 19 -14z m161 -6 c-3 -3 -12 -4 -19 -1 -8 3 -5 6 6 6 11 1 17 -2 13 -5z
m-210 -26 c-3 -8 -6 -5 -6 6 -1 11 2 17 5 13 3 -3 4 -12 1 -19z m2110 0 c-3
-8 -6 -5 -6 6 -1 11 2 17 5 13 3 -3 4 -12 1 -19z m-2010 -4 c-3 -3 -12 -4 -19
-1 -8 3 -5 6 6 6 11 1 17 -2 13 -5z m-42 -14 c-3 -5 -11 -10 -16 -10 -6 0 -7
5 -4 10 3 6 11 10 16 10 6 0 7 -4 4 -10z m1982 -12 c-3 -8 -6 -5 -6 6 -1 11 2
17 5 13 3 -3 4 -12 1 -19z m-2017 -2 c0 -3 -4 -8 -10 -11 -5 -3 -10 -1 -10 4
0 6 5 11 10 11 6 0 10 -2 10 -4z m2194 -30 c-3 -15 -8 -25 -11 -23 -2 3 -1 17
3 31 3 15 8 25 11 23 2 -3 1 -17 -3 -31z m-134 10 c0 -3 -4 -8 -10 -11 -5 -3
-10 -1 -10 4 0 6 5 11 10 11 6 0 10 -2 10 -4z m383 -176 c-3 -12 -8 -19 -11
-16 -5 6 5 36 12 36 2 0 2 -9 -1 -20z m968 -108 c-6 -12 -11 -27 -10 -34 0 -7
5 -3 11 10 6 12 15 22 19 22 16 0 83 -66 131 -130 117 -154 176 -335 185 -562
6 -137 -1 -165 -25 -115 -22 46 -110 148 -117 136 -4 -6 -4 -14 1 -18 19 -13
49 -54 34 -46 -8 4 -5 -3 8 -17 12 -13 20 -28 17 -31 -3 -4 -2 -5 1 -2 9 6 51
-43 57 -66 5 -20 -9 -16 -85 22 -234 117 -374 252 -478 459 -26 52 -80 191
-80 207 0 2 44 3 98 2 129 -2 144 2 162 37 8 16 19 32 24 35 5 4 5 12 1 19 -4
7 -4 15 1 19 5 3 17 23 27 45 10 21 20 36 23 33 3 -3 1 -14 -5 -25z m-4921
-31 c0 -29 34 -100 56 -117 12 -10 12 -13 2 -18 -7 -3 47 -3 120 0 150 7 144
11 111 -76 -74 -197 -184 -342 -349 -464 -106 -79 -263 -165 -244 -135 3 6 -5
3 -20 -6 -30 -20 -34 -14 -10 14 10 11 24 17 33 14 13 -4 14 -3 2 5 -12 9 -12
13 -2 26 7 9 18 13 24 9 5 -3 7 -1 4 4 -4 6 9 27 29 47 34 34 41 57 19 58 -9
1 -69 -72 -118 -142 -9 -13 -18 -22 -20 -19 -10 10 14 264 32 345 34 156 123
331 223 439 46 51 60 55 82 23 18 -25 21 -17 6 12 -8 16 -8 18 5 14 8 -4 15
-18 15 -33z m-491 -526 c56 -149 64 -340 21 -470 -25 -73 -95 -211 -105 -207
-4 2 -11 -2 -15 -9 -12 -18 -67 97 -86 178 -12 50 -15 100 -11 183 5 133 28
207 92 304 22 33 44 67 50 77 13 25 30 8 54 -56z m5951 13 c95 -119 125 -219
117 -388 -4 -95 -11 -130 -36 -200 -17 -47 -41 -97 -53 -111 l-22 -27 -54 110
c-29 61 -60 140 -68 177 -25 117 -15 251 27 396 12 39 23 76 25 83 6 22 22 13
64 -40z m-5570 -521 c-42 -128 -72 -185 -138 -258 -80 -89 -311 -244 -327
-219 -9 14 23 163 50 236 50 133 100 200 199 269 53 37 179 84 227 85 l26 0
-37 -113z m5153 97 c71 -18 147 -55 200 -96 78 -62 158 -200 198 -343 28 -101
24 -120 -11 -59 -33 57 -66 92 -54 58 4 -10 27 -47 51 -82 53 -77 44 -76 -99
10 -128 77 -250 197 -295 288 -17 36 -41 100 -52 143 -11 43 -23 82 -26 87 -9
14 18 12 88 -6z m-5866 -217 c53 -61 122 -181 137 -242 18 -67 21 -207 6 -275
-28 -126 -43 -170 -55 -160 -9 8 -12 3 -9 -20 l4 -31 -28 20 c-26 18 -39 35
-106 139 -57 86 -94 245 -81 345 7 52 37 184 56 244 12 39 28 34 76 -20z
m6610 -15 c90 -249 61 -456 -88 -640 -53 -65 -65 -73 -72 -44 -3 12 -5 10 -7
-8 -1 -15 -12 9 -26 60 -31 105 -43 301 -24 388 20 94 154 319 184 309 6 -2
21 -31 33 -65z m-528 -426 c55 -29 133 -86 167 -124 35 -40 102 -178 118 -247
17 -69 25 -182 17 -238 -6 -37 -7 -34 -31 54 -32 118 -39 88 -10 -37 12 -52
20 -97 17 -101 -11 -10 -204 192 -246 257 -57 87 -90 198 -98 325 -5 95 -2
135 12 135 3 0 27 -11 54 -24z m-5581 -101 c-12 -217 -76 -353 -252 -532 -33
-35 -64 -63 -68 -63 -3 0 -4 28 -2 62 7 79 -3 71 -20 -18 l-13 -69 -8 90 c-9
102 4 220 35 309 42 124 143 246 250 305 87 48 86 49 78 -84z m-720 -157 c115
-72 179 -135 217 -213 32 -66 65 -198 78 -315 l5 -45 -16 33 c-9 17 -19 32
-23 32 -9 0 1 -41 15 -59 9 -11 5 -12 -24 -6 -19 4 -46 14 -60 22 l-25 15 24
-19 c13 -11 45 -28 72 -37 48 -18 71 -44 27 -31 -125 38 -291 181 -349 299
-29 60 -34 81 -37 162 -5 105 5 204 19 204 5 0 40 -19 77 -42z m7051 -21 c30
-174 -8 -315 -114 -420 -91 -90 -172 -143 -259 -168 l-28 -8 7 57 c29 246 83
382 188 477 53 48 168 124 188 125 4 0 12 -28 18 -63z m-6332 -403 c23 -85 28
-289 9 -364 -16 -64 -132 -310 -147 -310 -4 0 1 28 12 63 26 84 23 95 -6 22
-13 -33 -24 -75 -24 -92 -1 -50 -19 -39 -26 15 -8 61 -13 74 -14 39 -2 -76
-54 60 -66 173 -12 112 22 253 82 343 43 63 144 168 157 164 6 -2 16 -26 23
-53z m5601 -3 c161 -140 217 -354 149 -573 -15 -49 -30 -88 -33 -88 -3 0 -2
35 1 78 6 99 -11 52 -21 -55 l-7 -72 -21 27 c-11 15 -28 35 -38 46 -52 57
-129 255 -143 366 -6 49 13 233 31 306 7 28 10 26 82 -35z m-6286 -261 c164
-37 270 -112 327 -233 25 -53 101 -268 101 -286 0 -3 -12 12 -26 32 -14 21
-28 36 -31 33 -4 -3 -12 -1 -20 6 -7 6 -16 8 -19 5 -3 -3 10 -20 30 -37 64
-56 43 -64 -71 -25 -40 13 -85 32 -100 43 -16 11 -38 23 -51 27 -13 4 -21 9
-18 12 6 6 -38 44 -51 44 -15 1 -42 32 -36 42 3 6 1 7 -5 3 -11 -6 -41 29 -80
94 -20 33 -62 166 -75 238 -6 29 -5 32 16 27 12 -2 61 -13 109 -25z m7013 20
c4 -6 -1 -45 -10 -86 -38 -173 -150 -316 -305 -392 -105 -52 -217 -68 -175
-25 24 23 9 29 -17 7 -15 -14 -20 -15 -16 -4 19 55 14 56 -11 3 -16 -35 -32
-63 -34 -63 -9 0 74 225 106 290 65 130 174 210 351 255 111 28 103 27 111 15z
m-6153 -386 c93 -172 91 -389 -7 -597 l-25 -52 6 45 c3 25 8 54 11 65 3 11 2
17 -1 14 -13 -12 -37 -132 -30 -152 4 -13 2 -18 -7 -15 -7 2 -21 26 -30 54
-15 41 -25 52 -20 22 4 -26 -15 3 -51 78 -37 77 -42 94 -46 182 -5 114 7 184
48 270 38 81 92 163 105 159 5 -2 26 -35 47 -73z m5244 32 c106 -143 147 -315
109 -459 -18 -68 -37 -109 -105 -213 l-50 -79 4 45 c2 25 1 34 -1 20 -4 -20
-10 -13 -35 45 -68 158 -87 333 -54 478 14 60 82 208 96 207 3 -1 19 -20 36
-44z m727 -324 l39 -7 -37 -69 c-58 -109 -109 -179 -170 -231 -64 -56 -126
-96 -137 -89 -5 3 -8 0 -8 -6 0 -7 -7 -10 -15 -6 -8 3 -15 2 -15 -3 0 -12
-140 -34 -193 -30 -26 2 -47 0 -47 -4 0 -5 -6 -7 -14 -4 -7 3 -19 0 -25 -6 -8
-8 -14 -8 -23 2 -7 7 -8 12 -3 11 21 -4 33 1 39 16 5 14 4 15 -9 4 -26 -22
-26 -5 0 30 14 19 25 36 25 39 0 10 -49 -52 -65 -81 -9 -16 -20 -28 -26 -28
-6 0 -2 15 10 33 11 17 42 70 68 117 105 186 245 289 423 310 85 10 136 10
183 2z m-6539 -18 c162 -42 273 -139 363 -318 20 -39 44 -83 54 -98 24 -33 24
-33 -11 -33 -16 -1 -30 3 -30 8 0 4 -4 6 -9 2 -6 -3 -41 0 -78 6 -37 6 -86 11
-108 11 -30 -1 -36 1 -25 9 11 8 7 9 -17 7 -19 -3 -30 0 -26 6 4 5 -1 7 -10 3
-10 -4 -24 1 -34 12 -24 23 -113 84 -113 76 0 -17 -128 125 -144 160 -11 22
-37 68 -58 103 l-38 62 111 0 c69 0 134 -6 173 -16z m875 -282 c61 -103 83
-181 85 -292 2 -155 -41 -378 -45 -237 l-2 42 -6 -40 -6 -39 -19 29 c-31 50
-59 76 -66 64 -9 -14 -88 99 -120 171 -35 80 -34 209 3 345 15 55 30 107 33
115 8 21 93 -73 143 -158z m4687 131 c8 -21 27 -81 41 -133 57 -213 24 -326
-148 -507 l-54 -57 -6 50 c-4 37 -6 41 -7 16 -1 -19 -6 -31 -12 -27 -6 4 -10
-5 -10 -20 0 -15 4 -24 10 -20 15 9 12 -11 -4 -24 -11 -9 -14 2 -20 61 -25
280 -16 379 44 502 30 61 128 195 142 196 4 0 15 -17 24 -37z m-4340 -404 c78
-82 127 -158 153 -236 22 -66 42 -207 40 -288 l-1 -50 -12 47 c-14 61 -26 71
-26 24 0 -34 24 -103 40 -116 4 -3 10 -14 14 -24 5 -16 3 -15 -16 5 -13 13
-57 51 -98 84 -168 134 -222 207 -243 329 -10 62 -4 126 29 299 l6 27 26 -19
c15 -10 54 -48 88 -82z m3972 49 c64 -305 36 -400 -177 -591 -36 -32 -74 -63
-83 -68 -16 -9 -17 -7 -8 17 6 15 8 29 5 32 -3 3 -5 0 -5 -7 0 -7 -4 -9 -10
-6 -5 3 -10 1 -10 -5 0 -6 -5 -8 -11 -4 -16 10 -4 210 17 294 19 74 57 155
104 218 34 47 151 172 161 172 3 0 11 -24 17 -52z m-4788 -108 c39 -6 99 -27
150 -52 74 -36 99 -55 192 -151 59 -61 106 -112 105 -113 -2 -2 -21 3 -42 10
-22 7 -53 16 -70 19 -26 6 -25 4 10 -13 22 -10 49 -19 59 -19 11 -1 17 -3 15
-5 -2 -3 -67 -8 -144 -11 -113 -6 -154 -4 -210 9 -102 24 -204 77 -266 138
-52 51 -102 112 -109 133 -2 6 -13 17 -24 27 -22 17 -25 17 99 31 64 8 173 6
235 -3z m5758 -2 c45 -6 82 -14 82 -17 0 -3 -17 -26 -37 -51 -145 -176 -307
-262 -515 -276 -78 -5 -108 -4 -108 5 0 7 -20 11 -51 11 -59 0 -63 16 -8 36
22 8 27 13 14 13 -26 1 -71 -23 -68 -36 1 -5 -9 -8 -22 -5 -22 4 -17 12 68 99
97 100 196 173 268 199 97 33 237 42 377 22z m-4461 -275 c107 -70 195 -179
233 -286 21 -59 61 -252 51 -241 -3 3 -11 22 -17 42 -7 20 -12 29 -13 20 -1
-10 -7 -18 -15 -18 -9 0 -12 -8 -8 -25 2 -14 9 -25 15 -25 6 0 8 -3 5 -6 -7
-7 -93 36 -165 82 -29 19 -82 64 -118 100 -101 104 -131 182 -150 398 l-6 68
68 -37 c37 -21 91 -53 120 -72z m3079 80 c-2 -16 -8 -59 -11 -98 -13 -147 -51
-260 -108 -324 -39 -42 -161 -137 -215 -167 -45 -25 -54 -27 -62 -14 -8 13
-13 12 -37 -6 -15 -12 -29 -28 -31 -37 -3 -12 4 -12 38 5 22 11 44 18 47 14 5
-5 -98 -57 -103 -52 -1 0 4 28 12 61 7 33 23 104 35 158 30 140 66 206 164
302 71 70 238 185 268 185 5 0 6 -12 3 -27z m-2600 -243 c275 -128 368 -246
418 -529 6 -33 6 -33 -27 15 -41 62 -66 72 -38 15 12 -23 18 -41 14 -41 -5 0
-1 -5 7 -10 11 -7 11 -10 2 -10 -20 0 -3 -20 26 -32 16 -6 22 -12 14 -15 -17
-7 -83 21 -145 60 -49 32 -72 43 -90 45 -4 1 -18 12 -30 25 -12 13 -41 36 -64
50 -103 65 -184 216 -208 387 -3 25 -8 57 -11 72 -7 33 -11 34 132 -32z m2067
31 c10 -46 -29 -209 -68 -286 -31 -62 -101 -155 -111 -147 -6 3 -53 -27 -84
-53 -55 -47 -251 -155 -281 -155 -5 0 -9 8 -9 18 0 11 3 13 8 5 11 -18 37 6
45 42 l7 30 -15 -27 c-16 -29 -35 -37 -35 -15 1 40 44 200 68 252 34 71 130
173 216 229 58 38 235 135 247 136 4 0 9 -13 12 -29z m-3123 -126 c98 -36 212
-93 206 -104 -10 -15 -175 -81 -254 -102 -85 -23 -148 -21 -262 7 -59 15 -190
74 -248 112 l-24 15 25 13 c44 24 161 66 222 80 94 22 242 12 335 -21z m4352
21 c102 -20 268 -80 268 -98 0 -3 -36 -24 -79 -47 -195 -100 -377 -122 -546
-64 -123 42 -175 64 -175 73 0 11 103 74 167 102 108 48 232 59 365 34z
m-2537 -168 c39 -5 97 -21 129 -34 33 -12 64 -20 69 -17 6 3 7 1 3 -6 -11 -17
28 -8 94 23 62 28 147 43 298 49 l103 5 -7 -36 c-18 -110 -58 -246 -90 -309
-20 -40 -65 -107 -101 -150 -69 -83 -75 -90 -171 -171 -34 -30 -62 -57 -62
-61 0 -4 42 -39 93 -77 106 -79 251 -219 242 -234 -4 -6 -23 6 -43 27 -20 21
-57 56 -82 78 -56 50 -15 2 53 -63 26 -25 47 -49 47 -55 0 -6 -8 -3 -18 6 -23
21 -39 22 -22 2 7 -8 9 -15 5 -15 -9 0 -93 73 -228 199 -54 50 -104 91 -111
91 -6 0 -50 -36 -96 -81 -47 -44 -112 -107 -145 -138 -74 -71 -92 -83 -75 -50
13 24 13 24 -9 5 -11 -11 -24 -16 -29 -12 -4 4 7 20 24 34 50 44 117 99 149
123 17 13 53 44 82 71 28 26 57 48 62 48 6 0 11 5 11 10 0 11 -38 -7 -55 -27
-5 -6 -55 -46 -110 -88 -55 -43 -116 -93 -136 -112 -21 -19 -39 -30 -43 -25
-9 14 161 159 271 232 29 19 53 40 53 45 0 9 -111 116 -165 160 -28 23 -143
185 -168 236 -27 57 -73 211 -80 269 -3 19 -8 43 -12 53 -7 16 0 17 96 12 57
-4 136 -11 174 -17z m-1330 -139 c67 -9 103 -20 229 -69 l30 -11 -45 -32 c-66
-47 -216 -115 -278 -127 -82 -15 -204 -11 -326 11 -60 11 -118 20 -127 20 -33
1 -19 17 60 72 100 70 193 118 262 133 71 16 102 16 195 3z m3333 -23 c74 -25
217 -106 274 -154 l31 -27 -34 -8 c-106 -26 -232 -38 -344 -33 -158 6 -242 32
-355 110 -89 60 -88 57 -23 83 165 68 312 78 451 29z m-2944 8 c3 -8 2 -12 -4
-9 -6 3 -10 10 -10 16 0 14 7 11 14 -7z m-49 -15 c22 -10 29 -16 15 -13 -28 7
-80 33 -65 33 6 0 28 -9 50 -20z m389 -193 c48 -14 91 -28 94 -31 21 -22 -207
-175 -324 -217 -82 -30 -98 -33 -204 -33 -73 1 -143 7 -193 19 l-78 18 67 61
c178 164 267 204 454 206 72 1 117 -5 184 -23z m1961 9 c32 -9 84 -29 116 -46
61 -33 269 -193 269 -208 0 -9 -219 -41 -280 -41 -65 0 -214 33 -278 61 -67
30 -101 53 -197 133 -33 28 -62 51 -64 53 -10 7 14 17 96 39 106 28 249 32
338 9z m-1505 -208 c60 -12 65 -15 62 -37 -4 -39 -70 -128 -126 -170 -97 -74
-231 -114 -376 -115 -97 0 -209 11 -219 21 -7 7 74 84 164 156 166 133 320
178 495 145z m913 -2 c84 -15 178 -54 254 -106 55 -39 213 -177 213 -188 0
-13 -123 -31 -211 -31 -165 0 -329 58 -415 146 -57 58 -118 160 -102 170 12 8
101 21 148 22 19 1 70 -5 113 -13z m-2053 -315 c8 -5 11 -10 5 -10 -5 0 -17 5
-25 10 -8 5 -10 10 -5 10 6 0 17 -5 25 -10z"/>
<path d="M4143 6703 c15 -2 37 -2 50 0 12 2 0 4 -28 4 -27 0 -38 -2 -22 -4z"/>
<path d="M4231 6696 c2 -2 36 -6 74 -9 43 -3 60 -2 45 3 -24 8 -127 14 -119 6z"/>
<path d="M3487 6679 c7 -7 15 -10 18 -7 3 3 -2 9 -12 12 -14 6 -15 5 -6 -5z"/>
<path d="M4405 6670 c17 -4 39 -8 50 -8 16 0 15 2 -5 8 -14 4 -36 8 -50 8 -22
0 -22 -1 5 -8z"/>
<path d="M4488 6653 c6 -2 18 -2 25 0 6 3 1 5 -13 5 -14 0 -19 -2 -12 -5z"/>
<path d="M4548 6643 c7 -3 16 -2 19 1 4 3 -2 6 -13 5 -11 0 -14 -3 -6 -6z"/>
<path d="M4588 6633 c6 -2 18 -2 25 0 6 3 1 5 -13 5 -14 0 -19 -2 -12 -5z"/>
<path d="M4668 6613 c7 -3 16 -2 19 1 4 3 -2 6 -13 5 -11 0 -14 -3 -6 -6z"/>
<path d="M4735 6595 c17 -8 37 -14 45 -14 8 0 -1 7 -20 14 -46 18 -64 17 -25
0z"/>
<path d="M4895 6540 c11 -5 27 -9 35 -9 9 0 8 4 -5 9 -11 5 -27 9 -35 9 -9 0
-8 -4 5 -9z"/>
<path d="M3830 6494 c-236 -22 -320 -37 -494 -85 -312 -86 -626 -248 -886
-455 -101 -81 -291 -270 -376 -374 -311 -383 -466 -816 -467 -1305 0 -409 115
-804 335 -1155 185 -293 488 -570 804 -735 422 -219 910 -326 1354 -295 300
20 574 80 809 176 221 91 375 178 558 315 423 319 718 805 815 1346 30 168 32
499 5 664 -61 366 -208 704 -423 970 -246 306 -524 532 -845 689 -359 175
-847 275 -1189 244z m160 -51 c38 -81 105 -238 135 -313 18 -47 56 -143 85
-215 59 -150 184 -477 245 -645 l42 -115 44 -7 c46 -7 597 -31 1104 -48 343
-11 405 -17 405 -35 0 -13 -35 -40 -195 -155 -43 -30 -116 -83 -164 -117 -47
-34 -120 -86 -161 -115 -41 -29 -79 -56 -85 -61 -16 -12 -111 -80 -135 -97
-12 -8 -75 -53 -139 -100 -64 -47 -145 -107 -181 -133 -36 -25 -74 -54 -85
-63 -11 -8 -32 -23 -47 -32 -15 -9 -30 -22 -33 -30 -2 -7 8 -48 25 -90 31 -81
63 -171 214 -602 52 -146 117 -326 144 -400 142 -379 162 -436 160 -448 -3
-12 -57 23 -483 314 -207 141 -881 596 -909 613 -21 13 -27 12 -67 -16 -24
-17 -163 -111 -309 -209 -418 -279 -451 -302 -515 -350 -33 -24 -68 -47 -77
-50 -10 -4 -18 -10 -18 -14 0 -5 -9 -11 -20 -15 -11 -3 -39 -22 -62 -41 -56
-44 -53 -43 -123 -88 -53 -35 -91 -62 -187 -136 -53 -41 -53 -38 44 230 242
675 298 830 379 1050 87 232 90 245 73 258 -11 7 -64 45 -119 84 -561 398
-975 699 -1052 765 -29 25 -53 48 -53 53 0 10 123 18 505 30 334 11 890 38
1004 48 l74 7 49 125 c162 416 194 501 333 865 103 271 125 325 135 325 4 0
13 -12 20 -27z m-200 -225 c0 -12 -18 -68 -40 -124 -22 -56 -40 -110 -40 -120
0 -11 -3 -14 -8 -8 -10 10 -32 172 -32 233 l0 41 60 0 c55 0 60 -2 60 -22z
m622 -4 c15 -10 4 -86 -31 -211 -17 -60 -35 -127 -41 -150 -6 -24 -14 -43 -18
-43 -10 0 -53 115 -59 158 -4 33 30 232 44 255 6 10 86 2 105 -9z m-942 -126
c46 -146 89 -323 96 -393 4 -45 1 -74 -13 -114 l-19 -54 -36 99 c-37 103 -152
470 -162 515 -6 27 -8 26 96 48 3 0 21 -45 38 -101z m1275 2 c-4 -14 -44 -113
-90 -220 -120 -280 -147 -340 -174 -385 l-23 -39 -14 33 c-22 52 -17 90 27
217 53 155 158 426 170 440 7 9 22 8 60 -4 46 -15 50 -18 44 -42z m-1633 -106
c26 -38 66 -106 90 -151 24 -45 47 -79 52 -76 5 4 6 0 1 -7 -5 -8 -1 -18 10
-27 11 -7 15 -13 10 -13 -5 0 0 -7 11 -16 10 -8 13 -12 5 -8 -17 9 -21 19 78
-180 46 -92 80 -170 77 -173 -7 -8 -1 -16 -70 92 -31 50 -77 117 -102 150 -41
56 -97 133 -201 280 -54 75 -123 198 -98 173 4 -4 21 2 38 13 18 10 36 17 42
16 5 -2 31 -35 57 -73z m1963 -24 c11 -18 -114 -214 -359 -563 -23 -31 -61
-86 -86 -122 -45 -64 -74 -81 -87 -49 -10 25 18 78 260 489 120 205 156 263
173 280 11 11 20 10 53 -6 22 -10 42 -23 46 -29z m-2299 -146 c12 -10 47 -48
78 -84 31 -36 62 -65 69 -65 6 0 12 -7 12 -15 0 -22 106 -150 118 -143 6 4 7
1 3 -6 -10 -15 23 -53 37 -44 6 3 7 1 3 -6 -10 -15 13 -43 27 -34 6 3 7 1 3
-5 -4 -6 25 -55 64 -108 71 -96 84 -129 33 -83 -26 22 -27 22 -9 1 l20 -23
-30 3 c-16 1 -35 -1 -41 -5 -7 -5 -42 22 -87 68 -72 72 -90 95 -64 79 7 -4 8
-3 4 4 -4 6 -12 9 -19 7 -7 -3 -37 21 -67 52 -30 31 -49 53 -42 49 15 -9 16 6
0 22 -17 17 3 14 27 -4 17 -13 18 -16 5 -24 -13 -8 -12 -12 4 -27 15 -13 17
-14 8 -2 -10 13 -9 19 3 29 14 12 20 7 15 -15 -1 -5 4 -4 11 3 14 13 33 17 26
5 -2 -5 12 -24 31 -43 l34 -35 -38 58 c-20 31 -39 57 -41 57 -2 0 -1 -4 2 -10
3 -6 -1 -7 -10 -4 -9 4 -14 9 -11 11 7 8 -27 42 -36 37 -5 -3 -7 -2 -6 3 2 5
-61 72 -139 150 -79 78 -143 148 -143 155 0 8 17 24 38 35 l37 20 25 -22 c14
-12 35 -30 46 -41z m354 -85 c25 -25 54 -58 65 -74 11 -16 26 -34 33 -42 7 -7
10 -17 7 -23 -3 -5 1 -10 9 -10 9 0 16 -7 16 -17 0 -9 3 -13 7 -10 9 10 38
-34 38 -59 0 -11 8 -32 17 -46 9 -14 23 -41 31 -60 12 -29 12 -35 1 -35 -8 0
-19 13 -26 28 -7 15 -15 26 -19 24 -3 -3 -15 11 -25 30 -10 19 -21 35 -25 35
-13 0 -79 111 -73 122 4 6 3 8 -3 5 -16 -10 -34 18 -27 39 4 14 4 16 -4 5 -8
-11 -12 -9 -22 9 -8 14 -8 20 -1 16 6 -4 3 7 -7 23 -9 17 -22 31 -29 31 -7 0
-10 7 -7 15 3 8 -3 27 -13 42 -30 43 -37 62 -11 28 12 -16 43 -51 68 -76z
m2209 61 l34 -30 -43 -56 c-36 -48 -150 -172 -416 -451 -59 -62 -63 -64 -104
-61 l-42 3 114 141 c257 318 400 484 417 484 3 0 21 -14 40 -30z m-2906 -204
c29 -19 100 -73 160 -120 104 -84 126 -98 111 -74 -4 7 -3 8 5 4 6 -4 9 -11 6
-16 -7 -12 22 -33 36 -24 7 4 9 3 5 -4 -4 -6 34 -43 91 -89 l97 -78 -52 -3
c-61 -4 -47 -12 -377 225 -71 51 -147 108 -168 127 l-38 34 22 26 c29 34 40
33 102 -8z m3169 -23 c10 -9 18 -20 18 -25 0 -15 -45 -51 -249 -205 -182 -138
-196 -146 -245 -150 -45 -4 -49 -2 -30 9 52 33 253 212 247 221 -3 6 -1 7 5 3
7 -4 12 -2 12 4 0 6 4 9 9 6 4 -3 17 4 27 16 40 45 155 138 171 138 9 0 25 -7
35 -17z m-452 -113 c-6 -11 -13 -20 -16 -20 -2 0 0 9 6 20 6 11 13 20 16 20 2
0 0 -9 -6 -20z m-34 -61 c-9 -13 -16 -18 -16 -12 0 7 5 15 10 18 6 3 10 11 10
17 0 6 -7 5 -17 -3 -16 -13 -17 -12 -4 4 21 27 37 4 17 -24z m425 0 c8 -15 8
-19 0 -15 -7 5 -10 -1 -8 -15 1 -14 -4 -23 -16 -24 -9 -2 -15 1 -12 5 3 5 1
11 -5 15 -5 3 -10 12 -10 18 0 7 9 1 20 -13 21 -27 26 -21 9 12 -9 16 -8 19 2
13 9 -6 11 -3 6 8 -9 24 0 21 14 -4z m-480 -32 c-10 -9 -11 -8 -5 6 3 10 9 15
12 12 3 -3 0 -11 -7 -18z m422 9 c7 -17 4 -40 -6 -43 -10 -4 -47 -42 -47 -49
0 -3 5 -2 12 2 6 4 8 3 5 -3 -3 -5 -19 -9 -36 -8 -22 1 -28 -2 -23 -13 3 -10
1 -13 -6 -8 -6 3 -13 2 -17 -4 -12 -20 -24 -10 -19 17 5 24 3 25 -13 12 -16
-13 -17 -12 -4 3 15 20 35 14 27 -9 -4 -8 -1 -11 5 -7 6 3 9 15 6 25 -7 25 21
48 34 28 15 -23 10 -36 -6 -15 -8 11 -15 15 -15 9 0 -19 25 -34 38 -21 8 8 6
18 -6 37 -9 14 -12 23 -7 19 4 -4 15 -2 23 5 10 8 13 8 9 1 -9 -16 18 -25 31
-12 8 8 8 17 1 30 -6 10 -6 18 0 18 5 0 11 -6 14 -14z m-3213 -132 l135 -69
-137 -3 c-130 -2 -139 -1 -192 24 -31 14 -56 29 -56 32 0 3 14 27 31 53 37 58
31 59 219 -37z m3575 56 c-3 -5 -1 -10 4 -10 8 0 41 -60 41 -75 0 -2 -15 -13
-34 -24 -36 -23 -80 -26 -199 -14 l-67 6 77 45 c105 60 193 96 178 72z m-4019
-610 c37 -11 40 -15 42 -48 2 -21 5 -45 8 -54 3 -10 2 -18 -3 -18 -18 0 -137
21 -144 25 -6 4 4 68 16 103 3 7 13 11 22 8 10 -2 36 -10 59 -16z m4324 -15
c26 -67 25 -71 -22 -84 -46 -12 -142 -31 -145 -27 -2 2 28 99 33 104 3 5 95
30 112 31 7 1 17 -10 22 -24z m-4220 -341 c171 -16 199 -24 250 -74 l31 -30
-198 0 c-109 0 -228 3 -265 7 l-68 6 0 53 0 54 43 0 c24 0 117 -7 207 -16z
m4290 -38 l0 -54 -77 -4 c-43 -2 -186 -5 -318 -6 -216 -2 -237 -1 -212 12 15
8 35 23 44 32 31 30 77 43 204 53 68 6 140 13 159 15 19 1 72 4 118 4 l82 2 0
-54z m-698 -282 c62 -8 174 -26 248 -39 278 -50 425 -77 427 -79 5 -5 -9 -94
-17 -106 -8 -13 -202 28 -620 129 -223 55 -273 69 -249 70 8 1 24 10 35 20 24
24 36 25 176 5z m-2987 -28 l27 -14 -55 -16 c-107 -31 -625 -151 -739 -170
-40 -7 -41 -6 -53 72 -4 23 -3 42 2 42 4 0 107 18 228 39 184 33 347 58 475
74 30 3 79 -8 115 -27z m2715 -178 c63 -25 152 -58 198 -74 46 -16 92 -37 103
-47 10 -10 19 -14 19 -10 0 4 4 3 8 -3 4 -6 18 -14 32 -18 19 -6 21 -5 10 3
-23 16 -3 13 30 -4 17 -9 30 -20 30 -26 0 -8 5 -7 15 1 13 11 14 10 8 -6 -6
-17 -5 -17 10 -5 16 12 17 12 10 -5 -6 -17 -5 -18 12 -4 15 12 17 12 10 1 -6
-11 -4 -13 9 -8 9 4 15 3 12 -2 -6 -9 71 -47 80 -39 3 4 -11 11 -31 18 -20 7
-34 14 -32 17 10 9 78 -27 71 -38 -4 -8 1 -9 17 -4 23 7 23 7 4 -8 -13 -10
-22 -12 -26 -5 -4 7 -9 6 -13 -1 -4 -6 -3 -11 2 -11 5 0 9 -7 9 -15 0 -8 -5
-15 -10 -15 -6 0 -8 -2 -5 -5 2 -3 22 2 44 10 l39 15 -35 -4 c-31 -4 -32 -4
-12 6 17 9 29 7 57 -8 32 -17 33 -19 15 -26 -25 -9 -26 -18 -1 -11 10 3 22 -1
26 -8 5 -8 4 -10 -3 -5 -7 4 -18 4 -24 -1 -7 -4 -21 -9 -32 -10 -16 -3 -17 -1
-5 13 13 16 12 16 -8 3 -16 -9 -19 -16 -10 -21 7 -4 8 -8 2 -8 -5 0 -4 -4 4
-9 12 -8 12 -12 2 -24 -9 -11 -9 -17 -1 -22 6 -4 14 -4 17 -1 4 3 1 6 -7 6
-10 0 -10 3 0 15 15 18 36 19 46 3 5 -7 2 -9 -9 -5 -11 4 -14 2 -10 -8 3 -9
-2 -18 -12 -21 -13 -5 -5 -14 34 -36 28 -16 51 -35 51 -40 0 -9 -42 -90 -55
-106 -9 -11 -466 328 -459 340 3 5 2 8 -3 7 -23 -4 -38 7 -106 74 -78 76 -195
160 -218 155 -8 -2 -13 3 -11 10 1 7 -17 22 -40 32 -24 11 -37 20 -29 20 9 0
7 6 -7 19 -12 10 -22 21 -22 24 0 9 68 -14 200 -65z m-2427 17 c2 -13 -103
-81 -348 -225 -107 -62 -195 -117 -195 -122 0 -4 6 -5 14 -2 7 3 20 -2 29 -11
9 -8 18 -11 22 -6 3 5 -4 12 -15 16 -11 4 -18 10 -15 15 3 5 13 7 23 4 15 -5
15 -4 2 6 -13 10 -13 11 0 7 8 -2 14 -12 12 -22 -2 -12 1 -15 10 -9 7 4 0 -7
-17 -25 -18 -19 -37 -30 -47 -28 -9 3 -15 0 -13 -7 5 -14 -16 -30 -178 -140
-70 -48 -132 -84 -138 -81 -5 4 -20 28 -34 55 l-25 48 33 21 c17 11 27 21 20
21 -6 0 -15 -4 -18 -10 -3 -5 -12 -10 -18 -10 -16 0 44 49 60 50 7 0 10 6 8
13 -3 7 4 13 20 13 36 3 58 23 44 40 -9 11 -6 16 14 23 14 5 28 15 32 20 7 12
-39 -5 -63 -22 -9 -7 -11 -6 -6 6 3 9 15 19 26 23 11 3 17 8 14 11 -3 3 -13 2
-23 -2 -10 -5 -21 -9 -25 -9 -5 -1 -8 -4 -8 -8 0 -5 0 -14 0 -22 0 -8 10 -18
22 -22 l21 -6 -24 -14 c-34 -19 -41 -17 -29 6 12 22 10 23 -14 14 -9 -3 -13
-10 -10 -15 3 -5 0 -17 -6 -26 -10 -16 -11 -15 -7 5 3 12 0 22 -6 22 -7 1 0 7
15 16 17 9 25 20 22 29 -5 11 -11 12 -24 5 -10 -6 -25 -10 -32 -10 -7 0 11 14
41 30 29 16 57 27 62 24 5 -3 9 0 9 7 0 8 5 7 17 -2 14 -12 16 -12 8 0 -6 11
-4 13 9 8 10 -4 15 -3 11 3 -3 6 -1 10 4 10 6 0 11 4 11 9 0 9 -47 -6 -97 -31
-13 -6 -25 -9 -28 -6 -3 3 52 31 122 63 71 31 131 62 135 69 5 7 8 6 8 -3 0
-11 4 -9 14 5 13 17 17 17 37 6 19 -12 21 -12 16 1 -4 10 15 22 66 44 161 68
394 145 420 139 5 -1 9 -6 10 -11z m2417 -121 c0 -3 -13 4 -30 16 -16 12 -30
24 -30 26 0 3 14 -4 30 -16 17 -12 30 -24 30 -26z m-58 -186 c44 -40 190 -189
324 -331 l244 -258 -19 -27 c-10 -15 -31 -38 -46 -52 l-27 -25 -26 31 c-15 17
-99 115 -187 218 -253 296 -286 337 -315 401 -29 62 -45 115 -34 115 3 0 42
-33 86 -72z m-2379 5 c-6 -66 -42 -116 -278 -389 -126 -146 -238 -276 -247
-288 l-17 -21 -45 45 c-26 24 -46 49 -46 54 0 6 37 48 83 94 55 56 78 85 70
90 -9 5 -6 12 10 21 21 13 21 13 7 -5 -14 -19 -14 -19 7 0 13 10 20 23 16 29
-3 5 -2 7 4 4 5 -3 27 12 49 34 26 27 32 38 19 33 -11 -4 -17 -4 -13 0 3 4 13
9 22 10 8 1 24 10 36 21 16 14 18 21 8 28 -10 6 -9 7 2 4 9 -2 71 50 158 135
79 76 147 138 151 138 5 0 6 -17 4 -37z m-823 -17 c0 -5 -69 -46 -78 -46 -6 1
69 50 76 50 1 0 2 -2 2 -4z m-11 -60 c-2 -2 -14 -9 -26 -15 -19 -10 -22 -9
-17 4 4 8 15 15 27 15 11 0 18 -2 16 -4z m4000 -9 c8 -10 7 -14 -4 -14 -8 0
-12 4 -9 9 3 4 -10 6 -28 3 -29 -4 -30 -4 -8 4 35 13 36 13 49 -2z m-3386 -62
c-3 -9 -8 -14 -10 -11 -3 3 -2 9 2 15 9 16 15 13 8 -4z m3367 -5 c-24 -15 -37
-11 -16 5 11 8 22 12 25 9 3 -3 -1 -9 -9 -14z m25 -21 c11 -16 1 -19 -13 -3
-7 8 -8 14 -3 14 5 0 13 -5 16 -11z m-3375 -172 c0 -2 -10 -12 -22 -23 l-23
-19 19 23 c18 21 26 27 26 19z m1385 -205 c8 -20 25 -473 25 -668 0 -167 1
-164 -63 -164 -63 0 -61 -14 -48 332 11 290 26 502 37 519 7 12 42 -2 49 -19z
m-225 -179 c-12 -59 -48 -220 -81 -357 -32 -138 -59 -252 -59 -254 0 -7 -111
6 -118 13 -18 17 166 645 189 645 5 0 18 9 29 20 11 11 27 20 35 20 8 0 15 8
15 17 0 9 3 14 6 11 3 -4 -4 -55 -16 -115z m420 76 c0 6 13 -1 29 -16 37 -36
59 -98 128 -357 70 -268 76 -298 61 -307 -16 -10 -99 -22 -105 -15 -17 16
-144 641 -143 700 1 21 1 21 15 2 8 -11 15 -14 15 -7z m-865 -401 c-48 -101
-92 -188 -97 -195 -6 -7 -19 -8 -36 -3 -42 12 -82 32 -82 41 0 19 127 232 157
264 31 33 113 83 113 68 0 -4 5 -2 12 5 29 29 15 -9 -67 -180z m1235 165 c0 4
10 2 23 -5 12 -7 30 -12 39 -13 9 0 30 -15 46 -33 41 -46 155 -260 148 -278
-6 -15 -64 -44 -89 -44 -14 0 -30 30 -117 220 -57 125 -82 190 -61 160 6 -8
11 -11 11 -7z"/>
<path d="M3970 4067 c0 -291 4 -487 9 -487 8 0 534 -345 644 -422 66 -46 554
-371 570 -380 11 -6 4 10 -19 41 -21 28 -46 54 -56 57 -10 3 -18 10 -18 16 0
6 7 5 17 -3 15 -13 15 -12 3 8 -8 12 -18 19 -22 17 -4 -3 -8 0 -8 5 0 19 -4
26 -24 44 -12 10 -15 15 -8 12 11 -6 12 -3 3 14 -7 11 -15 21 -19 21 -4 0 -13
14 -20 30 -8 17 -19 36 -26 43 -6 6 -31 43 -56 81 -24 38 -49 74 -55 80 -5 6
-28 37 -49 68 -21 32 -43 55 -49 51 -6 -4 -7 -1 -2 6 4 8 -6 26 -26 48 -19 20
-28 33 -20 28 9 -5 7 1 -4 19 -10 14 -21 26 -26 26 -5 0 -8 3 -7 8 4 11 -35
71 -43 67 -4 -3 -10 2 -13 11 -4 10 -2 13 7 7 15 -9 -46 69 -68 87 -8 7 -15
19 -15 26 0 8 -5 14 -11 14 -5 0 -7 5 -4 10 3 6 1 10 -4 10 -6 0 -11 6 -11 13
-1 6 -12 26 -26 42 -17 21 -23 24 -18 10 4 -11 4 -17 -1 -13 -4 4 -8 15 -9 25
-2 27 -57 104 -69 96 -6 -3 -7 -1 -3 6 10 15 -13 43 -27 34 -6 -4 -8 0 -4 9 6
18 -67 123 -85 123 -6 0 -13 7 -15 15 -4 13 -3 13 6 0 6 -8 11 -11 11 -6 0 16
-77 105 -85 98 -5 -4 -5 1 -2 10 3 10 0 23 -7 30 -7 7 -18 22 -25 33 -8 13
-11 14 -7 3 8 -26 -6 -30 -19 -5 -21 40 -25 58 -14 51 6 -4 -6 16 -27 43 -22
28 -43 48 -48 45 -5 -3 -6 0 -2 7 5 7 1 20 -7 29 -8 9 -31 42 -51 72 l-36 55
0 -488z m130 283 c0 -5 -2 -10 -4 -10 -3 0 -8 5 -11 10 -3 6 -1 10 4 10 6 0
11 -4 11 -10z m45 -100 c3 -5 1 -10 -4 -10 -6 0 -11 5 -11 10 0 6 2 10 4 10 3
0 8 -4 11 -10z m100 -137 c-14 -14 -18 -14 -25 -2 -5 7 -7 23 -5 34 2 11 4 22
4 24 1 3 10 -5 22 -17 19 -21 19 -24 4 -39z m65 -83 c5 8 7 3 7 -14 -2 -24 -3
-25 -14 -9 -7 9 -13 22 -12 27 0 6 3 5 6 -3 4 -10 7 -11 13 -1z m44 -28 c3 -5
-1 -9 -9 -9 -8 0 -12 4 -9 9 3 4 7 8 9 8 2 0 6 -4 9 -8z m34 -123 c-3 -8 -7
-3 -11 10 -4 17 -3 21 5 13 5 -5 8 -16 6 -23z m83 -122 c-10 -9 -11 -8 -5 6 3
10 9 15 12 12 3 -3 0 -11 -7 -18z m163 -233 c3 -8 2 -12 -4 -9 -6 3 -10 10
-10 16 0 14 7 11 14 -7z m366 -479 c0 -5 -5 -3 -10 5 -5 8 -10 20 -10 25 0 6
5 3 10 -5 5 -8 10 -19 10 -25z m34 -81 c3 -8 2 -12 -4 -9 -6 3 -10 10 -10 16
0 14 7 11 14 -7z"/>
<path d="M4220 4130 c0 -5 5 -10 10 -10 6 0 10 5 10 10 0 6 -4 10 -10 10 -5 0
-10 -4 -10 -10z"/>
<path d="M4095 4530 c3 -5 11 -10 16 -10 6 0 7 5 4 10 -3 6 -11 10 -16 10 -6
0 -7 -4 -4 -10z"/>
<path d="M4131 4517 c28 -21 59 -36 59 -29 0 5 -11 14 -25 20 -24 11 -44 16
-34 9z"/>
<path d="M4255 4461 c-3 -5 21 -23 53 -39 54 -28 58 -28 59 -10 2 15 -1 17
-12 8 -9 -7 -15 -8 -20 0 -3 5 0 10 7 10 8 0 6 5 -5 11 -9 5 -22 7 -27 4 -6
-4 -20 -3 -31 0 -17 6 -19 9 -8 16 9 6 10 9 2 9 -6 0 -14 -4 -18 -9z"/>
<path d="M4530 4415 c0 -16 6 -25 15 -25 11 0 15 -11 15 -40 0 -36 3 -40 24
-40 13 0 26 6 29 13 3 9 7 9 20 -2 24 -19 11 -31 -26 -27 -47 6 -89 25 -82 36
4 6 -1 7 -10 3 -20 -7 -15 -11 67 -53 32 -17 68 -30 80 -29 19 0 18 2 -9 12
-17 7 -35 16 -40 21 -5 5 -3 6 4 2 7 -4 25 0 41 8 28 14 28 14 27 -12 -1 -15
-4 -32 -8 -38 -8 -14 107 -69 123 -59 10 6 9 11 -5 22 -11 7 -24 13 -29 13 -6
-1 0 -7 14 -15 14 -8 21 -14 15 -14 -5 0 -21 6 -34 13 -19 11 -21 14 -7 19 9
4 16 11 16 18 0 6 11 20 25 31 26 20 33 38 14 38 -19 0 -40 29 -39 53 4 39 0
47 -19 47 -10 0 -24 7 -31 15 -7 8 -16 15 -21 15 -5 0 -9 -7 -9 -15 0 -8 7
-15 15 -15 8 0 15 -4 15 -10 0 -5 -7 -10 -15 -10 -8 0 -15 5 -15 10 0 6 -18
10 -40 10 -29 0 -40 4 -40 15 0 11 -11 15 -40 15 -36 0 -40 -2 -40 -25z m105
-35 c-3 -5 -10 -10 -16 -10 -5 0 -9 5 -9 10 0 6 7 10 16 10 8 0 12 -4 9 -10z
m55 -30 c0 -11 -4 -20 -9 -20 -14 0 -23 18 -16 30 10 17 25 11 25 -10z"/>
<path d="M4381 4386 c2 -2 20 -11 39 -20 25 -12 30 -13 17 -2 -13 10 -15 15
-5 18 7 3 -2 5 -21 6 -18 0 -31 -1 -30 -2z"/>
<path d="M4472 4381 c-10 -6 -7 -10 13 -15 26 -7 27 -8 9 -22 -17 -13 -17 -13
8 -3 29 13 29 29 0 29 -15 0 -15 2 -2 10 13 9 13 10 0 10 -8 0 -21 -4 -28 -9z"/>
<path d="M4960 4381 c0 -5 5 -13 10 -16 6 -3 10 -2 10 4 0 5 -4 13 -10 16 -5
3 -10 2 -10 -4z"/>
<path d="M4797 4353 c-12 -11 -8 -23 9 -23 8 0 22 -7 30 -15 9 -8 24 -15 35
-15 12 0 17 -4 14 -11 -4 -6 -13 -8 -21 -5 -8 3 -14 2 -14 -3 0 -18 15 -20 38
-5 20 13 26 14 34 3 7 -11 8 -9 4 5 -5 13 -2 17 8 13 10 -4 13 -1 9 9 -4 10
-9 12 -18 4 -19 -16 -69 -1 -90 26 -18 25 -27 29 -38 17z"/>
<path d="M4655 4280 c-3 -6 1 -7 9 -4 18 7 21 14 7 14 -6 0 -13 -4 -16 -10z"/>
<path d="M4815 4210 c3 -5 8 -10 11 -10 2 0 4 5 4 10 0 6 -5 10 -11 10 -5 0
-7 -4 -4 -10z"/>
<path d="M3680 4140 c-6 -11 -8 -20 -6 -20 3 0 10 9 16 20 6 11 8 20 6 20 -3
0 -10 -9 -16 -20z"/>
<path d="M3648 4093 c7 -3 16 -2 19 1 4 3 -2 6 -13 5 -11 0 -14 -3 -6 -6z"/>
<path d="M3600 4035 c-7 -8 -9 -22 -6 -31 4 -12 2 -15 -9 -10 -10 3 -17 -3
-21 -19 -3 -14 -10 -22 -15 -19 -12 7 2 -29 14 -38 6 -3 -1 -5 -15 -5 -17 2
-24 7 -22 17 3 8 -2 1 -10 -16 -8 -17 -22 -36 -31 -44 -9 -7 -13 -21 -10 -34
3 -12 2 -15 -1 -8 -8 17 -24 15 -24 -3 0 -8 -5 -15 -11 -15 -7 0 -9 -9 -6 -21
4 -15 2 -19 -9 -15 -8 3 -14 2 -14 -3 0 -7 -30 -50 -68 -96 -4 -5 -17 -25 -27
-42 -11 -18 -22 -33 -26 -33 -4 0 -12 -13 -19 -30 -7 -16 -15 -30 -19 -30 -4
0 -15 -15 -26 -32 -10 -18 -53 -81 -94 -140 -42 -58 -97 -137 -123 -175 -26
-37 -90 -130 -142 -205 -52 -76 -91 -138 -88 -138 4 0 2 -4 -3 -8 -15 -10 -55
-68 -55 -79 1 -4 15 8 32 27 17 19 27 29 23 22 -3 -7 24 8 62 33 37 25 88 59
113 75 25 16 50 33 55 37 6 5 60 41 120 81 61 39 115 75 120 80 6 4 52 35 102
68 51 34 89 64 85 68 -4 4 -2 7 3 6 19 -4 34 0 47 13 7 7 49 37 93 66 44 29
80 57 80 61 0 5 4 12 9 17 5 5 6 2 1 -6 -5 -9 -3 -12 6 -9 8 3 13 10 12 16 -2
6 3 9 11 6 7 -3 20 1 27 8 20 19 126 90 182 122 l47 28 -1 101 c-1 56 -5 113
-9 127 l-8 25 -1 -24 c-1 -13 -4 -21 -8 -18 -5 6 -8 17 -12 60 -1 5 -5 6 -11
2 -5 -3 -24 8 -42 24 -25 23 -29 30 -15 31 9 0 17 4 17 8 0 17 -37 42 -53 36
-9 -3 -24 3 -36 15 -26 26 -55 27 -81 1 -27 -27 -40 -25 -40 5 0 19 -4 23 -17
18 -16 -6 -16 -4 1 15 11 12 16 25 12 30 -4 4 -14 -2 -22 -12 -7 -11 -17 -17
-20 -13 -4 4 -1 13 6 22 7 8 10 15 7 15 -2 0 -10 -7 -17 -15z m-69 -158 c-10
-9 -11 -8 -5 6 3 10 9 15 12 12 3 -3 0 -11 -7 -18z m366 -69 c-3 -8 -6 -5 -6
6 -1 11 2 17 5 13 3 -3 4 -12 1 -19z m8 -240 c-9 -6 -19 -7 -22 -4 -4 3 -1 6
6 6 7 0 9 4 6 10 -4 6 1 7 11 3 15 -6 15 -7 -1 -15z"/>
<path d="M3890 3901 c0 -17 18 -21 24 -6 3 9 0 15 -9 15 -8 0 -15 -4 -15 -9z"/>
<path d="M3932 3870 c0 -14 2 -19 5 -12 2 6 2 18 0 25 -3 6 -5 1 -5 -13z"/>
<path d="M3270 5531 c0 -6 4 -13 10 -16 6 -3 7 1 4 9 -7 18 -14 21 -14 7z"/>
<path d="M5420 5326 c0 -2 8 -10 18 -17 15 -13 16 -12 3 4 -13 16 -21 21 -21
13z"/>
<path d="M5392 3624 c10 -10 20 -16 22 -13 3 3 -5 11 -17 18 -21 13 -21 12 -5
-5z"/>
<path d="M5456 3582 c-4 -7 -4 -12 1 -13 4 0 16 -2 26 -4 9 -2 15 1 11 6 -3 5
-9 7 -14 4 -4 -3 -10 0 -12 7 -3 9 -6 9 -12 0z"/>
<path d="M5804 3530 c0 -13 4 -16 10 -10 7 7 7 13 0 20 -6 6 -10 3 -10 -10z"/>
<path d="M5880 3480 c-18 -12 -2 -12 25 0 13 6 15 9 5 9 -8 0 -22 -4 -30 -9z"/>
<path d="M2224 3566 c1 -8 5 -18 8 -22 4 -3 5 1 4 10 -1 8 -5 18 -8 22 -4 3
-5 -1 -4 -10z"/>
<path d="M2110 3450 c-9 -6 -10 -10 -3 -10 6 0 15 5 18 10 8 12 4 12 -15 0z"/>
<path d="M2303 3435 c0 -7 6 -11 14 -8 7 3 13 6 13 8 0 2 -6 5 -13 8 -8 3 -14
-1 -14 -8z"/>
<path d="M5047 6479 c7 -7 15 -10 18 -7 3 3 -2 9 -12 12 -14 6 -15 5 -6 -5z"/>
<path d="M5140 6435 c14 -8 30 -14 35 -14 6 0 -1 6 -15 14 -14 8 -29 14 -35
14 -5 0 1 -6 15 -14z"/>
<path d="M5240 6386 c0 -2 26 -19 58 -38 31 -19 69 -42 85 -52 15 -10 27 -15
27 -12 0 4 -30 26 -67 50 -64 40 -103 60 -103 52z"/>
<path d="M5420 6276 c0 -2 8 -10 18 -17 15 -13 16 -12 3 4 -13 16 -21 21 -21
13z"/>
<path d="M970 4758 c-12 -22 -12 -22 6 -6 10 10 15 20 12 24 -4 3 -12 -5 -18
-18z"/>
<path d="M913 3998 c-22 -29 -24 -41 -3 -20 12 13 20 25 17 28 -2 2 -9 -1 -14
-8z"/>
<path d="M7155 3800 c-10 -11 -16 -23 -13 -26 7 -6 38 24 38 37 0 13 -5 11
-25 -11z"/>
<path d="M565 3320 c3 -5 8 -10 11 -10 2 0 4 5 4 10 0 6 -5 10 -11 10 -5 0 -7
-4 -4 -10z"/>
<path d="M1115 2620 c11 -10 37 -26 58 -35 l38 -16 -16 31 c-16 31 -32 42 -21
15 7 -20 -4 -19 -34 5 -32 25 -50 26 -25 0z"/>
<path d="M4743 1505 c-17 -14 -64 -45 -104 -70 -73 -45 -89 -65 -20 -24 93 55
181 119 164 119 -4 0 -22 -11 -40 -25z"/>
<path d="M3994 963 c3 -19 86 -83 98 -76 4 2 5 -2 3 -9 -3 -8 12 -29 32 -48
38 -35 38 -35 9 -2 -20 21 -25 32 -15 32 9 1 4 9 -13 23 -43 35 -82 62 -89 60
-4 -1 -6 5 -5 14 0 9 -4 18 -11 20 -6 2 -10 -4 -9 -14z"/>
<path d="M4240 732 c0 -12 19 -26 26 -19 2 2 -2 10 -11 17 -9 8 -15 8 -15 2z"/>
<path d="M7771 3150 c-23 -91 -106 -338 -151 -450 -152 -381 -438 -799 -779
-1140 -343 -342 -663 -573 -1066 -770 -512 -250 -953 -366 -1545 -407 -211
-14 -276 -15 -465 -5 -278 15 -601 63 -800 118 -27 7 -91 25 -141 39 -631 174
-1269 549 -1744 1025 -422 422 -697 862 -876 1400 -39 119 -42 74 -3 -62 20
-72 35 -151 40 -218 11 -149 45 -260 109 -355 14 -22 37 -65 49 -95 42 -99
100 -204 151 -270 28 -36 87 -119 132 -185 133 -197 179 -252 348 -423 182
-183 304 -291 465 -412 111 -83 329 -230 341 -230 3 0 32 -15 63 -34 376 -226
896 -408 1401 -490 422 -69 884 -72 1320 -10 25 4 43 4 40 1 -3 -3 -41 -10
-85 -17 -437 -61 -791 -66 -1165 -14 -101 14 -132 19 -360 64 -82 17 -310 79
-430 118 -8 2 -6 -3 6 -11 31 -24 136 -61 244 -87 52 -13 147 -36 210 -52 244
-62 406 -88 555 -88 66 -1 140 -5 165 -10 83 -18 234 -23 355 -11 66 6 163 13
215 16 52 2 140 11 195 20 55 9 144 23 199 31 54 8 151 32 215 53 64 21 150
46 191 56 41 10 116 37 166 61 50 24 122 55 160 70 38 14 101 43 139 64 39 20
95 45 125 55 152 48 357 164 520 293 19 16 80 58 135 94 144 95 541 477 658
633 25 33 64 85 88 115 74 95 224 312 270 390 137 233 243 527 288 800 12 69
33 175 47 237 26 114 30 192 5 93z m-3008 -2957 c-7 -2 -19 -2 -25 0 -7 3 -2
5 12 5 14 0 19 -2 13 -5z"/>
<path d="M2570 340 c8 -5 20 -10 25 -10 6 0 3 5 -5 10 -8 5 -19 10 -25 10 -5
0 -3 -5 5 -10z"/>
<path d="M3963 43 c9 -2 23 -2 30 0 6 3 -1 5 -18 5 -16 0 -22 -2 -12 -5z"/>
</g>
</svg>
