<?xml version="1.0" standalone="no"?>
<!DOCTYPE svg PUBLIC "-//W3C//DTD SVG 20010904//EN"
 "http://www.w3.org/TR/2001/REC-SVG-20010904/DTD/svg10.dtd">
<svg version="1.0" xmlns="http://www.w3.org/2000/svg"
 width="657.000000pt" height="707.000000pt" viewBox="0 0 657.000000 707.000000"
 preserveAspectRatio="xMidYMid meet">

<g transform="translate(0.000000,707.000000) scale(0.100000,-0.100000)"
fill="#000000" stroke="none">
<path d="M3060 6944 c-451 -39 -959 -207 -1370 -454 -170 -102 -326 -214 -440
-316 -143 -128 -304 -288 -343 -341 -54 -74 -62 -83 -73 -83 -17 0 -54 -44
-59 -70 -3 -13 -10 -28 -16 -34 -8 -8 -8 -4 0 14 12 24 11 24 -13 -3 -14 -15
-26 -33 -26 -40 0 -7 4 -6 11 3 9 13 10 13 6 0 -2 -8 -10 -15 -17 -15 -42 0
-322 -488 -408 -710 -176 -455 -227 -1028 -137 -1543 105 -601 395 -1156 841
-1607 101 -102 291 -270 341 -302 15 -9 46 -32 68 -49 66 -52 342 -223 460
-285 181 -94 420 -190 660 -264 66 -21 124 -40 129 -43 24 -13 -34 -17 -84 -6
-137 32 -150 36 -144 46 4 7 2 8 -4 4 -6 -4 -30 2 -54 14 -23 11 -50 20 -60
20 -10 0 -18 5 -18 10 0 6 -10 10 -23 10 -13 0 -27 4 -33 9 -5 6 -55 25 -111
44 -57 18 -100 37 -96 40 3 4 -1 7 -9 7 -9 0 -41 13 -71 29 -31 16 -58 27 -61
23 -3 -3 -6 0 -6 7 0 7 -4 9 -10 6 -5 -3 -25 8 -42 24 -18 17 -38 31 -45 31
-6 0 -18 6 -25 13 -7 7 -16 14 -21 15 -13 3 -72 35 -77 42 -3 4 -30 22 -60 41
-30 18 -57 36 -60 39 -3 3 -23 14 -45 25 -22 10 -62 38 -89 62 -26 23 -52 43
-57 43 -12 0 -45 27 -107 89 -30 29 -51 47 -47 40 5 -8 -5 -2 -22 14 -16 15
-33 24 -38 20 -4 -5 -5 -3 -2 3 3 6 -9 25 -28 42 -19 16 -35 27 -35 24 0 -4
-8 7 -18 23 -19 30 -52 63 -52 51 0 -3 -9 3 -20 14 -11 11 -19 22 -17 23 6 9
-26 36 -36 30 -5 -3 -8 -2 -5 3 3 5 0 15 -8 22 -8 7 -14 9 -14 5 0 -4 -8 4
-18 19 -10 15 -36 46 -58 70 -44 47 -106 128 -170 219 -22 32 -44 57 -47 54
-4 -3 -5 -2 -2 1 7 11 -15 45 -25 39 -6 -3 -7 1 -4 9 3 9 1 16 -5 16 -6 0 -11
7 -11 15 0 8 -4 15 -8 15 -8 0 -76 114 -146 245 -6 11 -15 27 -21 35 -5 8 -10
20 -11 26 -1 6 -15 39 -32 75 -47 101 -62 136 -62 145 0 4 -6 15 -14 23 -8 9
-16 30 -18 46 -1 17 -7 33 -12 36 -4 4 -14 29 -21 55 -8 27 -25 81 -39 119
-15 39 -31 95 -36 125 -19 106 -38 177 -39 145 0 -27 18 -148 48 -315 6 -30
15 -83 21 -118 21 -118 92 -279 244 -551 26 -46 61 -112 77 -147 17 -36 44
-79 60 -97 16 -18 32 -43 36 -57 10 -44 43 -101 82 -143 21 -23 52 -69 69
-102 44 -87 236 -275 313 -308 19 -8 50 -33 67 -55 18 -22 52 -52 76 -66 24
-14 53 -40 64 -58 12 -18 33 -45 49 -60 40 -38 199 -126 240 -134 22 -4 56
-25 88 -54 29 -26 70 -53 91 -60 22 -7 75 -32 119 -55 44 -24 127 -57 185 -75
58 -17 139 -47 180 -65 87 -39 161 -60 190 -52 33 9 179 -29 219 -57 43 -30
60 -34 40 -9 -15 18 66 -25 109 -58 27 -21 73 -77 53 -65 -23 15 0 -19 70
-101 67 -79 214 -188 331 -245 59 -28 82 -53 93 -100 10 -40 37 -61 66 -49 13
5 71 51 130 102 58 52 145 122 195 157 248 176 259 182 329 202 273 79 406
134 485 200 39 33 61 43 121 54 86 17 154 44 224 90 28 19 88 53 135 76 112
56 271 177 450 342 375 346 545 555 693 848 61 121 187 439 187 471 0 7 7 35
14 63 27 92 46 172 46 187 -1 8 -21 -35 -45 -94 -107 -264 -222 -475 -372
-684 -137 -193 -182 -244 -387 -448 -329 -327 -732 -596 -1135 -759 -116 -48
-387 -141 -438 -151 -54 -11 -144 -59 -223 -120 -41 -31 -156 -118 -255 -192
-99 -75 -195 -149 -213 -164 -18 -16 -34 -29 -36 -29 -2 0 -1 11 2 25 2 14 8
22 13 19 5 -3 6 3 2 12 -5 13 -2 16 9 11 12 -4 14 -1 11 13 -3 10 1 21 8 25 8
6 10 4 4 -5 -5 -8 -4 -11 3 -6 6 4 8 14 5 23 -5 13 -2 15 11 10 11 -4 15 -3
10 4 -4 6 0 15 7 20 9 6 10 9 2 9 -6 0 -18 -6 -25 -13 -33 -32 -86 -67 -90
-58 -3 9 -311 257 -535 431 l-51 40 64 62 c35 33 64 64 64 67 0 3 -51 17 -113
30 -357 76 -663 209 -1037 452 -174 113 -236 161 -355 271 -34 32 -79 72 -100
88 -105 83 -346 356 -449 509 -260 385 -388 703 -473 1181 -26 145 -28 173
-28 445 0 190 4 314 13 360 30 169 52 316 53 357 1 40 2 41 9 13 8 -30 8 -30
9 -3 0 14 4 34 8 44 5 13 3 15 -7 9 -10 -6 -11 -3 -6 16 4 13 18 62 31 109 32
119 67 207 127 325 49 97 60 95 23 -5 -19 -51 -35 -100 -36 -109 0 -13 -2 -12
-8 3 -6 15 -11 7 -25 -37 -10 -32 -21 -59 -26 -62 -4 -3 -11 -29 -15 -60 -3
-30 -10 -57 -15 -60 -4 -2 -11 -26 -15 -52 -4 -27 -20 -102 -35 -168 -44 -187
-73 -459 -73 -670 0 -189 35 -518 69 -648 113 -439 270 -763 543 -1121 159
-208 268 -319 491 -500 393 -318 802 -524 1320 -667 78 -21 180 -25 180 -6 -1
6 -28 50 -61 97 -32 47 -66 100 -74 117 -9 18 -20 33 -26 33 -6 0 -9 7 -6 14
4 11 1 13 -10 9 -11 -4 -14 -2 -11 8 3 10 32 15 114 20 60 3 96 6 79 7 -16 1
-37 7 -45 13 -12 8 -10 9 9 4 16 -5 21 -4 17 4 -4 6 -24 11 -45 11 -44 0 -101
18 -101 32 0 5 10 7 23 3 12 -3 -5 8 -38 24 -34 17 -68 28 -79 24 -14 -4 -18
-1 -13 10 4 12 2 14 -10 10 -12 -5 -14 -3 -8 7 6 10 3 12 -13 8 -12 -4 -20 -3
-17 1 5 9 -38 31 -60 31 -8 0 -15 4 -15 10 0 5 -3 9 -7 9 -20 -3 -33 2 -30 12
1 6 -4 14 -12 17 -9 3 -11 0 -6 -8 4 -7 -4 -4 -19 5 -25 17 -38 34 -14 19 7
-4 8 -3 4 5 -4 6 -11 9 -16 6 -14 -9 -61 25 -53 38 4 6 0 8 -10 4 -11 -4 -17
-1 -17 7 0 11 -28 32 -129 93 -21 13 -22 17 -8 30 13 13 25 7 108 -55 52 -38
130 -93 174 -122 84 -55 336 -181 442 -221 34 -13 60 -26 58 -29 -2 -3 30 -6
70 -8 71 -3 74 -2 91 25 10 15 52 70 93 122 l75 93 34 -38 c18 -22 63 -77 100
-123 l67 -83 68 5 c104 9 307 101 531 242 115 72 269 182 274 197 6 14 23 9
43 -15 27 -31 44 -61 30 -53 -6 4 -53 -24 -104 -63 -134 -101 -424 -270 -510
-297 l-42 -13 53 0 c37 -1 54 -5 58 -16 7 -17 5 -20 -106 -165 -44 -58 -78
-109 -77 -115 17 -52 395 52 721 198 559 251 1038 637 1342 1083 417 610 586
1257 518 1984 -7 76 -32 225 -49 285 -7 28 -19 77 -26 110 l-12 60 -12 -75
c-7 -41 -20 -92 -29 -114 -58 -139 -203 -236 -353 -236 -47 0 -54 2 -49 18 3
9 12 46 21 81 23 91 43 138 87 204 46 68 88 97 214 144 52 20 94 39 94 43 0
14 -70 200 -88 237 l-19 36 -6 -56 c-9 -94 -56 -175 -150 -261 -72 -67 -109
-94 -93 -68 3 5 10 90 15 190 7 114 16 195 25 217 16 37 18 92 4 101 -4 3 -8
29 -8 57 l0 52 21 -45 c11 -25 18 -55 16 -67 -6 -32 4 -28 38 17 17 21 35 39
42 40 9 0 8 9 -3 35 -20 48 -102 175 -113 175 -4 0 -23 26 -40 58 -90 162
-321 428 -512 589 -25 21 -67 57 -95 80 -403 339 -968 595 -1494 678 -244 38
-629 36 -864 -5 -329 -58 -605 -151 -921 -311 -184 -93 -186 -95 -393 -248
-192 -143 -282 -222 -461 -405 -174 -177 -234 -247 -291 -336 -27 -41 -63 -98
-81 -127 -19 -28 -38 -51 -43 -50 -6 1 -12 -8 -14 -20 -2 -13 -7 -23 -11 -23
-4 0 -8 -6 -8 -12 -1 -7 -6 -28 -12 -46 -9 -31 -7 -36 30 -75 79 -83 94 -140
124 -467 l6 -65 -20 25 c-11 14 -24 34 -27 44 -4 11 -18 29 -33 42 -90 76
-126 131 -148 225 -15 67 -15 77 3 158 10 47 17 92 16 99 -3 14 66 146 132
252 186 300 535 652 871 880 36 25 92 65 123 89 55 41 103 71 119 72 10 1 52
19 171 75 51 24 98 44 103 44 6 0 25 6 42 14 240 109 604 206 885 235 132 14
444 14 570 1 447 -49 896 -202 1289 -441 370 -225 708 -529 948 -854 250 -338
420 -710 495 -1085 16 -80 31 -156 34 -170 3 -14 2 9 -1 50 -3 41 -6 92 -6
112 -1 22 -4 33 -9 25 -4 -7 -8 8 -8 34 0 26 -3 61 -7 80 -5 29 -7 30 -15 14
-6 -15 -7 -11 -4 12 7 46 -76 287 -160 464 -164 345 -320 571 -569 828 -286
295 -592 515 -965 695 -294 141 -608 238 -919 282 -101 14 -521 27 -621 18z
m301 -515 l41 -77 126 -1 c70 -1 131 -6 136 -11 12 -12 16 -10 -84 -57 -117
-56 -126 -64 -110 -93 14 -26 69 -216 70 -239 0 -21 -159 148 -181 192 -11 21
-24 35 -29 32 -6 -4 -10 3 -10 14 0 11 -4 22 -9 25 -4 3 -6 -5 -4 -18 9 -46
-22 -93 -84 -126 -32 -17 -73 -40 -92 -52 -42 -27 -42 -26 68 137 45 65 81
122 81 125 0 11 -99 29 -190 35 -47 3 -105 9 -130 12 l-45 7 70 7 c39 4 100 7
137 8 55 1 68 4 72 19 4 10 22 45 41 77 20 32 38 69 42 83 l6 25 18 -24 c10
-13 37 -58 60 -100z m-1048 -306 c22 -47 23 -48 77 -53 l55 -5 -29 -22 c-16
-13 -33 -23 -39 -23 -10 0 -5 -63 8 -107 5 -15 -6 -8 -42 26 -26 25 -56 59
-66 74 -12 18 -26 27 -45 27 -45 0 -102 12 -102 21 0 5 24 9 53 9 l53 0 21 50
c12 28 24 50 27 50 4 0 16 -21 29 -47z m1992 -3 c25 -50 25 -50 75 -50 28 0
50 -3 50 -7 0 -5 -16 -19 -36 -32 -38 -26 -38 -25 -18 -107 l7 -29 -44 40
c-24 22 -47 46 -52 53 -6 9 -15 4 -33 -18 -14 -16 -29 -30 -33 -30 -4 0 -7 19
-7 43 1 41 0 42 -41 57 -24 8 -43 18 -43 22 0 4 23 8 50 8 40 0 52 4 56 18 10
31 34 82 39 82 2 0 16 -22 30 -50z m-2025 -123 c0 -2 -11 -14 -25 -27 l-25
-23 13 26 c6 15 18 27 25 27 6 0 12 -1 12 -3z m-900 -11 c0 -2 -8 -10 -17 -17
-16 -13 -17 -12 -4 4 13 16 21 21 21 13z m-302 -240 c19 -32 52 -145 52 -179
0 -35 -52 -178 -74 -204 -29 -34 -46 -23 -66 39 -8 24 -17 48 -22 54 -19 26
-21 113 -3 166 13 39 81 157 92 158 0 0 10 -15 21 -34z m4485 -43 c19 -32 54
-108 78 -169 41 -107 44 -111 64 -98 11 7 29 27 40 44 11 16 23 30 26 30 13 0
50 -105 61 -172 18 -113 -18 -255 -91 -347 l-18 -24 -18 26 c-9 14 -28 59 -42
99 -28 80 -34 172 -19 291 7 49 6 67 -3 67 -6 0 -11 8 -12 18 0 9 -8 -8 -18
-39 -18 -57 -60 -139 -71 -139 -12 0 -41 61 -76 157 -26 72 -35 109 -31 139 4
41 71 174 87 174 5 0 24 -26 43 -57z m-4114 -65 c-19 -121 -70 -188 -188 -247
-74 -38 -81 -38 -50 -5 l24 26 -30 -8 c-16 -4 -36 -12 -44 -18 -12 -9 -13 -4
-9 32 4 24 2 40 -3 36 -5 -3 -9 -15 -9 -27 0 -12 -5 -29 -11 -37 -15 -21 -1
75 17 119 20 47 79 118 115 136 38 20 126 44 165 44 l31 1 -8 -52z m3781 36
c107 -32 182 -108 200 -205 6 -29 8 -54 5 -57 -5 -6 -35 61 -35 79 0 7 -3 10
-6 7 -3 -4 2 -34 12 -67 9 -34 14 -64 11 -67 -14 -14 -180 88 -220 136 -14 16
-28 27 -31 24 -3 -2 -4 -2 -2 2 2 3 -9 35 -25 72 -16 37 -29 73 -29 80 0 17
55 15 120 -4z m-1765 -144 c280 -16 514 -53 650 -101 95 -34 95 -36 90 -207
-3 -80 -3 -153 0 -162 5 -15 18 -16 104 -12 143 7 205 -21 254 -112 31 -59 30
-210 -2 -316 -29 -93 -88 -213 -149 -305 -61 -91 -214 -245 -274 -275 -47 -24
-48 -24 -62 -5 -14 19 -15 19 -22 2 -5 -15 -9 -16 -15 -5 -6 9 -12 4 -20 -20
-27 -77 -104 -222 -154 -289 -96 -127 -226 -241 -333 -290 -62 -29 -95 -25
-37 4 110 57 262 196 319 292 11 20 36 58 53 85 52 76 116 215 115 247 0 16 3
27 8 24 4 -3 6 4 3 16 -3 12 0 24 6 29 7 4 15 22 18 41 3 19 11 49 19 68 8 18
14 45 14 60 0 20 2 23 10 11 11 -17 12 -12 15 95 2 45 0 53 -6 32 -4 -16 -5
-36 -2 -44 4 -10 2 -14 -4 -10 -5 3 -19 -34 -33 -91 -72 -298 -272 -582 -454
-642 -60 -19 -124 0 -181 55 -42 41 -115 249 -117 335 -1 25 -6 51 -11 58 -7
9 -6 17 1 24 7 7 12 22 12 33 0 41 56 66 95 43 19 -11 150 -18 180 -10 20 5
35 19 45 41 9 17 19 29 23 25 4 -4 7 -2 7 5 0 7 -30 54 -68 105 -37 50 -84
116 -103 146 -131 200 -153 230 -162 218 -6 -9 -7 -6 -4 9 3 13 1 25 -3 28
-13 8 -187 31 -335 46 -71 6 -134 15 -138 19 -4 4 14 10 40 13 26 3 104 13
173 22 69 9 126 19 128 23 1 4 7 14 12 22 9 13 11 13 21 0 9 -13 10 -12 5 3
-3 9 5 41 18 70 13 28 29 67 36 85 7 17 16 32 20 32 3 0 11 16 17 35 6 19 10
35 8 35 -1 0 -17 -25 -36 -54 -18 -30 -36 -53 -39 -51 -4 3 -26 -14 -49 -37
-33 -34 -41 -38 -41 -22 0 15 -2 16 -9 5 -12 -18 -34 -9 -48 20 -13 27 -42
124 -46 154 -1 11 -12 39 -24 62 -12 23 -25 57 -28 77 -4 19 -19 49 -34 65
-14 16 -31 36 -38 44 -28 34 -249 29 -355 -9 -23 -8 -52 -14 -67 -14 -48 1 66
39 194 64 188 38 273 47 595 64 14 1 102 -3 195 -8z m-2616 -72 c103 -107 118
-233 50 -413 l-21 -57 -37 58 c-88 142 -109 258 -71 387 13 42 24 77 26 77 1
0 25 -24 53 -52z m3621 -55 c86 -103 122 -158 179 -271 167 -332 169 -697 6
-1022 -53 -106 -137 -229 -213 -311 -122 -132 -367 -294 -474 -314 -63 -12
-45 11 45 56 146 74 246 147 372 274 138 138 211 247 274 409 50 128 71 231
78 376 5 103 2 129 -25 252 -49 219 -137 395 -270 540 -64 70 -79 98 -53 98 5
0 41 -39 81 -87z m-2270 59 c0 -10 -16 -34 -36 -53 -144 -138 -261 -369 -300
-590 -22 -127 -14 -360 15 -474 55 -208 216 -455 402 -615 38 -33 66 -60 61
-60 -4 0 -51 38 -105 85 -161 142 -299 348 -362 540 -28 87 -55 265 -55 365 0
274 108 552 295 758 57 63 85 77 85 44z m223 -84 c-11 -13 -23 -30 -26 -38 -4
-10 -6 -8 -6 7 -1 12 9 29 21 37 31 22 35 20 11 -6z m-1020 -155 c-35 -115
-67 -164 -136 -212 -63 -43 -181 -81 -218 -71 -16 5 -38 7 -49 5 -25 -5 -25 9
-4 83 22 76 60 131 114 164 49 30 212 77 271 78 l36 0 -14 -47z m3939 15 c123
-32 206 -104 247 -212 26 -71 36 -126 22 -126 -25 0 -228 73 -256 93 -48 33
-95 79 -121 119 -22 35 -64 133 -64 151 0 11 78 0 172 -25z m-2965 -201 c6 -4
9 -16 6 -26 -4 -15 -16 -20 -62 -23 -67 -5 -146 -41 -175 -80 -83 -115 45
-453 273 -717 39 -46 70 -86 67 -88 -15 -15 -258 207 -306 279 -14 21 -28 38
-32 38 -5 0 -8 6 -8 14 0 8 -4 18 -10 21 -6 3 -7 -1 -4 -12 3 -10 -2 -7 -10 7
-8 14 -16 36 -16 50 0 14 -5 32 -11 40 -8 12 -9 9 -5 -10 15 -67 -39 77 -60
160 -21 81 -23 104 -15 156 16 102 56 161 132 194 26 11 218 8 236 -3z m-1082
-239 c-15 -157 -38 -212 -124 -296 -51 -49 -183 -139 -232 -157 -12 -5 -19 12
-33 85 -31 148 -10 240 70 310 46 40 95 62 199 90 44 12 82 23 84 26 2 2 13 4
23 4 17 0 18 -6 13 -62z m4104 32 c63 -17 134 -41 157 -55 50 -29 132 -118
140 -151 3 -13 10 -22 14 -19 18 11 37 -105 21 -132 -9 -15 -11 -10 -12 27 -1
41 -2 40 -10 -20 -5 -36 -14 -84 -21 -107 l-13 -41 -110 72 c-169 112 -230
183 -259 301 -15 62 -30 155 -24 155 2 0 54 -14 117 -30z m-4733 -221 c20 -19
51 -56 70 -84 35 -50 94 -214 94 -259 l0 -24 -57 18 c-124 38 -239 101 -227
123 4 7 4 9 -1 5 -11 -10 -56 38 -88 93 -29 49 -57 165 -57 233 l0 42 115 -56
c63 -31 131 -72 151 -91z m649 -296 c7 -90 6 -103 -21 -187 -39 -123 -101
-216 -200 -299 l-79 -67 -9 28 c-5 14 -21 49 -36 77 -15 27 -35 79 -45 115
-37 136 8 249 128 324 25 15 232 103 249 105 3 1 9 -43 13 -96z m4066 52 c193
-74 268 -132 308 -241 33 -86 31 -147 -7 -209 -16 -27 -40 -70 -53 -94 -13
-25 -29 -46 -34 -48 -16 -5 -177 158 -220 223 -46 69 -81 174 -89 269 -4 39
-9 85 -12 103 -3 17 -1 32 5 32 5 0 51 -16 102 -35z m-4820 -32 c13 -16 12
-17 -3 -4 -10 7 -18 15 -18 17 0 8 8 3 21 -13z m-82 -160 c132 -42 196 -79
262 -151 65 -70 176 -298 156 -318 -12 -12 -218 44 -285 77 -135 66 -219 177
-262 344 -11 42 -22 80 -26 86 -7 12 21 5 155 -38z m5787 30 c-3 -10 -12 -50
-20 -88 -51 -243 -212 -378 -468 -392 -63 -4 -98 -2 -98 4 0 19 57 148 90 203
39 67 101 136 152 172 45 31 151 72 223 87 28 5 61 14 75 20 38 15 52 13 46
-6z m-4515 -180 c28 -87 79 -190 138 -277 59 -89 223 -260 309 -325 74 -54
249 -160 300 -180 18 -8 30 -16 28 -19 -3 -2 -42 15 -88 38 -327 166 -570 412
-682 690 -42 102 -52 140 -38 140 6 0 20 -30 33 -67z m3118 58 c11 -7 10 -21
-9 -82 -109 -359 -472 -699 -895 -838 -129 -42 -158 -47 -153 -27 2 11 37 28
98 50 207 72 340 143 495 264 203 157 348 355 416 570 24 75 25 77 48 63z
m-4622 -128 c-2 -21 -4 -6 -4 32 0 39 2 55 4 38 2 -18 2 -50 0 -70z m1237
-328 c-14 -176 -70 -302 -191 -428 l-45 -48 -22 30 c-12 16 -46 77 -76 136
-54 104 -55 108 -54 189 1 156 65 237 264 336 l115 58 7 -102 c4 -55 5 -132 2
-171z m3749 203 c143 -72 230 -151 287 -258 30 -56 35 -74 34 -131 -1 -39 -8
-77 -17 -95 -17 -31 -20 -26 -19 41 l1 30 -8 -32 c-10 -40 -63 -134 -109 -196
l-36 -47 -38 37 c-118 115 -197 275 -217 443 -12 90 -15 270 -5 270 3 0 60
-28 127 -62z m-4613 -294 c186 -25 300 -103 439 -299 89 -126 89 -125 0 -125
-108 1 -210 16 -291 44 -75 26 -198 104 -222 140 -7 12 -25 32 -38 46 -14 14
-46 66 -73 115 -26 50 -51 95 -56 101 -9 10 29 7 241 -22z m5620 27 c0 -5 -7
-14 -16 -22 -9 -7 -31 -43 -49 -79 -87 -173 -214 -283 -375 -325 -50 -13 -93
-16 -190 -13 -77 3 -125 9 -128 16 -2 6 -11 8 -20 4 -15 -5 -15 -3 2 23 94
148 216 274 306 317 67 31 168 54 315 72 140 17 155 18 155 7z m-2813 -188
c40 -18 48 -40 26 -65 -14 -16 -26 -19 -58 -14 -68 10 -115 26 -115 41 0 8
-10 21 -21 29 -21 15 -21 15 12 25 41 11 112 4 156 -16z m-1733 -68 c4 -19 22
-73 41 -119 58 -145 68 -188 63 -296 -3 -93 -6 -103 -50 -192 -26 -51 -58
-106 -71 -123 -22 -26 -26 -28 -42 -15 -42 34 -150 180 -179 240 -28 59 -31
74 -31 165 0 113 16 161 76 230 43 48 159 145 175 145 6 0 15 -16 18 -35z
m3335 -70 c60 -55 126 -143 163 -217 25 -50 32 -79 36 -143 4 -67 2 -78 -9
-67 -8 7 -14 18 -15 25 0 7 -2 26 -3 42 -2 24 -6 18 -17 -30 -8 -32 -26 -79
-41 -105 -30 -52 -109 -154 -147 -189 -31 -29 -40 -23 -95 59 -86 127 -123
292 -96 424 8 39 28 106 45 149 16 43 33 96 36 117 l6 39 47 -32 c25 -17 66
-49 90 -72z m-3870 9 c29 -49 26 -57 -4 -12 -14 20 -25 39 -25 42 0 13 9 4 29
-30z m2355 -22 c48 -17 96 -60 96 -88 0 -9 -4 -13 -9 -9 -5 3 -61 8 -123 10
-98 5 -218 20 -223 27 -29 53 -36 58 -88 59 -75 1 -45 9 69 18 124 10 215 4
278 -17z m-70 -208 c9 -8 16 -21 16 -27 0 -7 4 -6 9 2 15 23 34 1 76 -87 20
-42 63 -114 96 -159 32 -45 59 -83 59 -86 0 -5 -17 -4 -240 11 -85 6 -193 14
-239 16 -93 6 -113 15 -90 43 8 10 20 29 27 42 8 13 23 40 35 60 11 20 36 68
55 106 19 39 39 76 44 83 16 18 133 16 152 -4z m-2564 -108 c149 -6 244 -28
325 -76 60 -36 335 -297 335 -319 0 -6 -10 -11 -22 -11 -13 -1 -70 -5 -128
-10 -327 -28 -525 74 -705 362 -17 27 -33 48 -37 48 -5 0 -8 4 -8 9 0 5 26 7
58 5 31 -2 113 -6 182 -8z m5070 4 c0 -6 -28 -54 -63 -108 -147 -226 -313
-321 -561 -322 -78 0 -187 19 -207 36 -9 8 -19 12 -22 9 -4 -3 -3 1 3 7 5 7
10 19 10 27 0 11 -5 9 -16 -7 -8 -12 -25 -27 -37 -33 -14 -8 -7 6 23 42 84
102 205 215 277 258 111 66 174 82 348 91 234 11 245 11 245 0z m-3690 -70 c0
-16 21 -94 47 -172 42 -129 46 -152 47 -238 0 -136 -37 -244 -132 -388 l-35
-53 -59 63 c-126 135 -188 267 -188 401 0 103 51 217 132 294 46 44 171 132
181 126 4 -2 7 -17 7 -33z m2251 -100 c94 -93 141 -167 158 -248 33 -158 -14
-288 -161 -444 l-66 -72 -24 30 c-45 56 -97 139 -124 197 -74 163 -73 279 2
520 13 43 24 96 24 118 l0 40 53 -28 c28 -15 91 -66 138 -113z m-811 -120
c104 -16 117 -25 140 -88 12 -31 24 -68 27 -83 l5 -26 -59 8 c-107 15 -376 29
-540 29 -89 0 -167 2 -175 5 -9 4 -13 23 -11 61 1 50 -1 56 -24 65 -34 13
-183 11 -222 -2 -27 -10 -34 -19 -52 -79 -11 -38 -27 -71 -35 -74 -19 -7 -18
11 3 80 21 66 39 78 140 94 182 29 644 34 803 10z m990 -388 c-9 -13 -10 -2
-6 47 3 35 7 85 8 110 1 25 4 4 5 -47 2 -56 -1 -99 -7 -110z m-800 158 c114
-14 157 -30 170 -65 20 -53 7 -200 -17 -191 -8 4 -46 9 -84 12 -37 4 -66 10
-64 15 9 14 -375 38 -635 40 -74 0 -130 3 -123 5 21 9 -24 119 -52 131 -8 3
-13 9 -10 14 17 27 -176 38 -353 19 -166 -18 -181 -28 -183 -122 l-1 -53 -10
55 c-10 64 0 96 35 109 33 13 188 31 347 41 183 11 862 5 980 -10z m-2200
-138 c96 -41 169 -96 298 -224 117 -117 119 -109 -28 -128 -172 -22 -318 -15
-406 21 -16 7 -33 13 -39 14 -23 5 -104 47 -121 63 -10 9 -31 23 -47 31 -36
19 -129 110 -122 120 2 5 -3 8 -13 7 -9 0 -16 5 -14 13 3 17 -17 43 -29 35 -5
-3 -6 3 -2 12 4 12 2 15 -8 12 -7 -2 -18 -1 -24 4 -5 5 -19 15 -30 23 -18 13
-13 14 55 16 41 0 100 5 130 9 30 5 116 7 190 6 127 -2 139 -4 210 -34z m3643
26 c92 -7 166 -16 165 -20 -2 -4 -43 -50 -91 -102 -152 -165 -302 -247 -482
-266 -84 -9 -243 4 -259 20 -6 6 -22 10 -37 10 -15 0 -31 5 -35 11 -3 6 -17 9
-31 6 -22 -4 -21 -2 12 31 19 19 35 40 35 46 0 8 -2 8 -8 0 -4 -6 -18 -17 -31
-24 -19 -10 -14 0 20 40 96 115 240 210 369 244 69 18 161 19 373 4z m-3193
-276 c0 -10 -52 43 -62 63 -5 11 7 3 26 -19 20 -21 36 -41 36 -44z m2410 -36
c0 -2 -7 -7 -16 -10 -8 -3 -12 -2 -9 4 6 10 25 14 25 6z m-2591 -424 c171
-136 350 -257 535 -362 33 -19 55 -35 48 -38 -18 -6 -204 95 -333 180 -324
214 -329 217 -373 256 -20 18 -42 32 -48 32 -6 0 -3 9 7 20 10 11 20 20 23 20
2 0 66 -49 141 -108z m2841 83 c13 -14 22 -26 19 -28 -169 -130 -364 -259
-568 -376 -172 -99 -246 -135 -267 -127 -22 8 -11 20 54 56 187 105 595 386
697 479 28 26 38 25 65 -4z m-2091 -281 c2 -2 -3 -4 -11 -4 -9 0 -26 9 -39 20
l-24 21 35 -17 c19 -9 37 -18 39 -20z"/>
<path d="M4297 4971 c-70 -6 -96 -22 -98 -60 -1 -9 -5 -5 -9 9 -6 19 -8 10 -9
-35 -1 -64 -27 -356 -37 -415 -4 -19 -16 -80 -29 -135 -12 -55 -26 -124 -29
-153 -4 -29 -9 -60 -12 -70 -11 -35 171 165 221 243 67 103 140 255 160 330
22 88 20 190 -6 232 -17 28 -70 67 -81 61 -2 0 -34 -4 -71 -7z"/>
<path d="M4126 4938 c-8 -32 -7 -113 1 -104 7 7 15 126 8 126 -1 0 -5 -10 -9
-22z"/>
<path d="M3686 4760 c-55 -32 -113 -69 -130 -82 l-30 -24 21 -55 c12 -30 22
-47 22 -39 1 8 10 21 22 28 66 42 168 135 178 164 7 18 17 41 22 51 13 25 4
21 -105 -43z"/>
<path d="M4118 4813 c-2 -5 -1 -33 3 -63 l6 -55 1 63 c2 57 -1 74 -10 55z"/>
<path d="M4106 4643 c-4 -21 -2 -51 3 -68 9 -27 10 -25 9 20 -1 28 2 58 6 68
5 10 4 17 -2 17 -6 0 -13 -17 -16 -37z"/>
<path d="M6361 4144 c0 -11 3 -14 6 -6 3 7 2 16 -1 19 -3 4 -6 -2 -5 -13z"/>
<path d="M6372 3866 c3 -58 7 -108 9 -111 3 -3 7 42 8 99 1 70 -1 106 -9 111
-9 5 -11 -21 -8 -99z"/>
<path d="M6361 3690 c0 -30 4 -62 9 -70 12 -19 12 14 1 80 l-8 45 -2 -55z"/>
<path d="M6341 3515 c-7 -38 -24 -125 -37 -193 -71 -359 -247 -765 -468 -1082
-60 -86 -107 -151 -116 -160 -3 -3 -27 -32 -55 -65 -316 -379 -788 -715 -1311
-933 -140 -59 -358 -128 -457 -145 -38 -6 -71 -17 -74 -23 -2 -6 -16 -9 -31
-6 -26 4 -25 2 18 -42 24 -25 52 -48 62 -52 9 -3 66 9 125 27 338 100 708 272
913 425 52 38 122 88 155 111 174 119 531 466 681 663 88 114 229 340 307 490
106 204 219 495 199 514 -3 3 0 6 6 6 7 0 12 14 12 30 0 17 4 30 9 30 11 0 65
215 59 238 -1 4 4 39 11 78 7 39 11 91 9 115 -3 43 -3 43 -17 -26z"/>
<path d="M3262 1313 c-23 -33 -66 -118 -76 -150 -12 -37 10 -26 29 15 9 20 30
63 46 96 33 63 33 84 1 39z"/>
<path d="M2750 1185 c0 -5 5 -17 10 -25 5 -8 10 -10 10 -5 0 6 -5 17 -10 25
-5 8 -10 11 -10 5z"/>
<path d="M2920 1130 c0 -6 11 -27 24 -48 12 -20 23 -41 24 -45 0 -4 11 -25 23
-45 51 -83 54 -106 24 -202 -13 -45 -18 -82 -16 -132 2 -53 58 -42 170 35 60
41 104 39 184 -10 43 -26 76 -38 112 -41 47 -4 52 -2 63 23 15 32 22 18 -93
161 -44 55 -99 129 -123 166 -40 62 -47 67 -90 76 -26 6 -96 21 -157 33 l-110
24 60 6 60 6 -77 1 c-48 1 -78 -2 -78 -8z"/>
<path d="M3545 1074 c-49 -30 -94 -59 -98 -63 -9 -9 12 -61 25 -61 12 0 145
135 158 161 6 10 9 19 8 18 -2 0 -43 -25 -93 -55z"/>
<path d="M3437 433 c-4 -3 -7 -11 -7 -17 0 -6 5 -5 12 2 6 6 9 14 7 17 -3 3
-9 2 -12 -2z"/>
</g>
</svg>
