<?xml version="1.0" standalone="no"?>
<!DOCTYPE svg PUBLIC "-//W3C//DTD SVG 20010904//EN"
 "http://www.w3.org/TR/2001/REC-SVG-20010904/DTD/svg10.dtd">
<svg version="1.0" xmlns="http://www.w3.org/2000/svg"
 width="666.000000pt" height="646.000000pt" viewBox="0 0 666.000000 646.000000"
 preserveAspectRatio="xMidYMid meet">

<g transform="translate(0.000000,646.000000) scale(0.100000,-0.100000)"
fill="#000000" stroke="none">
<path d="M3150 6305 c0 -8 5 -15 11 -15 5 0 7 5 4 10 -3 6 -4 10 0 10 3 0 10
-10 15 -22 6 -17 9 -19 9 -6 1 12 6 15 18 11 10 -4 14 -2 10 4 -5 7 0 9 13 6
11 -3 20 -10 20 -15 0 -6 6 -5 15 2 8 6 20 10 27 7 9 -4 8 -6 -3 -6 -17 -1
-34 -41 -18 -41 5 0 9 7 9 16 0 8 5 12 10 9 6 -4 8 -15 5 -25 -3 -10 -2 -21 3
-24 5 -3 8 8 7 24 -2 41 9 57 28 41 10 -8 17 -9 22 -1 3 5 13 10 21 10 10 0
12 -5 8 -12 -6 -10 -4 -10 8 0 13 10 17 10 21 0 4 -8 6 -9 6 -1 1 6 10 9 24 6
33 -8 47 -22 40 -40 -5 -12 -3 -14 6 -8 8 4 17 2 22 -6 13 -21 11 -35 -3 -21
-18 18 -33 15 -17 -4 10 -13 10 -17 -1 -24 -8 -5 -11 -12 -7 -17 5 -4 12 -1
17 7 5 8 12 11 16 7 4 -3 1 -13 -6 -22 -16 -19 -4 -20 15 -1 8 7 11 23 9 34
-6 21 13 68 23 58 4 -3 0 -17 -7 -31 -14 -27 -9 -42 10 -30 9 6 9 9 0 15 -7 5
-2 9 14 12 21 4 24 3 15 -8 -8 -10 -8 -14 0 -14 6 0 11 -7 11 -16 0 -12 -6
-15 -21 -11 -12 3 -22 0 -25 -8 -3 -8 -19 -18 -35 -24 -18 -6 -27 -6 -24 -1 4
6 -3 10 -14 10 -12 0 -21 -4 -21 -10 0 -5 -3 -9 -7 -9 -5 1 -19 0 -33 -1 -16
-1 -20 -4 -10 -7 8 -3 18 -11 22 -17 5 -8 8 -7 8 2 0 6 6 12 14 12 8 0 17 -6
19 -12 4 -10 6 -10 6 -1 1 7 7 10 15 7 7 -3 20 2 29 10 19 19 38 21 35 4 -2
-7 3 -12 10 -10 6 1 12 -2 12 -8 0 -5 4 -10 9 -10 5 0 7 9 4 20 -3 10 -10 18
-15 17 -6 -1 -12 3 -15 9 -2 7 6 10 23 6 15 -3 29 0 34 8 4 7 13 9 20 5 9 -6
5 -12 -14 -22 -15 -8 -26 -17 -23 -20 3 -2 15 0 26 7 17 8 21 8 21 -3 0 -8 7
-20 15 -27 10 -9 15 -9 15 -1 0 6 -4 11 -10 11 -19 0 -10 17 18 31 15 8 31 18
35 24 5 5 5 0 2 -12 -7 -26 2 -29 28 -9 15 12 16 18 7 35 -14 28 -23 27 -15
-1 3 -13 3 -18 -2 -12 -16 21 -38 20 -56 -3 -22 -28 -32 -29 -34 -4 -1 14 4
18 20 14 18 -3 17 -1 -5 12 -16 8 -28 20 -28 25 0 5 -9 12 -20 15 -24 8 -25
21 -5 41 8 9 15 11 15 5 0 -6 7 -8 15 -5 8 4 15 1 15 -5 0 -6 7 -11 16 -11 10
0 14 6 11 14 -4 9 0 13 11 11 9 -2 21 -4 25 -4 5 -1 5 -7 2 -13 -4 -7 1 -4 9
6 19 23 20 20 5 -23 -6 -17 -15 -31 -20 -31 -5 0 -9 -4 -9 -10 0 -24 19 -6 35
33 10 23 20 37 22 30 2 -7 -1 -21 -7 -32 -7 -14 -7 -21 0 -21 5 0 10 -8 10
-17 0 -14 2 -15 9 -5 5 9 8 4 7 -16 -1 -17 -4 -28 -7 -26 -3 2 -15 -4 -25 -14
-24 -22 -57 -26 -50 -5 3 8 1 11 -5 8 -5 -4 -7 -15 -4 -25 3 -10 1 -21 -5 -25
-13 -8 -13 -25 -1 -25 5 0 13 10 16 21 6 17 9 19 16 8 7 -12 9 -11 9 1 0 12 2
12 8 2 7 -9 15 -10 35 -3 35 14 35 25 0 16 -23 -5 -25 -4 -14 9 16 19 41 21
41 4 0 -9 4 -8 10 2 5 8 10 20 10 25 0 6 -5 3 -10 -5 -6 -10 -10 -11 -10 -3 0
21 58 45 78 33 16 -11 16 -11 0 -6 -10 3 -25 3 -33 0 -17 -7 -21 -34 -4 -34 5
0 7 5 4 10 -3 6 -1 10 4 10 6 0 11 -6 11 -12 0 -9 3 -9 9 1 6 10 9 3 8 -22 -1
-22 -4 -32 -9 -24 -6 9 -8 8 -9 -3 0 -9 -4 -7 -11 8 -14 28 -19 28 -47 -4 -16
-18 -30 -25 -46 -22 -13 3 -30 1 -37 -3 -8 -6 4 -9 31 -9 27 0 51 6 62 16 17
15 18 15 16 -4 0 -11 -5 -18 -9 -16 -4 3 -8 0 -8 -5 0 -17 58 -13 68 5 8 14
10 14 21 0 11 -14 11 -16 -5 -17 -11 -1 13 -7 51 -14 39 -7 96 -21 128 -30 32
-8 62 -13 66 -10 5 3 11 1 13 -5 1 -5 39 -21 83 -34 80 -25 182 -64 324 -123
10 -5 12 -2 6 7 -6 9 -4 11 4 6 7 -5 10 -10 7 -13 -3 -3 14 -15 37 -27 204
-108 368 -212 516 -330 106 -83 327 -302 423 -418 394 -476 575 -1126 483
-1733 -50 -329 -180 -676 -349 -935 -377 -576 -1008 -1010 -1706 -1174 -239
-56 -375 -71 -660 -71 -276 0 -337 5 -568 52 -449 89 -928 321 -1277 617 -122
104 -406 392 -358 362 18 -10 16 -2 -7 47 l-21 42 23 -26 c13 -14 50 -59 83
-99 139 -168 408 -396 624 -528 112 -68 335 -183 436 -225 126 -52 343 -118
484 -147 225 -45 362 -60 569 -60 581 0 1106 157 1594 477 283 185 594 502
767 780 167 270 275 573 326 918 21 144 22 413 0 562 -44 309 -153 620 -305
868 -43 70 -47 80 -27 69 7 -4 9 -3 4 2 -5 5 -14 9 -20 9 -7 1 -11 6 -9 13 1
7 -2 11 -7 10 -5 -2 -36 33 -70 78 -68 92 -169 203 -283 313 -57 55 -75 78
-67 87 7 8 6 14 -2 20 -7 4 -9 3 -5 -4 3 -6 2 -13 -3 -16 -5 -4 -38 18 -73 47
-257 217 -594 403 -908 502 -319 100 -615 141 -965 132 -237 -6 -345 -19 -561
-67 -361 -79 -667 -209 -964 -409 -215 -144 -291 -209 -474 -401 -127 -134
-141 -151 -245 -308 -203 -304 -303 -554 -361 -902 -11 -69 -24 -177 -28 -240
l-7 -115 -6 110 c-5 107 -5 106 -7 -52 -1 -90 2 -163 7 -163 5 0 11 -9 14 -20
3 -11 1 -20 -4 -20 -5 0 -10 8 -10 18 -1 9 -4 4 -8 -13 -10 -41 -21 198 -15
300 3 44 12 126 20 183 8 57 12 107 9 113 -4 5 -2 9 3 9 8 0 38 147 36 182 0
9 3 15 7 13 4 -3 10 7 14 22 4 17 2 29 -7 34 -10 7 -9 9 5 9 20 0 20 0 7 37
-9 24 -8 26 3 11 12 -15 15 -12 30 29 14 37 15 49 5 61 -11 13 -10 15 5 9 15
-6 16 -4 7 13 -7 14 -7 20 0 20 5 0 10 5 10 10 0 6 -9 10 -20 10 -13 0 -20 6
-19 18 0 10 3 12 6 5 2 -7 9 -13 14 -13 4 0 6 7 2 16 -3 8 -12 13 -19 10 -8
-3 -14 -1 -14 5 0 7 -13 9 -37 4 -33 -6 -35 -5 -23 9 12 16 22 15 70 -2 13 -5
13 -3 1 11 -7 9 -21 17 -30 17 -38 1 -69 52 -38 63 6 2 8 8 4 13 -4 5 -11 4
-15 -1 -4 -6 -17 -11 -29 -13 -25 -4 -30 13 -12 38 9 12 10 10 6 -8 -5 -22 -4
-23 17 -8 30 19 69 10 61 -14 -3 -10 -1 -21 5 -25 6 -3 10 4 11 17 0 22 1 22
9 3 8 -19 9 -19 9 -1 1 13 6 17 21 13 11 -3 20 -1 20 3 0 5 -7 10 -15 12 -10
2 -6 7 11 15 22 10 25 10 20 -3 -3 -8 -2 -12 3 -9 5 3 12 1 15 -4 4 -5 -2 -12
-11 -14 -15 -4 -15 -6 5 -12 12 -4 22 -11 22 -15 0 -5 3 -17 7 -27 6 -15 1
-13 -28 8 -52 39 -59 42 -59 25 0 -9 7 -16 15 -16 8 0 15 -5 15 -11 0 -5 6 -7
13 -3 8 5 8 2 -2 -9 -15 -19 -31 -22 -31 -6 0 5 5 7 12 3 7 -4 8 -3 4 5 -4 6
-12 9 -17 6 -5 -4 -9 -2 -9 3 0 5 -11 7 -25 4 -33 -6 -32 -22 1 -22 14 0 23
-4 20 -8 -3 -5 3 -14 14 -22 10 -7 16 -20 12 -28 -4 -11 -1 -13 8 -7 9 5 11 4
6 -3 -4 -7 -1 -12 6 -12 7 0 26 27 41 60 16 33 33 62 38 65 16 10 10 21 -11
21 -15 0 -19 -5 -15 -21 5 -18 5 -18 -5 -2 -15 24 -3 62 15 47 9 -8 14 -6 19
6 9 24 7 29 -6 16 -8 -8 -17 -8 -31 0 -17 9 -19 8 -13 -8 7 -18 6 -18 -11 -1
-16 15 -16 19 -3 27 8 5 10 10 4 10 -19 0 -24 28 -7 34 10 4 13 2 10 -8 -3 -8
0 -17 8 -20 7 -2 16 2 19 10 9 24 7 31 -4 14 -7 -10 -10 -11 -10 -2 0 7 7 15
15 18 8 4 13 10 10 14 -3 5 -2 16 1 25 5 13 8 14 15 3 5 -7 19 -13 33 -13 14
-1 22 3 20 7 -3 4 -12 8 -20 8 -8 0 -14 5 -14 11 0 5 6 7 13 3 6 -4 8 -3 4 1
-14 16 -37 13 -51 -7 -10 -14 -15 -16 -20 -6 -3 7 -3 3 0 -9 4 -17 -2 -25 -27
-38 l-32 -17 7 29 c7 26 6 27 -7 8 -15 -19 -12 -45 4 -45 5 0 9 -9 9 -20 0
-11 -7 -20 -16 -20 -8 0 -13 4 -10 9 7 11 -28 83 -37 75 -4 -4 -7 -3 -7 2 0 6
5 15 12 22 9 9 8 15 -8 28 -18 15 -18 15 0 10 16 -6 17 -4 5 10 -8 10 -15 12
-17 5 -2 -6 -9 -8 -15 -4 -7 3 -1 -6 12 -20 22 -25 18 -40 -5 -18 -11 11 -29
-7 -29 -29 0 -21 21 -32 45 -25 11 4 20 2 20 -4 0 -6 -7 -11 -16 -11 -8 0 -12
-4 -9 -10 3 -5 0 -10 -7 -10 -9 0 -9 -3 2 -10 8 -5 22 -7 30 -5 10 3 16 -2 17
-15 1 -11 -2 -20 -8 -20 -5 0 -9 5 -9 12 0 6 -7 4 -18 -5 -20 -19 -37 -23 -27
-7 9 15 -7 12 -32 -5 -20 -14 -22 -14 -29 7 -6 21 -7 21 -21 -6 -8 -15 -12
-34 -9 -42 3 -8 0 -14 -7 -14 -8 0 -6 -4 3 -10 13 -8 13 -10 -2 -10 -9 0 -19
8 -21 18 -3 11 -5 9 -6 -8 -1 -20 4 -25 24 -26 19 -2 25 3 25 20 0 17 2 18 10
6 8 -13 10 -12 10 4 0 28 6 17 13 -24 6 -31 5 -33 -7 -17 -12 16 -14 16 -20 1
-8 -22 -8 -26 4 -19 5 3 10 1 10 -5 0 -7 -7 -10 -15 -6 -8 3 -15 1 -15 -4 0
-6 5 -10 10 -10 6 0 10 -4 10 -10 0 -5 -6 -7 -14 -4 -16 6 -30 -22 -16 -31 6
-4 10 0 10 7 1 9 5 7 14 -4 14 -20 28 -14 19 8 -3 10 2 14 18 13 23 0 23 -1 4
-9 -11 -5 -15 -9 -9 -9 21 -2 23 -29 4 -46 -19 -17 -20 -16 -29 9 -6 14 -13
26 -17 26 -3 0 -4 -6 -1 -13 3 -8 -1 -14 -8 -14 -8 0 -11 7 -7 15 4 11 1 13
-8 7 -8 -5 -11 -4 -7 2 4 6 0 14 -9 17 -8 3 -12 10 -9 16 3 5 2 10 -4 10 -6 0
-8 7 -4 16 5 15 7 15 15 0 5 -9 6 -21 3 -26 -3 -6 -4 -10 -1 -10 5 0 36 54 36
63 0 3 -7 8 -16 11 -12 5 -14 1 -9 -17 6 -21 5 -21 -8 2 -10 16 -16 20 -19 11
-3 -10 -6 -9 -11 4 -4 10 -3 15 3 11 5 -3 7 1 4 9 -3 8 4 24 15 35 12 12 17
21 11 21 -5 0 -7 7 -4 15 4 8 11 12 17 8 6 -3 7 -1 3 5 -4 6 -2 22 4 34 10 21
10 22 -4 5 -24 -31 -129 -270 -130 -299 -1 -14 -4 -24 -7 -22 -15 9 -81 -234
-110 -401 -85 -493 -16 -1004 201 -1480 34 -76 165 -297 222 -378 202 -285
481 -563 753 -753 431 -301 881 -476 1425 -555 196 -29 557 -31 770 -5 310 38
580 104 835 206 125 50 332 153 429 214 48 31 93 53 99 49 6 -3 7 -1 3 5 -7
11 7 17 29 12 6 -1 7 2 3 6 -11 10 60 56 74 48 6 -4 8 -3 5 3 -3 5 17 27 46
48 100 75 233 190 345 299 63 61 118 110 124 108 5 -1 6 3 3 9 -4 6 8 27 27
47 130 138 299 386 395 582 137 281 231 599 263 892 13 126 13 402 -1 526 -66
608 -379 1189 -877 1625 -231 202 -455 347 -752 486 -171 80 -493 197 -511
185 -4 -2 -9 0 -11 4 -4 11 -194 56 -240 56 -20 1 -34 4 -31 9 2 4 -6 8 -19 8
-13 1 -39 3 -58 6 -19 2 -53 6 -75 8 -22 2 -80 9 -130 14 -49 6 -183 11 -297
11 -178 0 -208 -2 -208 -15z m439 -31 c14 9 14 -4 1 -24 -9 -13 -11 -13 -20 0
-5 8 -10 22 -10 30 0 12 2 13 9 1 5 -7 14 -10 20 -7z m-50 -17 c-6 -12 -13
-23 -14 -25 -1 -1 -6 8 -12 21 -9 20 -8 23 13 25 22 2 24 0 13 -21z m291 -9
c0 -5 5 -6 10 -3 6 3 10 -1 10 -10 0 -9 -6 -15 -12 -14 -27 3 -39 -1 -32 -12
4 -8 9 -8 13 -1 4 6 12 7 20 3 9 -6 7 -10 -8 -14 -11 -3 -25 1 -32 9 -10 12
-8 18 7 29 10 8 14 15 7 15 -6 0 -19 -10 -27 -22 -13 -18 -16 -19 -16 -6 0 23
28 48 45 42 8 -4 15 -10 15 -16z m63 -18 c18 0 19 -2 7 -10 -13 -8 -12 -10 3
-10 9 0 17 6 17 13 0 7 3 8 8 2 11 -16 45 -19 37 -3 -6 10 -5 10 5 1 7 -6 20
-9 29 -6 12 3 11 2 -2 -7 -10 -7 -27 -10 -38 -7 -16 4 -19 2 -13 -15 4 -14 2
-18 -5 -14 -6 4 -11 0 -11 -9 0 -9 -6 -15 -12 -12 -7 2 -13 14 -12 26 0 11 -3
21 -7 21 -14 0 -39 31 -38 48 1 15 2 15 6 0 2 -10 14 -18 26 -18z m-273 -20
c0 -5 -4 -10 -10 -10 -5 0 -10 5 -10 10 0 6 5 10 10 10 6 0 10 -4 10 -10z
m420 -14 c0 -11 7 -13 28 -7 32 9 72 -3 72 -21 0 -9 -3 -9 -11 2 -8 12 -9 8
-5 -15 l5 -30 -12 28 c-8 20 -18 27 -38 27 -15 0 -29 -5 -31 -11 -2 -6 -9 0
-16 15 -7 15 -8 26 -2 26 6 0 10 -6 10 -14z m-60 -35 c7 -14 7 -22 -2 -27 -6
-4 -8 -3 -4 4 3 6 2 13 -4 17 -10 6 -14 25 -5 25 2 0 9 -9 15 -19z m195 9 c3
-5 2 -10 -4 -10 -5 0 -13 5 -16 10 -3 6 -2 10 4 10 5 0 13 -4 16 -10z m30 0
c3 -5 1 -10 -4 -10 -6 0 -11 5 -11 10 0 6 2 10 4 10 3 0 8 -4 11 -10z m-154
-45 c7 -13 3 -12 -10 5 -11 14 -21 30 -21 35 0 11 14 -7 31 -40z m32 38 c-20
-8 -15 -26 5 -18 13 5 14 3 5 -6 -6 -6 -16 -8 -22 -5 -17 11 -13 36 7 35 10 0
12 -3 5 -6z m-125 -38 c-3 -3 -9 2 -12 12 -6 14 -5 15 5 6 7 -7 10 -15 7 -18z
m300 0 c-3 -3 -9 2 -12 12 -6 14 -5 15 5 6 7 -7 10 -15 7 -18z m42 11 c0 -2
-7 -7 -16 -10 -8 -3 -12 -2 -9 4 6 10 25 14 25 6z m30 -10 c0 -3 -4 -8 -10
-11 -5 -3 -10 -1 -10 4 0 6 5 11 10 11 6 0 10 -2 10 -4z m-430 -16 c0 -5 -4
-10 -10 -10 -5 0 -10 5 -10 10 0 6 5 10 10 10 6 0 10 -4 10 -10z m103 3 c-7
-2 -19 -2 -25 0 -7 3 -2 5 12 5 14 0 19 -2 13 -5z m92 -3 c-3 -5 -12 -10 -18
-10 -7 0 -6 4 3 10 19 12 23 12 15 0z m75 -7 c0 -9 -8 -25 -17 -36 -17 -20
-17 -20 2 -14 20 7 20 7 0 -8 -16 -13 -17 -17 -6 -24 9 -6 10 -11 2 -15 -6 -4
-12 -1 -13 6 0 7 -2 18 -2 23 -1 6 -5 16 -10 24 -6 9 -5 12 2 7 6 -3 16 2 21
13 16 29 13 39 -4 17 -8 -11 -15 -15 -15 -8 0 6 -7 9 -17 5 -16 -5 -16 -4 0 9
26 20 57 20 57 1z m31 0 c13 -16 12 -17 -3 -4 -10 7 -18 15 -18 17 0 8 8 3 21
-13z m-223 -18 c15 2 20 0 11 -2 -11 -3 -15 -12 -11 -29 6 -32 -15 -31 -53 4
-17 15 -26 24 -20 21 33 -19 45 -18 42 4 -2 12 -2 17 0 11 2 -6 16 -10 31 -9z
m322 -5 c0 -5 -10 -10 -22 -9 -22 0 -22 1 -3 9 11 5 21 9 23 9 1 1 2 -3 2 -9z
m-217 -7 c4 9 6 9 6 0 2 -20 -15 -23 -35 -7 -18 14 -18 15 3 5 16 -8 23 -8 26
2z m272 -3 c3 -5 1 -10 -4 -10 -6 0 -11 5 -11 10 0 6 2 10 4 10 3 0 8 -4 11
-10z m-338 -6 c-3 -3 -12 -4 -19 -1 -8 3 -5 6 6 6 11 1 17 -2 13 -5z m370 -31
c-3 -10 -5 -4 -5 12 0 17 2 24 5 18 2 -7 2 -21 0 -30z m-372 7 c3 -5 -1 -10
-9 -10 -9 0 -16 5 -16 10 0 6 4 10 9 10 6 0 13 -4 16 -10z m105 6 c0 -2 -7 -6
-15 -10 -8 -3 -15 -1 -15 4 0 6 7 10 15 10 8 0 15 -2 15 -4z m-24 -26 c8 0 14
-4 14 -8 0 -5 -7 -9 -15 -9 -8 0 -15 5 -15 10 0 5 -6 7 -13 4 -8 -3 -20 -1
-28 5 -11 8 -11 9 3 4 10 -3 21 0 25 6 5 9 8 9 11 0 2 -7 10 -12 18 -12z m113
-1 c-16 -10 -23 -4 -14 10 3 6 11 8 17 5 6 -4 5 -9 -3 -15z m-29 -23 c0 -3 -4
-8 -10 -11 -5 -3 -10 -1 -10 4 0 6 5 11 10 11 6 0 10 -2 10 -4z m460 0 c0 -2
-7 -7 -16 -10 -8 -3 -12 -2 -9 4 6 10 25 14 25 6z m-413 -12 c-8 -8 -48 -13
-43 -6 2 4 14 8 26 9 12 1 20 0 17 -3z m118 -52 c-3 -3 -11 0 -18 7 -9 10 -8
11 6 5 10 -3 15 -9 12 -12z m-581 -653 c33 -26 34 -62 1 -86 -20 -14 -31 -38
-46 -98 -11 -44 -49 -174 -84 -290 -35 -115 -117 -392 -183 -615 -302 -1021
-356 -1199 -378 -1261 -13 -37 -24 -77 -24 -90 0 -51 -8 -50 732 -51 l689 0
11 -23 c8 -18 0 -58 -42 -201 -63 -218 -83 -262 -136 -291 l-39 -23 -995 0
c-573 0 -1012 4 -1035 10 -52 12 -85 50 -85 97 0 20 34 149 75 287 127 427
242 818 265 896 12 41 61 210 110 375 49 165 150 514 226 775 75 261 145 492
155 512 11 21 30 45 44 54 61 40 91 43 406 44 295 0 307 -1 333 -21z m-1293
-53 c-18 -10 -20 -15 -10 -19 10 -4 9 -6 -3 -6 -10 -1 -18 5 -18 13 0 8 8 17
18 19 32 9 37 6 13 -7z m-41 -16 c0 -5 -5 -10 -11 -10 -5 0 -7 5 -4 10 3 6 8
10 11 10 2 0 4 -4 4 -10z m-51 -23 c-2 -1 -13 -9 -24 -17 -19 -14 -19 -14 -6
3 7 9 18 17 24 17 6 0 8 -1 6 -3z m-63 -42 c-3 -19 -46 -65 -60 -65 -6 1 5 15
24 32 29 25 31 30 13 25 -41 -9 -28 2 24 22 1 1 0 -6 -1 -14z m205 -73 c-10
-19 -140 -142 -150 -142 -12 0 -39 -38 -33 -45 4 -4 2 -6 -3 -4 -6 1 -22 -3
-36 -10 -21 -10 -31 -11 -49 -1 l-23 12 29 13 c16 7 61 41 99 75 39 35 88 76
109 91 45 34 72 39 57 11z m-1851 -252 c0 -11 -4 -20 -10 -20 -5 0 -10 9 -10
20 0 11 5 20 10 20 6 0 10 -9 10 -20z m120 -219 c0 -4 -6 -16 -14 -26 -13 -18
-15 -18 -30 -2 -15 15 -16 17 -2 17 9 0 16 -6 16 -12 0 -9 4 -8 10 2 13 20 12
33 -2 24 -7 -4 -8 -3 -4 5 7 11 26 6 26 -8z m-294 -66 c0 -32 0 -33 -14 -14
-11 16 -11 23 -2 34 16 19 15 20 16 -20z m194 0 c0 -8 -7 -15 -15 -15 -8 0
-15 -5 -15 -11 0 -5 5 -7 10 -4 6 3 10 1 10 -4 0 -13 -3 -13 -23 -5 -12 4 -12
10 -3 30 12 26 36 33 36 9z m-210 -42 c0 -7 -7 -13 -15 -13 -8 0 -15 6 -15 13
0 8 7 14 15 14 8 0 15 -6 15 -14z m61 -20 c13 -16 12 -17 -3 -4 -10 7 -18 15
-18 17 0 8 8 3 21 -13z m125 -22 c-11 -18 -35 -13 -31 7 2 9 4 21 4 27 1 5 8
2 17 -7 9 -9 13 -21 10 -27z m-76 -11 c0 -5 -2 -10 -4 -10 -3 0 -8 5 -11 10
-3 6 -1 10 4 10 6 0 11 -4 11 -10z m-136 -16 c3 -8 2 -12 -4 -9 -6 3 -10 10
-10 16 0 14 7 11 14 -7z m223 0 c-3 -3 -12 -4 -19 -1 -8 3 -5 6 6 6 11 1 17
-2 13 -5z m-23 -29 c3 -9 0 -15 -9 -15 -9 0 -12 6 -9 15 4 8 7 15 9 15 2 0 5
-7 9 -15z m-229 -16 c-4 -5 -12 -9 -18 -8 -9 0 -8 2 1 6 6 2 9 10 6 15 -4 7
-2 8 5 4 6 -4 9 -12 6 -17z m49 5 c3 -8 2 -12 -4 -9 -6 3 -10 10 -10 16 0 14
7 11 14 -7z m116 -20 c0 -2 -7 -4 -15 -4 -8 0 -15 4 -15 10 0 5 7 7 15 4 8 -4
15 -8 15 -10z m-120 -10 c0 -2 -7 -4 -15 -4 -8 0 -15 4 -15 10 0 5 7 7 15 4 8
-4 15 -8 15 -10z m187 10 c-3 -3 -12 -4 -19 -1 -8 3 -5 6 6 6 11 1 17 -2 13
-5z m-170 -29 c-7 -17 -27 -21 -27 -4 0 5 5 7 10 4 6 -3 10 2 10 11 0 10 3 15
6 11 4 -3 4 -13 1 -22z m121 -5 c12 -19 11 -20 -8 -8 -11 7 -20 16 -20 20 0
15 15 8 28 -12z m-148 -36 c0 -8 -19 -13 -24 -6 -3 5 1 9 9 9 8 0 15 -2 15 -3z
m55 -4 c-3 -5 -12 -10 -18 -10 -7 0 -6 4 3 10 19 12 23 12 15 0z m1729 -36
c-26 -39 -93 -84 -125 -84 -30 0 -52 20 -22 21 10 0 50 24 88 53 72 54 90 58
59 10z m-1852 -16 c-2 -10 -6 -18 -7 -18 -1 0 -5 8 -7 18 -3 11 0 19 7 19 7 0
10 -8 7 -19z m71 15 c3 -5 -1 -14 -9 -21 -12 -11 -14 -9 -14 8 0 20 14 27 23
13z m37 -3 c0 -5 -2 -10 -4 -10 -3 0 -8 5 -11 10 -3 6 -1 10 4 10 6 0 11 -4
11 -10z m20 -214 c0 -3 -4 -8 -10 -11 -5 -3 -10 -1 -10 4 0 6 5 11 10 11 6 0
10 -2 10 -4z m879 -313 c23 -6 23 -7 5 -14 -10 -4 -34 -8 -53 -8 -94 -2 -167
-81 -154 -166 3 -22 11 -47 18 -55 7 -8 14 -21 17 -29 2 -8 13 -16 24 -17 10
-2 40 -6 66 -10 26 -3 58 -4 71 0 27 6 102 65 104 81 1 5 6 11 12 13 6 2 8 -6
6 -19 -7 -34 -63 -87 -113 -106 -38 -14 -51 -15 -90 -4 -54 14 -116 57 -109
76 3 6 -4 20 -15 29 -11 10 -17 24 -14 32 4 10 2 12 -6 8 -8 -5 -9 6 -4 42 3
27 11 51 16 52 6 2 10 10 10 18 0 15 51 65 78 76 22 9 100 10 131 1z m4011
-11 c0 -15 -23 -38 -132 -131 -63 -54 -115 -91 -125 -89 -9 2 -16 6 -15 11 2
8 106 101 195 174 49 41 77 53 77 35z m-4787 -174 c3 -21 2 -38 -4 -38 -5 0
-9 19 -9 42 0 49 5 47 13 -4z m44 -370 c-3 -8 -6 -5 -6 6 -1 11 2 17 5 13 3
-3 4 -12 1 -19z m40 -160 c-3 -8 -6 -5 -6 6 -1 11 2 17 5 13 3 -3 4 -12 1 -19z
m4508 -58 c-3 -5 -2 -10 4 -10 5 0 11 5 13 12 3 9 6 9 12 0 5 -8 -3 -16 -21
-22 -15 -6 -40 -17 -55 -25 -18 -11 -29 -12 -33 -4 -10 15 24 37 49 33 12 -3
15 -1 7 2 -11 5 -11 8 0 15 19 12 32 11 24 -1z m-80 -71 c0 -8 -6 -13 -13 -11
-8 1 -11 -2 -7 -8 3 -5 1 -18 -4 -27 -9 -16 -10 -14 -11 9 0 14 3 34 6 43 8
19 29 15 29 -6z m185 -229 c-8 -5 -35 -9 -60 -8 l-45 1 45 7 c73 11 78 11 60
0z m-4299 -357 c13 -16 12 -17 -3 -4 -10 7 -18 15 -18 17 0 8 8 3 21 -13z m33
-39 c5 -14 4 -15 -9 -4 -17 14 -19 20 -6 20 5 0 12 -7 15 -16z m36 -49 c13
-14 19 -25 14 -25 -8 1 -50 50 -41 50 2 0 14 -11 27 -25z"/>
<path d="M3916 6195 c-3 -9 -6 -22 -5 -28 0 -7 5 -1 10 12 5 13 8 26 5 28 -2
2 -6 -3 -10 -12z"/>
<path d="M3956 6061 c-4 -7 -5 -15 -2 -18 9 -9 19 4 14 18 -4 11 -6 11 -12 0z"/>
<path d="M645 4460 c3 -5 8 -10 11 -10 2 0 4 5 4 10 0 6 -5 10 -11 10 -5 0 -7
-4 -4 -10z"/>
<path d="M1470 3460 c-6 -11 -8 -20 -6 -20 3 0 10 9 16 20 6 11 8 20 6 20 -3
0 -10 -9 -16 -20z"/>
<path d="M2950 6290 c-9 -6 -10 -10 -3 -10 6 0 15 5 18 10 8 12 4 12 -15 0z"/>
<path d="M3061 6284 c0 -11 3 -14 6 -6 3 7 2 16 -1 19 -3 4 -6 -2 -5 -13z"/>
<path d="M2822 6264 c-7 -8 -8 -14 -3 -14 10 0 25 19 20 25 -2 1 -10 -3 -17
-11z"/>
<path d="M3321 6264 c0 -11 3 -14 6 -6 3 7 2 16 -1 19 -3 4 -6 -2 -5 -13z"/>
<path d="M3443 6267 c3 -9 2 -27 -3 -39 -5 -14 -9 -17 -10 -8 0 12 -3 11 -11
-3 -6 -10 -8 -21 -5 -24 3 -4 6 -2 6 4 0 6 13 9 30 8 16 -1 27 1 24 6 -3 5
-10 6 -16 3 -7 -4 -8 4 -3 24 4 19 2 33 -6 38 -9 5 -10 2 -6 -9z"/>
<path d="M2898 6263 c7 -3 16 -2 19 1 4 3 -2 6 -13 5 -11 0 -14 -3 -6 -6z"/>
<path d="M3390 6255 c-11 -13 -10 -14 4 -9 9 3 16 10 16 15 0 13 -6 11 -20 -6z"/>
<path d="M3356 6232 c-3 -5 1 -9 9 -9 8 0 12 4 9 9 -3 4 -7 8 -9 8 -2 0 -6 -4
-9 -8z"/>
<path d="M3660 6225 c-6 -7 -7 -15 -3 -18 12 -13 38 -7 49 11 10 15 8 18 -13
18 -13 0 -28 -5 -33 -11z m25 -5 c3 -5 -1 -10 -10 -10 -9 0 -13 5 -10 10 3 6
8 10 10 10 2 0 7 -4 10 -10z"/>
<path d="M3215 6220 c-7 -11 22 -26 32 -16 4 3 -1 6 -11 6 -9 0 -14 5 -11 10
3 6 4 10 1 10 -3 0 -8 -5 -11 -10z"/>
<path d="M3020 6210 c-9 -6 -10 -10 -3 -10 6 0 15 5 18 10 8 12 4 12 -15 0z"/>
<path d="M3162 6204 c10 -10 20 -16 22 -13 3 3 -5 11 -17 18 -21 13 -21 12 -5
-5z"/>
<path d="M3274 6198 c-4 -6 1 -17 10 -23 9 -7 15 -19 14 -26 -2 -7 4 -14 12
-14 8 -1 10 0 3 2 -7 2 -9 11 -6 19 3 7 -2 17 -11 20 -27 10 -18 27 12 20 20
-5 23 -4 12 4 -20 13 -37 13 -46 -2z"/>
<path d="M2500 6196 c0 -2 9 -6 20 -9 11 -3 20 -1 20 4 0 5 -9 9 -20 9 -11 0
-20 -2 -20 -4z"/>
<path d="M2926 6184 c-23 -23 -20 -30 4 -9 11 10 20 20 20 22 0 7 -9 2 -24
-13z"/>
<path d="M3380 6189 c0 -6 -7 -9 -14 -6 -10 4 -13 1 -9 -9 3 -7 0 -14 -6 -14
-6 0 -11 5 -11 11 0 5 -5 7 -11 3 -8 -5 -6 -10 5 -16 13 -7 23 -5 37 8 24 21
38 11 15 -11 -9 -9 -16 -21 -16 -27 0 -6 9 -1 20 12 23 26 22 23 14 44 -7 18
-24 22 -24 5z"/>
<path d="M2440 6181 c0 -6 4 -13 10 -16 6 -3 7 1 4 9 -7 18 -14 21 -14 7z"/>
<path d="M3437 6177 c-3 -8 1 -14 8 -14 7 0 11 6 8 14 -3 7 -6 13 -8 13 -2 0
-5 -6 -8 -13z"/>
<path d="M3155 6170 c3 -5 11 -10 16 -10 6 0 7 5 4 10 -3 6 -11 10 -16 10 -6
0 -7 -4 -4 -10z"/>
<path d="M3240 6176 c0 -3 9 -10 20 -16 11 -6 20 -8 20 -6 0 3 -9 10 -20 16
-11 6 -20 8 -20 6z"/>
<path d="M3213 6139 c-1 -12 -1 -20 0 -18 2 2 9 12 16 22 11 14 11 17 -1 17
-7 0 -14 -10 -15 -21z"/>
<path d="M3247 6136 c-4 -10 -1 -13 8 -9 8 3 12 9 9 14 -7 12 -11 11 -17 -5z"/>
<path d="M3023 6125 c-3 -9 -3 -18 -1 -21 3 -3 8 4 11 16 6 23 -1 27 -10 5z"/>
<path d="M3335 6119 c-6 -18 -13 -20 -61 -17 -30 1 -54 0 -54 -4 0 -5 26 -8
58 -8 51 0 58 3 69 25 6 14 7 25 3 25 -5 0 -12 -9 -15 -21z"/>
<path d="M3145 6120 c-3 -6 1 -7 9 -4 18 7 21 14 7 14 -6 0 -13 -4 -16 -10z"/>
<path d="M3181 6104 c0 -11 3 -14 6 -6 3 7 2 16 -1 19 -3 4 -6 -2 -5 -13z"/>
<path d="M3625 6110 c-3 -5 -1 -10 4 -10 6 0 11 5 11 10 0 6 -2 10 -4 10 -3 0
-8 -4 -11 -10z"/>
<path d="M3526 6095 c4 -8 15 -15 26 -15 17 0 18 2 4 15 -8 8 -19 15 -25 15
-6 0 -8 -7 -5 -15z"/>
<path d="M3380 6096 c0 -2 9 -6 20 -9 11 -3 18 -1 14 4 -5 9 -34 13 -34 5z"/>
<path d="M3620 6080 c0 -4 11 -10 25 -12 14 -3 25 -1 25 3 0 5 -3 9 -7 10 -5
0 -16 2 -25 4 -10 2 -18 0 -18 -5z"/>
<path d="M2790 6055 c0 -8 2 -15 4 -15 2 0 6 7 10 15 3 8 1 15 -4 15 -6 0 -10
-7 -10 -15z"/>
<path d="M1915 6000 c-3 -6 1 -7 9 -4 18 7 21 14 7 14 -6 0 -13 -4 -16 -10z"/>
<path d="M1838 5963 c7 -3 16 -2 19 1 4 3 -2 6 -13 5 -11 0 -14 -3 -6 -6z"/>
<path d="M1795 5940 c-3 -6 1 -7 9 -4 18 7 21 14 7 14 -6 0 -13 -4 -16 -10z"/>
<path d="M1550 5780 c-9 -6 -10 -10 -3 -10 6 0 15 5 18 10 8 12 4 12 -15 0z"/>
<path d="M1513 5735 c0 -7 6 -11 14 -8 7 3 13 6 13 8 0 2 -6 5 -13 8 -8 3 -14
-1 -14 -8z"/>
<path d="M1419 5713 c-13 -16 -12 -17 4 -4 9 7 17 15 17 17 0 8 -8 3 -21 -13z"/>
<path d="M1360 5641 c0 -6 4 -13 10 -16 6 -3 7 1 4 9 -7 18 -14 21 -14 7z"/>
<path d="M1448 5633 c7 -3 16 -2 19 1 4 3 -2 6 -13 5 -11 0 -14 -3 -6 -6z"/>
<path d="M1560 5620 c0 -6 7 -10 15 -10 8 0 15 2 15 4 0 2 -7 6 -15 10 -8 3
-15 1 -15 -4z"/>
<path d="M1300 5606 c0 -2 7 -7 16 -10 8 -3 12 -2 9 4 -6 10 -25 14 -25 6z"/>
<path d="M1649 5573 c-13 -16 -12 -17 4 -4 9 7 17 15 17 17 0 8 -8 3 -21 -13z"/>
<path d="M1210 5490 c-6 -11 -7 -20 -2 -20 6 0 12 9 15 20 3 11 3 20 1 20 -2
0 -8 -9 -14 -20z"/>
<path d="M1323 5493 c0 -7 10 -13 21 -12 12 0 15 3 8 6 -6 2 -10 8 -8 12 3 4
-1 8 -8 8 -7 0 -13 -6 -13 -14z"/>
<path d="M1487 5499 c7 -7 15 -10 18 -7 3 3 -2 9 -12 12 -14 6 -15 5 -6 -5z"/>
<path d="M1424 5470 c0 -13 4 -16 10 -10 7 7 7 13 0 20 -6 6 -10 3 -10 -10z"/>
<path d="M1079 5433 l-24 -28 28 24 c25 23 32 31 24 31 -2 0 -14 -12 -28 -27z"/>
<path d="M1197 5449 c7 -7 15 -10 18 -7 3 3 -2 9 -12 12 -14 6 -15 5 -6 -5z"/>
<path d="M1226 5431 c-11 -4 -15 -10 -10 -13 5 -4 18 0 29 8 20 15 12 17 -19
5z"/>
<path d="M1251 5411 c-25 -19 -21 -42 7 -40 15 1 15 2 0 6 -24 6 -23 20 2 28
11 3 20 11 20 16 0 12 -1 12 -29 -10z"/>
<path d="M1290 5420 c0 -5 5 -10 10 -10 6 0 10 5 10 10 0 6 -4 10 -10 10 -5 0
-10 -4 -10 -10z"/>
<path d="M1175 5410 c-3 -6 1 -7 9 -4 18 7 21 14 7 14 -6 0 -13 -4 -16 -10z"/>
<path d="M1115 5400 c-3 -5 1 -10 9 -10 9 0 16 5 16 10 0 6 -4 10 -9 10 -6 0
-13 -4 -16 -10z"/>
<path d="M1175 5379 c-11 -16 -1 -19 13 -3 7 8 8 14 3 14 -5 0 -13 -5 -16 -11z"/>
<path d="M989 5343 c-13 -16 -12 -17 4 -4 16 13 21 21 13 21 -2 0 -10 -8 -17
-17z"/>
<path d="M1222 5349 c2 -7 -2 -13 -9 -14 -6 0 -14 -3 -18 -7 -4 -3 0 -5 9 -4
24 3 40 22 27 31 -7 3 -10 1 -9 -6z"/>
<path d="M1045 5339 c-4 -6 -5 -12 -2 -15 2 -3 7 2 10 11 7 17 1 20 -8 4z"/>
<path d="M1305 5340 c-4 -6 1 -7 11 -3 12 4 15 3 10 -5 -5 -8 -2 -10 9 -5 13
5 14 7 3 14 -17 11 -26 11 -33 -1z"/>
<path d="M1111 5318 c0 -10 -7 -18 -14 -18 -15 0 -16 -35 -2 -47 4 -5 5 -3 2
4 -4 6 0 19 9 27 8 9 13 24 11 34 -4 16 -5 16 -6 0z"/>
<path d="M1150 5326 c0 -2 7 -7 16 -10 8 -3 12 -2 9 4 -6 10 -25 14 -25 6z"/>
<path d="M1264 5280 c0 -13 4 -16 10 -10 7 7 7 13 0 20 -6 6 -10 3 -10 -10z"/>
<path d="M1056 5263 c-6 -14 -5 -15 5 -6 7 7 10 15 7 18 -3 3 -9 -2 -12 -12z"/>
<path d="M1130 5266 c0 -9 -4 -14 -10 -11 -5 3 -10 1 -10 -4 0 -6 5 -11 10
-11 13 0 25 28 16 37 -3 4 -6 -1 -6 -11z"/>
<path d="M1216 5267 c3 -10 9 -15 12 -12 3 3 0 11 -7 18 -10 9 -11 8 -5 -6z"/>
<path d="M5323 5262 c10 -10 14 -22 10 -27 -5 -4 -2 -5 5 -1 11 6 10 12 -4 27
-9 10 -19 19 -22 19 -3 0 2 -8 11 -18z"/>
<path d="M970 5240 c0 -6 7 -10 15 -10 8 0 15 2 15 4 0 2 -7 6 -15 10 -8 3
-15 1 -15 -4z"/>
<path d="M1240 5239 c0 -5 5 -7 10 -4 6 3 10 8 10 11 0 2 -4 4 -10 4 -5 0 -10
-5 -10 -11z"/>
<path d="M896 5227 c3 -10 9 -15 12 -12 3 3 0 11 -7 18 -10 9 -11 8 -5 -6z"/>
<path d="M1017 5221 c3 -13 -1 -21 -14 -24 -15 -4 -14 -5 5 -6 16 -1 22 5 22
18 0 11 -4 22 -9 25 -5 4 -7 -3 -4 -13z"/>
<path d="M1209 5227 c6 -8 7 -18 3 -22 -4 -5 -1 -5 6 -1 10 6 10 11 1 22 -6 8
-14 14 -16 14 -3 0 0 -6 6 -13z"/>
<path d="M5357 5219 c7 -7 15 -10 18 -7 3 3 -2 9 -12 12 -14 6 -15 5 -6 -5z"/>
<path d="M855 5200 c-3 -5 -1 -10 4 -10 6 0 11 5 11 10 0 6 -2 10 -4 10 -3 0
-8 -4 -11 -10z"/>
<path d="M1143 5185 c0 -7 6 -11 14 -8 7 3 13 6 13 8 0 2 -6 5 -13 8 -8 3 -14
-1 -14 -8z"/>
<path d="M883 5184 c-7 -3 -9 -12 -6 -20 8 -21 19 -17 19 6 0 11 0 20 -1 19 0
0 -5 -3 -12 -5z"/>
<path d="M1070 5186 c0 -2 8 -10 18 -17 15 -13 16 -12 3 4 -13 16 -21 21 -21
13z"/>
<path d="M1175 5170 c-10 -11 -16 -22 -14 -24 2 -2 12 7 22 20 22 29 17 32 -8
4z"/>
<path d="M1004 5169 c-3 -6 -3 -13 0 -16 3 -4 6 -1 6 5 0 6 7 9 15 6 8 -4 15
-4 15 -1 0 11 -30 16 -36 6z"/>
<path d="M794 5123 c-15 -20 -23 -33 -16 -29 13 8 56 66 49 66 -3 0 -17 -17
-33 -37z"/>
<path d="M845 5139 c-5 -14 -1 -27 11 -38 17 -15 17 -15 5 1 -7 9 -10 26 -6
38 3 11 4 20 1 20 -2 0 -8 -10 -11 -21z"/>
<path d="M1120 5110 c-12 -16 -19 -30 -16 -30 2 0 14 14 26 30 12 17 19 30 16
30 -2 0 -14 -13 -26 -30z"/>
<path d="M967 5106 c-4 -10 -5 -21 -2 -24 9 -9 17 6 13 25 -3 17 -4 17 -11 -1z"/>
<path d="M1055 5110 c-3 -5 -1 -10 4 -10 6 0 11 5 11 10 0 6 -2 10 -4 10 -3 0
-8 -4 -11 -10z"/>
<path d="M1000 5100 c-12 -7 -10 -9 7 -7 12 0 19 5 17 9 -6 10 -6 10 -24 -2z"/>
<path d="M802 5084 c-7 -8 -10 -19 -6 -26 5 -7 10 -3 16 12 10 28 7 33 -10 14z"/>
<path d="M906 5085 c-3 -9 -6 -22 -5 -28 0 -7 5 -1 10 12 5 13 8 26 5 28 -2 2
-6 -3 -10 -12z"/>
<path d="M928 5075 c-10 -22 -9 -29 10 -48 12 -12 22 -19 22 -15 0 4 -7 14
-16 23 -13 13 -14 21 -6 41 7 13 9 24 7 24 -3 0 -11 -11 -17 -25z"/>
<path d="M840 5081 c0 -6 4 -13 10 -16 6 -3 7 1 4 9 -7 18 -14 21 -14 7z"/>
<path d="M1005 5070 c3 -5 11 -10 16 -10 6 0 7 5 4 10 -3 6 -11 10 -16 10 -6
0 -7 -4 -4 -10z"/>
<path d="M1075 5050 c-14 -16 -21 -18 -28 -8 -6 10 -8 10 -5 -1 7 -24 22 -22
41 4 22 30 17 33 -8 5z"/>
<path d="M816 5041 c-3 -4 -2 -21 3 -37 7 -27 8 -28 13 -6 3 12 2 22 -3 22 -5
0 -9 5 -9 11 0 6 9 8 20 4 11 -3 20 -3 20 2 0 11 -38 14 -44 4z"/>
<path d="M5526 5037 c3 -10 9 -15 12 -12 3 3 0 11 -7 18 -10 9 -11 8 -5 -6z"/>
<path d="M883 5026 c-9 -11 -9 -15 0 -19 7 -3 14 3 14 14 2 22 2 22 -14 5z"/>
<path d="M910 5021 c0 -5 7 -15 17 -22 15 -13 15 -12 4 9 -12 23 -21 28 -21
13z"/>
<path d="M1016 5021 c-3 -5 1 -14 8 -20 10 -9 16 -9 21 -1 4 6 1 9 -7 8 -7 -2
-12 3 -10 10 2 14 -4 16 -12 3z"/>
<path d="M701 4992 c-30 -42 -26 -50 5 -12 15 17 24 33 21 36 -2 3 -14 -8 -26
-24z"/>
<path d="M848 4993 c6 -2 18 -2 25 0 6 3 1 5 -13 5 -14 0 -19 -2 -12 -5z"/>
<path d="M981 4984 c9 -11 15 -12 17 -5 3 9 8 8 20 -1 15 -12 16 -11 3 5 -7 9
-22 17 -33 17 -18 0 -19 -2 -7 -16z"/>
<path d="M5560 4991 c0 -6 4 -13 10 -16 6 -3 7 1 4 9 -7 18 -14 21 -14 7z"/>
<path d="M890 4975 c0 -8 5 -17 10 -20 8 -5 7 -11 -1 -21 -6 -8 -8 -14 -4 -14
4 0 14 8 22 18 14 16 14 16 9 0 -3 -10 0 -18 5 -18 7 0 9 9 5 23 -3 12 -6 25
-6 28 0 14 -40 17 -40 4z"/>
<path d="M855 4970 c-3 -6 1 -7 9 -4 18 7 21 14 7 14 -6 0 -13 -4 -16 -10z"/>
<path d="M706 4955 c-4 -10 -2 -14 5 -9 6 4 15 0 20 -7 5 -8 9 -9 9 -3 0 6 -6
17 -14 23 -11 9 -15 8 -20 -4z"/>
<path d="M813 4960 c-13 -5 -23 -12 -23 -16 0 -3 7 -4 15 0 8 3 19 -2 24 -12
9 -14 11 -14 12 -2 0 8 7 2 14 -15 8 -16 14 -24 15 -17 0 23 -21 53 -32 46 -7
-5 -9 -1 -5 9 3 10 5 17 4 16 -1 0 -12 -4 -24 -9z"/>
<path d="M870 4950 c0 -5 5 -10 11 -10 5 0 7 5 4 10 -3 6 -8 10 -11 10 -2 0
-4 -4 -4 -10z"/>
<path d="M956 4934 c-9 -24 -2 -26 12 -4 7 11 8 20 3 20 -5 0 -12 -7 -15 -16z"/>
<path d="M5590 4942 c0 -5 9 -20 20 -33 17 -21 19 -21 13 -4 -8 23 -33 51 -33
37z"/>
<path d="M655 4931 c-3 -5 -1 -12 4 -15 5 -3 11 1 15 9 6 16 -9 21 -19 6z"/>
<path d="M746 4924 c-4 -9 -4 -19 -1 -22 2 -3 7 3 11 12 4 9 4 19 1 22 -2 3
-7 -3 -11 -12z"/>
<path d="M698 4918 c-6 -16 20 -43 30 -33 4 4 2 10 -5 12 -7 2 -9 11 -6 19 3
8 1 14 -5 14 -6 0 -12 -6 -14 -12z"/>
<path d="M798 4923 c7 -3 16 -2 19 1 4 3 -2 6 -13 5 -11 0 -14 -3 -6 -6z"/>
<path d="M970 4910 c-6 -11 -15 -18 -21 -15 -5 4 -9 -4 -9 -16 0 -21 2 -20 25
11 26 35 28 40 20 40 -2 0 -9 -9 -15 -20z"/>
<path d="M771 4897 c-8 -10 -7 -14 4 -14 8 0 15 6 15 14 0 7 -2 13 -4 13 -2 0
-9 -6 -15 -13z"/>
<path d="M815 4890 c-3 -5 -1 -10 4 -10 6 0 11 5 11 10 0 6 -2 10 -4 10 -3 0
-8 -4 -11 -10z"/>
<path d="M603 4838 c-37 -71 -37 -69 -21 -66 7 2 13 -4 13 -12 0 -24 18 -37
54 -37 29 0 31 2 17 12 -10 7 -14 19 -10 29 3 9 1 16 -5 16 -6 0 -11 -4 -11
-10 0 -5 -4 -10 -10 -10 -5 0 -7 6 -4 14 3 8 1 17 -5 21 -7 3 -8 0 -5 -9 3 -9
1 -16 -4 -16 -21 0 -23 21 -5 53 22 37 34 67 28 67 -3 0 -17 -24 -32 -52z m27
-99 c0 -6 -4 -7 -10 -4 -5 3 -10 11 -10 16 0 6 5 7 10 4 6 -3 10 -11 10 -16z"/>
<path d="M740 4875 c0 -5 5 -17 10 -25 5 -8 10 -10 10 -5 0 6 -5 17 -10 25 -5
8 -10 11 -10 5z"/>
<path d="M767 4831 c-4 -17 -3 -21 5 -13 5 5 8 16 6 23 -3 8 -7 3 -11 -10z"/>
<path d="M710 4830 c0 -5 5 -10 10 -10 6 0 10 5 10 10 0 6 -4 10 -10 10 -5 0
-10 -4 -10 -10z"/>
<path d="M915 4830 c3 -5 8 -10 11 -10 2 0 4 5 4 10 0 6 -5 10 -11 10 -5 0 -7
-4 -4 -10z"/>
<path d="M834 4794 c-18 -15 -18 -15 2 -5 12 6 24 7 28 4 3 -3 6 -1 6 5 0 16
-12 15 -36 -4z"/>
<path d="M810 4750 c-6 -11 -8 -20 -5 -20 3 0 14 9 25 20 15 15 16 20 5 20 -8
0 -19 -9 -25 -20z"/>
<path d="M865 4760 c4 -6 11 -8 16 -5 14 9 11 15 -7 15 -8 0 -12 -5 -9 -10z"/>
<path d="M850 4721 c-12 -24 -13 -34 -1 -27 9 6 22 46 15 46 -2 0 -8 -9 -14
-19z"/>
<path d="M630 4640 c0 -5 7 -10 15 -10 8 0 15 5 15 10 0 6 -7 10 -15 10 -8 0
-15 -4 -15 -10z"/>
<path d="M746 4505 c-9 -26 -7 -32 5 -12 6 10 9 21 6 23 -2 3 -7 -2 -11 -11z"/>
<path d="M606 4495 c-3 -8 -1 -15 4 -15 6 0 10 7 10 15 0 8 -2 15 -4 15 -2 0
-6 -7 -10 -15z"/>
<path d="M6487 3994 c4 -54 2 -77 -10 -100 -14 -24 -16 -26 -17 -9 -1 18 -2
18 -11 -4 -5 -14 -15 -21 -23 -18 -11 5 -15 -37 -19 -246 -5 -267 -24 -416
-82 -647 -43 -170 -125 -391 -192 -518 -152 -288 -318 -509 -561 -745 -360
-352 -666 -552 -1091 -717 -233 -89 -359 -123 -611 -165 -228 -37 -400 -48
-635 -42 -399 11 -706 71 -1082 212 -234 88 -545 252 -698 369 -22 17 -44 34
-50 38 -98 74 -196 157 -263 222 -87 85 -132 116 -72 50 19 -21 42 -44 50 -50
11 -10 12 -15 3 -24 -14 -15 -36 -3 -29 16 5 14 -67 94 -86 94 -7 0 -6 5 2 14
9 12 -1 28 -58 88 -38 40 -83 88 -100 107 -18 19 -32 29 -32 24 0 -6 7 -16 15
-23 8 -7 13 -16 10 -20 -3 -5 1 -10 7 -13 7 -2 9 -8 5 -13 -5 -5 -16 2 -26 15
-14 18 -20 20 -23 10 -4 -11 -8 -12 -20 -2 -8 7 -18 10 -21 7 -4 -4 -11 5 -16
20 -10 26 -21 35 -21 17 0 -15 51 -72 60 -66 11 7 33 -22 25 -34 -3 -7 0 -8
10 -5 12 5 13 9 4 20 -24 29 -1 23 25 -7 15 -17 34 -28 41 -25 8 3 17 1 20 -4
4 -6 0 -10 -9 -10 -8 0 -22 -3 -32 -7 -11 -4 -15 -3 -10 5 9 15 -14 26 -27 13
-9 -9 -9 -14 2 -20 8 -6 9 -11 3 -15 -6 -3 -13 2 -16 11 -4 10 -27 41 -51 68
-64 70 -64 70 -54 88 6 10 5 18 -1 22 -5 3 -10 3 -11 -2 0 -4 -5 1 -10 12 l-9
20 3 -20 c2 -11 9 -19 16 -17 7 1 10 -2 5 -9 -9 -16 -76 60 -69 79 3 7 0 10
-5 7 -11 -7 -59 66 -71 109 -5 17 -21 38 -36 47 -21 12 -49 58 -105 170 -176
353 -264 653 -298 1019 -6 63 -14 140 -17 170 l-7 55 -9 -65 c-14 -105 -24
-712 -13 -783 3 -21 8 -53 12 -72 3 -20 9 -33 15 -30 5 4 9 77 9 170 0 160 1
165 23 176 21 11 21 11 7 -6 -12 -14 -16 -56 -18 -195 -4 -198 21 -422 57
-508 23 -54 36 -106 46 -175 8 -62 68 -205 111 -265 18 -26 56 -92 84 -147 47
-91 114 -203 130 -215 3 -3 22 -43 41 -89 33 -81 78 -139 169 -217 14 -12 43
-47 65 -78 41 -58 138 -142 229 -201 29 -18 68 -53 89 -76 20 -24 46 -54 58
-66 38 -39 361 -250 454 -296 50 -24 124 -65 165 -91 41 -25 79 -46 85 -46 5
0 64 -21 130 -46 145 -56 283 -99 435 -136 47 -11 103 -24 125 -28 22 -5 85
-18 140 -30 102 -21 487 -60 605 -60 121 0 452 34 590 60 69 14 156 29 255 46
96 17 268 64 350 96 91 35 319 141 365 169 25 15 96 54 157 87 129 69 294 182
403 277 41 35 98 80 125 98 28 19 91 68 142 108 112 90 285 300 357 434 27 50
68 117 91 150 24 33 51 76 61 95 11 19 29 49 40 65 103 145 205 458 242 741 6
45 24 124 41 175 39 122 54 302 46 539 -9 262 -58 625 -105 787 l-29 98 6 -71z
m-5599 -2142 c2 -7 -2 -10 -12 -6 -9 3 -16 11 -16 16 0 13 23 5 28 -10z m-4
-98 c3 -8 2 -12 -4 -9 -6 3 -10 10 -10 16 0 14 7 11 14 -7z m86 12 c0 -2 -6
-9 -14 -15 -11 -9 -16 -9 -22 0 -4 7 -3 9 4 5 6 -3 13 -2 17 4 6 10 15 14 15
6z m-47 -29 c3 -7 -3 -13 -14 -14 -15 -1 -16 1 -6 12 15 18 14 18 20 2z m77 1
c0 -4 -7 -8 -15 -8 -8 0 -15 4 -15 8 0 5 7 9 15 9 8 0 15 -4 15 -9z m2 -92 c7
5 8 2 3 -5 -5 -9 -13 -7 -31 10 -13 12 -24 27 -24 33 0 6 10 -1 21 -17 11 -15
26 -24 31 -21z m58 -6 c0 -5 -7 -10 -16 -10 -8 0 -12 5 -9 10 3 6 10 10 16 10
5 0 9 -4 9 -10z m11 -77 c13 -16 12 -17 -3 -4 -10 7 -18 15 -18 17 0 8 8 3 21
-13z m69 -48 c0 -12 -19 -12 -23 0 -4 9 -1 12 9 8 7 -3 14 -7 14 -8z m50 -51
c0 5 7 3 15 -4 8 -7 12 -17 9 -22 -7 -11 -44 20 -44 36 0 6 5 4 10 -4 5 -8 10
-11 10 -6z m47 -31 c-4 -3 -1 -13 6 -22 11 -14 10 -14 -5 -2 -16 12 -16 31 -1
31 4 0 3 -3 0 -7z"/>
<path d="M6402 3960 c0 -14 2 -19 5 -12 2 6 2 18 0 25 -3 6 -5 1 -5 -13z"/>
<path d="M661 2036 c-9 -10 -8 -15 3 -19 9 -4 18 -1 22 5 5 7 2 8 -6 3 -10 -6
-12 -4 -7 8 8 21 3 22 -12 3z"/>
<path d="M774 2000 c0 -13 4 -16 10 -10 7 7 7 13 0 20 -6 6 -10 3 -10 -10z"/>
<path d="M1020 1720 c0 -5 5 -10 10 -10 6 0 10 5 10 10 0 6 -4 10 -10 10 -5 0
-10 -4 -10 -10z"/>
<path d="M1100 1610 c0 -5 5 -10 10 -10 6 0 10 5 10 10 0 6 -4 10 -10 10 -5 0
-10 -4 -10 -10z"/>
</g>
</svg>
